<?xml version="1.0" encoding="UTF-8"?><svg id="Layer_2" xmlns="http://www.w3.org/2000/svg" viewBox="0 0 317.46 317.38"><defs><style>.cls-1{fill:#f2f2f2;}.cls-2{fill:#fad52e;}.cls-3{fill:#00dabd;}.cls-4{fill:#f4f4f4;}.cls-5{fill:#f5f5f5;}.cls-6{fill:#fff;}.cls-7{fill:#fefefe;}.cls-8{fill:#fbd62e;}.cls-9{fill:#add;}.cls-10{fill:#cfd8dc;}.cls-11{fill:#1a2959;}</style></defs><g id="Layer_1-2"><g><rect class="cls-6" x="14.73" y="11.5" width="210.36" height="295.09" transform="translate(-7.35 5.82) rotate(-2.7)"/><g><path class="cls-11" d="m241.11,20.08c9.18.45,18.33,1.33,27.43,2.63,5.81.83,10.95,6.64,11.69,12.16.84,6.3-.49,12.44-1.31,18.61-.51,3.84.31,5.13,4.13,5.86,8.18,1.57,16.39,3.07,24.47,5.1,5.8,1.45,9.85,7.69,9.93,13.68.09,7.08-2.11,13.77-3.35,20.62-1.62,9.02-3.67,17.97-5.5,26.96-2,9.83-4.11,19.63-5.85,29.51-.77,4.34-2.06,8.61-1.86,13.17.09,2.07-1.41,4.13-1.84,6.37-2.38,12.51-4.94,24.98-7.5,37.45-2.03,9.94-4.24,19.85-6.19,29.82-2.44,12.49-4.61,25.04-7.06,37.53-1.52,7.75-3.78,15.37-4.87,23.16-.9,6.41-4.03,10.62-9.57,13.32-4.2,2.05-8.62,1.39-12.98.55-11.53-2.24-23.07-4.47-34.57-6.86-4.95-1.03-9.85-2.23-14.96-1.85-8.61.65-17.25.91-25.87,1.37-7.15.38-14.31.76-21.46,1.15-8.83.49-17.67.91-26.5,1.37-7.05.37-14.09.82-21.15,1.16-9.15.44-18.29.98-27.44,1.37-7.15.3-14.3.82-21.46,1.19-9.57.49-19.12,1.21-28.71,1.27-6.78.04-14.14-8.44-14.28-14.15-.22-8.93-.86-17.86-1.23-26.81-.3-7.37-.71-14.75-1.26-22.1-.71-9.42-.61-18.88-1.7-28.29-.54-4.63-.43-9.37-.59-14.05-.22-6.47-.57-12.95-.92-19.4-.58-10.58-1.22-21.16-1.72-31.74-.44-9.37-1.07-18.72-1.39-28.1-.26-7.47-.86-14.95-1.23-22.43-.41-8.31-.88-16.62-1.29-24.93-.2-4.12-.54-8.14-.15-12.3.18-1.9-1.41-4.22-.98-6.49.76-4.08-.97-8.02-.59-12,.41-4.29-.95-8.41-.68-12.63C1.12,35.92.03,30.61,0,25.22c-.04-6.42,6.73-14.04,13.24-14.58,7.78-.65,15.55-.97,23.35-1.25,6.84-.25,13.67-1.49,20.52-1.09,4.72.28,9.29-.73,13.95-.86,9.26-.26,18.56-.58,27.78-1.73.52-.06,1.05-.03,1.58-.01,11.07.27,22.06-1.22,33.13-1.4,7.46-.12,14.94-.77,22.4-1.23,8.1-.5,16.19-.92,24.3-1.27,7.89-.34,15.78-.8,23.66-1.3,4.48-.28,8.95-.35,13.42-.48,6.94-.21,12.9,4.42,14.71,10.79.39,1.37.68,2.78.89,4.19.63,4.32.9,4.57,5.36,4.57.53,0,1.05,0,1.58,0,.18.76.72.63,1.26.53Zm18.24,246.68c-.16.23-.33.47-.49.7-.45,5.99-.72,11.99-1.41,17.95-.65,5.58-.4,11.49-4.51,16.13-1.22.37-2.54.67-1.87,2.47,1.05,3.35,4.05,2.2,6.26,2.54,3.07.47,4.95-1.26,5.71-4.18.47-1.81.96-3.63,1.24-5.48,1.98-13.24,5.19-26.24,7.31-39.47,1.86-11.59,5.12-22.95,7.13-34.53,1.24-7.12,2.84-14.17,4.3-21.22,2.57-12.38,4.84-24.82,7.45-37.18,1.93-9.15,3.72-18.36,5.41-27.57,1.12-6.12,2.48-12.19,3.74-18.28,2.67-12.8,5.09-25.65,7.58-38.49.56-2.87-.49-5.01-3.4-5.82-2.97-.83-5.95-1.67-9.08-1.7-.19-.07-.38-.12-.58-.17-4.77-1.04-9.53-2.14-14.31-3.08-.71-.14-2.15-.45-2.1,1.1.14,4.26-2.53,8.19-1.34,12.58.26.97.07,2.09-.04,3.13-.8,7.93-1.38,15.9-2.55,23.78-.52,3.49-.33,7-.93,10.5-.37,2.2-1.76,4.34-1.29,6.47.36,1.68.55,3.31.4,4.93-.62,6.71-1.36,13.42-2,20.13-.22,2.28.56,4.8-.19,6.58-1.54,3.63-.27,7.39-1.4,10.99-.41,1.32-1.77,2.49-1.33,3.97,1.39,4.71-.48,9.22-.6,13.82-.08,3.24-1.17,6.5-.61,9.62.53,2.96-.72,5.6-.68,8.48.03,2.24-.73,4.7-.22,7.13-.81.06-1.14.53-1.12,1.3-.09,1.93-1.15,4.32-.9,5.52.81,3.76-.27,7.23-.46,10.78-.31,5.66-1.42,11.28-1.64,16.94-.15,3.63-1.94,7.27-.24,10.93-.02.59-.04,1.19-.06,1.78-.57.3-.52.8-.42,1.32-.04.81-.09,1.61-.13,2.42-1.1.9-.43,2.16-.68,3.24l.04-.06ZM9.7,25.88c-.14.45.15.59.5.69.08.47-.08,1.06.63,1.2-.32,6.35.7,12.66.92,18.99.14,4.11.15,8.26.32,12.39.06,1.54,1.51,2.5,1.28,4.05-.67,4.57-.71,9.05-.22,13.72.44,4.27,1.57,8.62.89,13.01-.7,4.48,1.13,8.81.71,13.34-.45,4.84.9,9.68.59,14.59-.2,3.18.73,6.3.71,9.55-.03,5.48.88,10.97.49,16.48-.1,1.39,1.36,2.14,1.07,3.68-1.38,7.11,1.06,14.19.37,21.31-.02.24.32.52.5.78.17.23.34.45.51.68-.57,3.78-1.16,7.55.12,11.31.17.23.34.45.51.68-.74,3.78-1.02,7.55.12,11.31.17.23.34.45.51.68-.61.92-.58,1.96-.52,2.99.44,7.16.94,14.34,1.09,21.48.2,9.26,1.74,18.43,1.37,27.68-.18,4.49,1.52,8.76.81,13.35-.64,4.16.9,8.35.69,12.69-.19,4.17,1.15,8.44.4,12.68-.42,2.35,1.8,4.19,1.19,6.24-.78,2.61-.6,5.19-.44,7.73.26,4.28,1.68,7.42,6.94,6.88,4.45-.45,8.93-.23,13.42-.52,8.09-.52,16.19-.89,24.29-1.33,7.89-.43,15.78-.8,23.67-1.26,8.3-.48,16.62-.76,24.93-1.27,7.05-.44,14.1-.96,21.14-1.23,9.37-.36,18.73-.63,28.09-1.34,6.83-.51,13.7-1.12,20.51-1.14,10.76-.02,21.43-1.55,32.18-1.45.75,0,1.7.48,2.25-.53,2.52-.03,5.04-.07,7.56-.07,4.95-.02,7.86-2.94,6.83-7.66-1.12-5.15-.54-10.34-.99-15.5-.69-8.06-.93-16.19-1.37-24.29-.44-8.21-.82-16.41-1.27-24.62-.43-7.79-.83-15.59-1.23-23.38-.43-8.21-.86-16.42-1.28-24.64-.38-7.58-.86-15.16-1.25-22.74-.42-8.32-.83-16.64-1.27-24.95-.4-7.48-.98-14.95-1.25-22.42-.45-12.38-1.26-24.74-1.91-37.11-.42-8-.95-16.01-1.22-24.01-.33-9.69-1.27-19.34-1.39-29.04-.04-3.18-2.55-5.93-5.56-5.32-3.22.65-6.42.22-9.6.66-5.9.09-11.77.76-17.65,1.03-7.89.36-15.77.9-23.65,1.25-8.1.36-16.19.81-24.28,1.27-7.88.44-15.77.93-23.65,1.25-8.21.33-16.4.85-24.6,1.27-8.62.44-17.24.82-25.86,1.27-8.09.43-16.19.95-24.28,1.24-6.67.24-13.32,1.02-20.02.85-2.65-.06-5.36.38-8.03.64-1.9.19-4.03,1.03-4.11,3.68-.58.25-1.17.48-1.18,1.26Zm233.42,181.62c-.03,1.99-.19,3.99-.08,5.98.58,10.74,1.22,21.48,1.85,32.21.43,7.42,1.09,14.83,1.24,22.25.08,4.06.53,8.04.94,12.87,1.36-8.83,1.53-16.93,2.23-24.98.43-4.88,1.55-9.64,1.53-14.64-.02-3.15.52-6.53,1.26-9.8,1.29-5.72-.46-11.97,2.78-17.44.14-.23.15-.7,0-.91-2.26-3.33-.63-6.97-.3-10.24.65-6.38.58-12.87,1.88-19.12,1.13-5.41-.61-11.31,2.8-16.32.38-.55.04-1.23-.37-1.74-1.09-1.35-.56-2.95-.54-4.4.04-3.92,1.64-7.61,1.44-11.66-.2-4.18.11-8.52,1.09-12.58,1.29-5.4-.69-11.33,2.82-16.32.38-.54.02-1.23-.4-1.74-1.11-1.35-.55-2.96-.52-4.4.08-3.91,1.54-7.62,1.44-11.66-.12-4.72.25-9.58,1.26-14.18,1.09-4.93-.78-10.38,2.67-14.86.1-.13.12-.48.02-.61-2.26-2.91-.34-6.07-.46-9.09-.13-3.19.42-6.42.75-9.63.56-5.47,1.27-10.93,1.71-16.41.2-2.53-1.09-4.81-3.64-5.14-2.75-.35-5.53-1.29-8.38-.66-2.13-.49-4.28-.65-6.47-.79-5.06-.33-10.14-.79-15.13-1.63-2.51-.42-3.38.11-2.98,2.52,1.04,6.3.61,12.68,1.15,19.01.62,7.36.9,14.77,1.26,22.15.61,12.61,1.33,25.21,1.94,37.82.34,6.98,1.07,13.95,1.15,20.91.11,10.03.95,20.02,1.59,30,.46,7.19.3,14.39.99,21.58.7,7.24.53,14.57,1.47,21.82,0,.61.01,1.23.02,1.84Z"/><path class="cls-7" d="m241.11,20.08c-.54.11-1.08.23-1.26-.53.89-.95,1.11-.29,1.26.53Z"/><path class="cls-10" d="m208.41,56.77c2.45-1.84,1.32-4.55.98-6.55-.87-5.09-.53-10.22-.88-15.3-.55-8.01-.98-16.03-1.49-24.05,3.18-.43,6.38,0,9.6-.66,3.01-.61,5.52,2.14,5.56,5.32.12,9.69,1.06,19.35,1.39,29.04.27,8,.8,16,1.22,24.01.65,12.37,1.47,24.72,1.91,37.11.27,7.47.85,14.94,1.25,22.42.44,8.32.85,16.64,1.27,24.95.38,7.58.87,15.16,1.25,22.74.41,8.21.85,16.42,1.28,24.64.41,7.79.81,15.59,1.23,23.38.45,8.21.83,16.42,1.27,24.62.44,8.1.67,16.23,1.37,24.29.44,5.16-.14,10.35.99,15.5,1.03,4.72-1.88,7.64-6.83,7.66-2.52,0-5.04.05-7.56.07-.44-9.94-.72-19.89-1.37-29.81-.51-7.83-.86-15.67-1.29-23.51-.65-11.91-1.28-23.82-1.9-35.74-.62-11.91-1.25-23.82-1.88-35.74-.64-12.12-1.41-24.23-1.88-36.37-.43-11.08-1.23-22.14-1.86-33.21.02-.78-.3-1.27-1.15-1.25-.07-.4-.14-.81-.2-1.21,1.64-4.32.7-8.8.53-13.18-.09-2.14-.28-4.34-.42-6.51,3.58-2.46,4.58-4.58,3.44-7.53-1.71-4.43-3.48-8.83-5.23-13.24.08-.06.23-.15.22-.18-.07-.15-.17-.28-.26-.42-.2-.43-.39-.86-.59-1.29Z"/><path class="cls-3" d="m243.1,205.66c-.94-7.25-.77-14.58-1.47-21.82-.69-7.19-.53-14.39-.99-21.58-.64-9.98-1.48-19.97-1.59-30-.08-6.96-.81-13.93-1.15-20.91-.62-12.61-1.33-25.21-1.94-37.82-.36-7.39-.64-14.8-1.26-22.15-.53-6.34-.11-12.72-1.15-19.01-.4-2.4.47-2.94,2.98-2.52,5,.84,10.07,1.31,15.13,1.63,2.19.14,4.34.31,6.47.79,1.23,1.67,1.37,3.61,1.35,5.58,0,.21,0,.42,0,.64-.46,6.24-.76,12.5-1.43,18.72-.52,4.87-.64,9.81-1.39,14.62-1.11,7.12-1.49,14.29-2.25,21.44-.86,8.08-1.03,16.25-2.09,24.3-1.53,11.68-1.96,23.46-3.61,35.11-.55.24-.65.71-.63,1.25-.2.58-.7,1.27-.54,1.74,1.52,4.59.07,9.16-.28,13.67-.95,12.13-2.39,24.22-3.63,36.32-.18,0-.35,0-.53,0Z"/><path class="cls-3" d="m294.72,72.64c3.13.02,6.11.87,9.08,1.7,2.91.81,3.96,2.95,3.4,5.82-2.49,12.84-4.91,25.69-7.58,38.49-1.27,6.09-2.62,12.16-3.74,18.28-1.69,9.21-3.49,18.42-5.41,27.57-2.61,12.37-4.88,24.81-7.45,37.18-1.46,7.05-3.07,14.1-4.3,21.22-2.01,11.57-5.27,22.94-7.13,34.53-2.12,13.22-5.33,26.23-7.31,39.47-.28,1.85-.76,3.67-1.24,5.48-.76,2.92-2.64,4.65-5.71,4.18-2.22-.34-5.21.81-6.26-2.54,1.01-.53,2.1-1,1.87-2.47,4.12-4.64,3.87-10.55,4.51-16.13.69-5.96.95-11.97,1.41-17.95.16-.23.33-.47.49-.7,0,0-.04.06-.04.06,1.23-.87.56-2.14.68-3.24.04-.81.09-1.61.13-2.42.94-.18,1.47-.5.42-1.32.02-.59.04-1.19.06-1.78.91-.58.99-1.64,1.17-2.49,1.96-9.06,3.57-18.18,5.66-27.22,2.73-11.77,4.22-23.81,6.83-35.61,1.64-7.41,3.1-14.86,4.65-22.29,2.15-10.3,3.84-20.7,5.87-31.02,1.99-10.11,4.12-20.19,6.27-30.27,1.3-6.12,2.52-12.24,3.49-18.42.91-5.86,3.65-11.67.2-17.57,0-.18,0-.35,0-.53Z"/><path class="cls-3" d="m243.63,205.66c1.24-12.11,2.68-24.2,3.63-36.32.35-4.51,1.8-9.07.28-13.67-.15-.47.34-1.15.54-1.74.77-.13,1.54-.26.63-1.25,1.65-11.66,2.08-23.44,3.61-35.11,1.06-8.05,1.23-16.22,2.09-24.3.76-7.14,1.14-14.32,2.25-21.44.75-4.82.87-9.75,1.39-14.62.66-6.22.97-12.48,1.42-18.72.25-.11.51-.21.76-.32-.25-.11-.51-.21-.76-.32.02-1.97-.12-3.91-1.35-5.58,2.85-.63,5.62.3,8.38.66,2.54.33,3.84,2.61,3.64,5.14-.43,5.48-1.15,10.94-1.71,16.41-.33,3.21-.88,6.43-.75,9.63.12,3.02-1.8,6.18.46,9.09.1.13.08.47-.02.61-3.45,4.47-1.58,9.93-2.67,14.86-1.01,4.61-1.38,9.46-1.26,14.18.1,4.04-1.35,7.75-1.44,11.66-.03,1.44-.59,3.05.52,4.4.42.51.78,1.2.4,1.74-3.5,4.99-1.52,10.92-2.82,16.32-.97,4.06-1.29,8.4-1.09,12.58.19,4.06-1.41,7.75-1.44,11.66-.01,1.45-.55,3.05.54,4.4.41.51.75,1.19.37,1.74-3.41,5.01-1.67,10.9-2.8,16.32-1.31,6.25-1.24,12.75-1.88,19.12-.33,3.27-1.96,6.91.3,10.24.14.21.13.68,0,.91-3.24,5.47-1.5,11.72-2.78,17.44-.74,3.27-1.27,6.65-1.26,9.8.02,5-1.1,9.76-1.53,14.64-.7,8.05-.87,16.15-2.23,24.98-.41-4.82-.86-8.8-.94-12.87-.14-7.42-.8-14.83-1.24-22.25-.63-10.74-1.27-21.47-1.85-32.21-.11-1.99.05-3.99.08-5.98.61-.49.5-1.18.51-1.84Z"/><path class="cls-3" d="m294.73,73.17c3.45,5.9.72,11.71-.2,17.57-.96,6.18-2.18,12.31-3.49,18.42-2.15,10.08-4.28,20.16-6.27,30.27-2.03,10.33-3.73,20.72-5.87,31.02-1.55,7.43-3.01,14.88-4.65,22.29-2.61,11.8-4.1,23.85-6.83,35.61-2.1,9.04-3.7,18.17-5.66,27.22-.18.85-.26,1.91-1.17,2.49-1.7-3.67.09-7.3.24-10.93.23-5.66,1.34-11.28,1.64-16.94.19-3.55,1.27-7.02.46-10.78-.26-1.2.8-3.6.9-5.52.76-.1,1.37-.33,1.12-1.3-.52-2.43.25-4.89.22-7.13-.04-2.87,1.21-5.52.68-8.48-.56-3.13.53-6.38.61-9.62.12-4.6,1.99-9.11.6-13.82-.44-1.47.92-2.64,1.33-3.97,1.13-3.61-.14-7.36,1.4-10.99.75-1.77-.03-4.3.19-6.58.64-6.71,1.38-13.42,2-20.13.15-1.61-.04-3.25-.4-4.93-.46-2.13.92-4.27,1.29-6.47.59-3.5.4-7.01.93-10.5,1.18-7.88,1.76-15.84,2.55-23.78.1-1.04.3-2.16.04-3.13-1.19-4.39,1.47-8.33,1.34-12.58-.05-1.55,1.39-1.24,2.1-1.1,4.79.94,9.55,2.03,14.31,3.08.2.23.39.47.59.7Z"/><path class="cls-1" d="m10.88,24.62c.9,1.07.92,2.12-.05,3.15-.71-.14-.55-.73-.63-1.2-.17-.23-.33-.46-.5-.69,0-.78.6-1.01,1.18-1.26Z"/><path class="cls-11" d="m252.94,301.54c.22,1.47-.86,1.94-1.87,2.47-.66-1.8.65-2.1,1.87-2.47Z"/><path class="cls-3" d="m259.99,263.59c-.13,1.1.55,2.37-.68,3.24.26-1.07-.41-2.34.68-3.24Z"/><path class="cls-11" d="m264.95,212.6c.25.97-.36,1.2-1.12,1.3-.01-.77.31-1.24,1.12-1.3Z"/><path class="cls-3" d="m260.54,259.85c1.05.82.53,1.13-.42,1.32-.11-.52-.15-1.02.42-1.32Z"/><path class="cls-3" d="m243.63,205.66c-.01.66.1,1.35-.51,1.84,0-.61-.01-1.23-.02-1.84.18,0,.35,0,.53,0Z"/><path class="cls-11" d="m18.44,169.64c.36.09.64.23.51.68-.17-.23-.34-.45-.51-.68Z"/><path class="cls-11" d="m19.7,193.61c.36.09.64.23.51.68-.17-.23-.34-.45-.51-.68Z"/><path class="cls-11" d="m19.07,181.63c.36.09.64.23.51.68-.17-.23-.34-.45-.51-.68Z"/><path class="cls-3" d="m294.73,73.17c-.2-.23-.39-.47-.59-.7.2.05.39.1.58.17,0,.18,0,.35,0,.53Z"/><path class="cls-3" d="m259.35,266.76c-.16.23-.33.47-.49.7.16-.23.33-.47.49-.7Z"/><path class="cls-5" d="m9.7,25.88c.17.23.33.46.5.69-.35-.1-.64-.24-.5-.69Z"/><path class="cls-11" d="m208.41,56.77c.2.43.39.86.59,1.29-.07.21-.06.4.04.6,1.74,4.41,3.51,8.82,5.23,13.24,1.14,2.94.14,5.07-3.44,7.53-1.72.25-3.45.22-5.2.56-2.51.49-4.85-.79-6.11-3.09-1.14-2.08-1.29-4.26.78-6.16,1.83-1.68.92-4.8-1.42-5.79-3.91-1.66-7.74.18-11.6.23-1.7.02-2.52,4.11-1.27,5.55,1.56,1.79,2.54,3.73,2.1,6.17-.35.1-.63.24-.49.69-2.94,3.9-7.47,5.09-12.03,3.16-2.59-1.1-3.76-4-2.9-7,2.19-7.64,4.68-15.22,6.38-22.97,1.25-5.73,3.51-11.13,4.66-16.85.47-2.35,1.16-4.63,1.76-6.92.82-3.11,2.64-4.7,5.39-4.81,2.86-.11,4.59,1.75,5.68,4.6,3.82,10.05,7.9,20,11.88,29.98Zm-12.81-3.23c-1.18-3.02-2.28-5.82-3.41-8.72-1.12,1.05-1.21,2.4-1.5,3.66q-1.23,5.38,4.91,5.06Z"/><path class="cls-11" d="m40.77,237.2c1.16,0,2.31.04,3.47,0,2.67-.12,3.56,1.73,4.1,3.8.45,1.75,1.2,3.67-1.39,4.69-.64.25-1.8.85-1.18,2.15.94,1.97,1.49,4.45,4.25,4.45,2.25,0,4.5-.47,6.74-.76.39-.05.82-.5,1.11-.39,4.26,1.51,3.49-1.91,4.22-4.08.33-1,0-1.28-.64-1.65-2.29-1.36-3.24-4.01-2.82-5.95.47-2.15,2.81-3.7,5.58-3.55.66.04,1.34-.52,2.03-.57,5.36-.34,10.03,1,7.78,8.82-4.29,14.95-8.1,30.03-12.23,45.02-.65,2.35-1.74,4.59-4.84,4.84-3.42.28-4.95-1.54-6.09-4.46-3.89-9.91-8.13-19.69-11.85-29.66-1.95-5.23-4.14-10.37-6.07-15.6-1.53-4.14.59-7.04,4.98-7.09.95,0,1.89,0,2.84,0Zm17.44,25.24c-1.89,0-3.54,0-5.19,0-.91,0-1.38.21-.94,1.27,1.03,2.48,2,4.99,3.1,7.75,1.65-3.01,1.93-6.03,3.03-9.01Z"/><path class="cls-11" d="m210.7,99.11c.07.4.14.81.2,1.21,0,.42.01.83.02,1.25-1.8,5.64-6.66,4.3-10.8,4.41.67,3.44,1.56,6.58-.9,9.41-1.51,1.74-3.59,2.63-5.55,1.77-1.91-.83-3.51-2.57-3.66-5-.11-1.77.52-4.08-.37-5.15-.89-1.06-3.14.43-4.91.28-3.26-.28-5.82-2.36-6.08-5.41-.19-2.25,2.2-5.08,5.09-5.27,3.63-.23,4.77-2.24,5.01-5.39.26-3.42,1.94-5.34,4.65-5.43,4.16-.13,5.51,1.02,6.07,5.15.35,2.6,2.79,4.97,5.49,4.89,2.7-.08,4.5.99,5.74,3.27Z"/><path class="cls-11" d="m58.16,209.94c2.2-.92,4.61-.81,6.74-.35,2.23.49,3.36,2.51,3.38,4.97.02,2.91-1.89,4.32-4.22,4.9-4.86,1.21-5.52,1.8-5.86,6.54-.2,2.79-2.28,4.22-4.59,4.79-2.49.62-4.29-.96-5.5-3.09-.29-.52-.47-1.12-.62-1.7-1.19-4.51-1.83-5.18-6.13-5.15-2.43.02-3.99-1.49-4.42-3.22-.5-2.02-.99-4.6,1.37-6.29,1.63-1.17,3.45-.67,5.13-.56,2.6.18,3.96-.37,3.42-3.32-.21-1.12-.07-2.3-.04-3.46.09-3.34,1.56-4.67,5.09-4.65,2.99.01,5.08,1.82,4.96,4.62-.08,1.93.83,3.62.84,5.48-.13.43.05.57.46.49Z"/><path class="cls-1" d="m183.03,175.39c-.69-.71-1.31-1.45-1.11-2.54,2.01.13,2.37.98,1.11,2.54Z"/><path class="cls-4" d="m210.93,101.57c0-.42-.01-.83-.02-1.25.85-.01,1.17.47,1.15,1.25-.38,0-.75,0-1.13,0Z"/><path class="cls-1" d="m58.16,209.94c-.41.08-.59-.06-.46-.49.15.16.31.33.46.49Z"/><path class="cls-1" d="m187.6,77.59c-.14-.45.15-.59.49-.69-.16.23-.33.46-.49.69Z"/><path class="cls-5" d="m209.03,58.65c-.1-.19-.11-.39-.04-.6.09.14.19.27.26.42,0,.02-.14.12-.22.18Z"/><path class="cls-3" d="m248.71,152.68c.91.98.14,1.12-.63,1.25-.02-.53.08-1,.63-1.25Z"/><path class="cls-3" d="m259.48,37.85c.25.11.51.21.76.32-.25.11-.51.21-.76.32,0-.21,0-.42,0-.64Z"/><path class="cls-1" d="m195.6,53.54q-6.13.32-4.91-5.06c.29-1.25.37-2.6,1.5-3.66,1.13,2.9,2.23,5.69,3.41,8.72Z"/><path class="cls-1" d="m58.21,262.43c-1.1,2.98-1.38,6-3.03,9.01-1.1-2.76-2.07-5.27-3.1-7.75-.44-1.06.02-1.27.94-1.27,1.65.01,3.31,0,5.19,0Z"/><g id="Kahzrg"><g><path class="cls-11" d="m161.84,131.23c1.26-.79,2.23-.4,3.14.66,1.63,1.88,3.32,3.72,4.98,5.57,1.37,1.53,1.41,2.02.28,3.76-14.13,21.85-28.26,43.7-42.4,65.56-2.05,3.18-4.1,6.36-6.17,9.53-1.26,1.93-2.47,2.02-3.93.27-8.72-10.45-17.42-20.92-26.16-31.36-.91-1.09-1.09-2.09-.16-3.21,1.24-.7,2.24-.44,3.14.67,2.09,2.58,4.23,5.12,6.37,7.67,3.85,4.59,7.72,9.17,11.58,13.75.08.14.16.29.24.43.19-.22.09-.42-.03-.62-.04-.13-.08-.26-.13-.39-7.54-18.81-15.09-37.61-22.6-56.43-.35-.87-.85-.89-1.59-.85-7.19.45-14.38.88-21.57,1.32-.39.02-.82-.08-1.19.22.08.49.48.77.76,1.12,4.66,5.6,9.32,11.22,14.01,16.79.93,1.1,1.2,2.14.27,3.34-1.32.74-2.31.35-3.24-.78-5.68-6.86-11.39-13.7-17.09-20.54-1.2-1.44-1.21-1.98-.12-3.54,4.81-6.89,9.63-13.77,14.42-20.67.66-.95,1.43-1.41,2.62-1.48,24.39-1.45,48.79-2.92,73.18-4.42,1.12-.07,1.95.22,2.68,1.07,1.6,1.85,3.22,3.68,4.89,5.47.97,1.05,1.11,2.07.21,3.2-1.25.76-2.24.43-3.15-.64-1.07-1.26-2.21-2.46-3.43-3.82-2.91,5.42-5.75,10.7-8.66,16.11,7.38-.45,14.5-.88,21.9-1.32-1.06-1.2-1.94-2.23-2.86-3.22-.97-1.04-1.1-2.08-.19-3.2Zm-61.29,3.32c.92,1.51.87,2.04-.35,3.26-1.28,1.28-2.58,2.54-4.07,4,12.79-.77,25.24-1.53,37.85-2.29-.22-.25-.32-.4-.45-.5-6.21-4.72-12.44-9.43-18.64-14.17-.66-.5-1.03-.31-1.51.17-1.58,1.56-3.2,3.07-4.76,4.65-1.03,1.04-2.08,1.29-3.31.39-.75-1.22-.49-2.24.56-3.18.94-.83,1.8-1.75,2.87-2.8-9.6.58-18.91,1.14-28.4,1.72,3.53,5.01,6.98,9.88,10.41,14.78.53.76.84.17,1.16-.14,1.86-1.79,3.73-3.57,5.55-5.4.94-.94,1.91-1.22,3.08-.49Zm24.8,68.78c.2-.25.41-.49.58-.76,12.89-19.92,25.78-39.85,38.66-59.78.21-.33.58-.61.45-1.18-.5.03-1,.06-1.5.09-7.01.43-14.01.9-21.03,1.26-1.16.06-1.55.49-1.83,1.53-2.38,9.05-4.81,18.08-7.21,27.12-2.79,10.51-5.58,21.02-8.36,31.53,0,.11,0,.22-.01.33.08-.05.17-.1.25-.16Zm-6.23,5.88c.1-.02.19-.03.29-.05.07-.22.14-.43.2-.65,5.7-21.33,11.39-42.67,17.12-63.99.36-1.33-.3-1.17-1.14-1.12-13.42.82-26.83,1.63-40.25,2.44q-1.62.1-1.03,1.57c6.93,17.28,13.86,34.57,20.79,51.85,1.33,3.32,2.68,6.63,4.02,9.94Zm28.74-87.47c-9.5.57-18.81,1.14-28.42,1.72,6.46,4.9,12.71,9.62,18.93,14.37.58.45.76.14,1.01-.32,2.79-5.2,5.59-10.39,8.48-15.76Zm-60.57,20.65c-3.58-5.08-7.03-9.96-10.58-15-3.81,5.46-7.52,10.78-11.4,16.33,7.48-.45,14.59-.88,21.98-1.33Z"/><path class="cls-9" d="m112.53,204.1c-3.86-4.58-7.73-9.16-11.58-13.75-2.14-2.54-4.28-5.08-6.37-7.67-.9-1.11-1.9-1.37-3.14-.67-.63-.79-1.26-1.59-1.9-2.38.87-1.12.78-2.14-.17-3.19-1.01-1.12-1.97-2.29-2.89-3.48-.89-1.15-1.91-1.49-3.22-.77-.85-1.05-1.71-2.1-2.56-3.15.93-1.2.66-2.24-.27-3.34-4.69-5.58-9.35-11.19-14.01-16.79-.28-.34-.67-.62-.76-1.12.37-.3.8-.2,1.19-.22,7.19-.44,14.38-.87,21.57-1.32.74-.05,1.25-.03,1.59.85,7.51,18.82,15.06,37.62,22.6,56.43.05.13.09.26.13.39-.07.06-.14.13-.21.19Z"/><path class="cls-3" d="m161.84,131.23c-.91,1.13-.78,2.17.19,3.2.93.99,1.81,2.03,2.86,3.22-7.4.45-14.52.88-21.9,1.32,2.91-5.41,5.75-10.69,8.66-16.11,1.22,1.36,2.37,2.56,3.43,3.82.91,1.07,1.9,1.4,3.15.64,1.2,1.3,2.4,2.6,3.6,3.9Z"/><path class="cls-11" d="m88.28,90.8c.64-.04,1.29.43,1.66,1.25,1.83,4.11,3.66,8.22,5.44,12.35.55,1.26.13,2.31-.96,2.78-1.05.45-2.01.06-2.56-1.17-1.86-4.15-3.7-8.3-5.49-12.48-.57-1.33.25-2.61,1.91-2.73Z"/><path class="cls-11" d="m132.34,105.02c-1.47.15-2.42-1.21-1.94-2.85.68-2.34,1.41-4.66,2.12-6.98.57-1.89,1.13-3.78,1.73-5.66.42-1.31,1.4-1.89,2.5-1.54,1.08.34,1.58,1.38,1.2,2.68-1.26,4.22-2.55,8.43-3.82,12.65-.28.92-.81,1.53-1.78,1.7Z"/><path class="cls-11" d="m67.55,97.6c.69-.09,1.25.28,1.7.85,2.82,3.53,5.64,7.06,8.44,10.61.8,1.01.69,2.13-.16,2.83-.87.72-1.99.63-2.8-.38-2.9-3.59-5.79-7.18-8.61-10.83-.99-1.27-.19-2.96,1.43-3.09Z"/><path class="cls-11" d="m150.18,107.86c-.79-.06-1.41-.33-1.79-.98-.45-.76-.3-1.5.14-2.21,1.98-3.21,3.96-6.42,5.94-9.64.39-.63.75-1.27,1.17-1.87.72-1.03,1.84-1.32,2.74-.68.98.7,1.19,1.66.57,2.67-2.39,3.93-4.82,7.84-7.24,11.75-.36.59-.93.87-1.53.97Z"/><path class="cls-11" d="m114.34,95.47c.13,2.12.27,4.23.38,6.35.08,1.46-.61,2.41-1.78,2.49-1.17.08-2-.78-2.09-2.23-.27-4.32-.53-8.65-.78-12.98-.09-1.48.59-2.4,1.78-2.48,1.19-.08,1.99.75,2.09,2.22.15,2.21.27,4.42.4,6.63Z"/><path class="cls-11" d="m83.25,172.19c1.31-.72,2.33-.39,3.22.77.92,1.19,1.88,2.36,2.89,3.48.95,1.05,1.04,2.08.17,3.19-1.3.72-2.33.43-3.22-.75-.92-1.2-1.9-2.36-2.91-3.49-.93-1.05-1.05-2.09-.16-3.2Z"/><path class="cls-3" d="m119.12,209.21c-1.34-3.31-2.69-6.62-4.02-9.94-6.93-17.28-13.86-34.57-20.79-51.85q-.59-1.47,1.03-1.57c13.42-.81,26.83-1.62,40.25-2.44.85-.05,1.5-.21,1.14,1.12-5.73,21.32-11.42,42.66-17.12,63.99-.06.22-.13.44-.2.65-.1.02-.19.03-.29.05Z"/><path class="cls-9" d="m125.11,203.15c2.79-10.51,5.57-21.02,8.37-31.53,2.4-9.04,4.84-18.08,7.21-27.12.27-1.04.66-1.47,1.83-1.53,7.01-.36,14.02-.83,21.03-1.26.5-.03,1-.06,1.5-.09.14.57-.24.86-.45,1.18-12.88,19.93-25.77,39.85-38.66,59.78-.17.27-.39.51-.58.76-.08-.06-.16-.12-.24-.18Zm26.83-46.43c-.05-1.01-.49-1.63-1.32-1.89-.94-.29-1.74,0-2.28.83-1.39,2.12-2.76,4.24-4.13,6.38-.81,1.26-.7,2.39.26,3.05,1,.69,2.14.35,3-.95,1.32-2,2.61-4.01,3.91-6.03.3-.46.61-.93.56-1.4Z"/><path class="cls-3" d="m105.32,130.07c1.23.9,2.28.64,3.31-.39,1.56-1.57,3.18-3.09,4.76-4.65.48-.48.85-.67,1.51-.17,6.2,4.74,12.42,9.45,18.64,14.17.13.1.23.25.45.5-12.61.76-25.06,1.51-37.85,2.29,1.49-1.46,2.79-2.72,4.07-4,1.23-1.23,1.27-1.75.35-3.26,1.83-1.24,3.25-2.92,4.77-4.48Z"/><path class="cls-9" d="m105.32,130.07c-1.53,1.56-2.94,3.24-4.77,4.48-1.17-.73-2.14-.45-3.08.49-1.82,1.83-3.69,3.61-5.55,5.4-.32.31-.63.9-1.16.14-3.43-4.89-6.88-9.77-10.41-14.78,9.49-.57,18.8-1.14,28.4-1.72-1.07,1.05-1.93,1.97-2.87,2.8-1.05.94-1.31,1.95-.56,3.18Z"/><path class="cls-9" d="m147.86,121.74c-2.89,5.37-5.69,10.56-8.48,15.76-.25.46-.42.77-1.01.32-6.23-4.75-12.47-9.47-18.93-14.37,9.61-.58,18.92-1.14,28.42-1.72Z"/><path class="cls-3" d="m87.29,142.39c-7.39.45-14.5.88-21.98,1.33,3.87-5.55,7.59-10.87,11.4-16.33,3.55,5.04,7,9.92,10.58,15Z"/><path class="cls-8" d="m112.74,203.91c.12.2.22.4.03.62-.08-.14-.16-.29-.24-.43.07-.06.14-.13.21-.19Z"/><path class="cls-2" d="m125.35,203.33c-.08.05-.17.1-.25.16,0-.11,0-.22.01-.33.08.06.16.12.24.17Z"/><path class="cls-11" d="m151.95,156.73c.06.47-.26.93-.56,1.4-1.3,2.01-2.59,4.03-3.91,6.03-.86,1.3-2,1.65-3,.95-.95-.66-1.07-1.79-.26-3.05,1.36-2.13,2.74-4.26,4.13-6.38.54-.83,1.34-1.12,2.28-.83.83.25,1.26.88,1.32,1.89Z"/></g></g></g></g></g></svg>