<?xml version="1.0" encoding="UTF-8"?><svg id="Layer_2" xmlns="http://www.w3.org/2000/svg" viewBox="0 0 562.7 518.05"><defs><style>.cls-1{fill:#00dabd;}.cls-2{fill:#ffdfcf;}.cls-3{fill:#fff;}.cls-4{fill:#ffeee6;}.cls-5{fill:#8ebac5;}.cls-6{fill:#ccebeb;}.cls-7{fill:#1a2959;}</style></defs><g id="Layer_1-2"><g><path class="cls-7" d="m355.35,437.55c5.62.51,11.24.98,16.85,1.53,5.59.55,8.74,3.9,8.26,8.69-.46,4.63-3.46,6.66-9.23,6.2-4.96-.4-9.93-.74-14.87-1.31-2.38-.27-3.24.47-3.37,2.87-.24,4.64-.7,9.26-1.16,13.89-.68,6.9-5.12,12.53-11.74,13.71-3.65.65-4.24,2.37-4.62,5.5-.74,6.15.25,12.59-3.01,18.37-2.01,3.57-3.06,8.13-8.72,7.22-6.64,6.98-14.58,2.39-21.68,1.85-43.5-3.31-86.96-7.23-130.43-10.95-9.28-.79-15.42-7.79-14.9-16.97.14-2.48.34-4.96.52-7.44.44-5.95,2.8-11.94-6.08-14.97-5.82-1.98-7.94-8-6.74-14.65.79-4.39.72-8.93,1.27-13.37.3-2.39-.43-3.18-2.81-3.32-5.63-.33-11.23-1.06-16.86-1.37-5.36-.3-7-3.23-7.35-8.28-.25-3.55,3.94-6.75,8.27-6.54,5.63.27,11.26.75,16.86,1.38,2.54.29,3.56-.35,3.7-3.02.27-5.13.87-10.25,1.3-15.37.54-6.49,4.67-11.22,11.12-11.97,3.99-.47,5.26-2.01,5.86-6.18,2.15-15.06-1.55-28.77-7.75-42.24-3.73-8.11-6.84-16.36-8.67-25.34-1.2-5.88-3.21-11.95-3.36-17.87-.13-5.27-.68-10.62-.21-15.94,6.75-77.33,13.6-154.66,20.05-232.01.88-10.51,3.83-19.38,12.47-25.58,17.79-12.76,43.94-4.44,49.16,17.08,1.19,4.9,1.45,9.62,1.03,14.53-1.41,16.69-2.77,33.39-4.16,50.09-.49,1.13.79,2.56,1.22,2.13,3.3.8,6.23-1.07,9.46-1.26,10.52-.62,19.16,2.92,26.3,10.42,1.51,1.59,2.61,1.24,4.22.14,11.21-7.67,22.91-9.84,35.14-2.48,3.34,2.01,3.83.56,4.05-2.42,1.92-26.17,4.37-52.3,6.61-78.44.76-8.89,6.2-16.87,15.01-21.42,4.09-2.11,8.41-3.39,12.76-4.69l10.91.93c5.11,2.53,10.3,4.95,14.46,8.99,7.45,7.24,9.75,16.49,8.98,26.31-2.83,35.88-6.01,71.72-9.13,107.57-.59,6.8-2.59,8.97-8.36,9.71-5.39-.97-6.96-2.95-6.63-8.42.12-1.98.25-3.96.42-5.94,2.94-34.47,5.97-68.92,8.79-103.4,1.03-12.56-4.84-18.54-15.81-20.25-8.95-.46-15.73,5.9-16.35,13.21-3.89,45.77-7.96,91.52-11.97,137.28-.04.5-.04,1-.13,1.49-.34,1.85.32,2.72,2.29,2.84,5.95.34,11.89.81,17.84,1.23,6.57,1.01,13.18,1.58,19.83,1.7,9.35,1.09,18.78,1.85,27.37,6.26,10.12,5.19,15.53,13.73,16.9,24.77,2.05,16.56,4.15,33.13,5.52,49.75.99,12.06,3.45,24.13,1.18,36.34-1.9,10.22-6.38,19.38-13.61,26.47-6.41,6.29-12.13,13.26-19.01,19.08-7.13,6.03-14.03,12.32-19.95,19.58-5.25,6.43-8.49,13.54-8.3,22.18.12,5.43-.92,10.88-1.4,16.32-.12,1.38-.79,3.06,1.67,3.26,8.84.7,11.62,9.81,11.25,16.46-.29,5.13-.79,10.24-1.2,15.36-.32.69-.12.95.62.73Zm-70.34-311.64c-6.2-.26-13.75,4.2-14.67,9.3-2.56,14.15-2.81,28.53-4.35,43.14,7.11-2.64,13.87-3.62,20.84-3.13,3.27.37,6.54.73,9.81,1.11,1.5.18,2.64-.13,2.75-1.91.74-11.51,3.24-22.99,2.26-34.49-.92-10.75-9.14-14.36-16.64-14.02Zm-55.3,86.15c2.73.46,5.4,1.01,8.17-.1,7.69-3.11,11.07-9.07,11.73-17.02,1.49-17.82,3.05-35.63,4.54-53.45.15-1.8.19-3.64.02-5.44-.9-9.52-9.01-15.34-16.79-14.2-9.24-.42-15.03,4.88-15.75,13.9-1.57,19.78-3.27,39.55-5.08,59.31-.79,8.65,4.38,15.58,13.15,16.99Zm98.7,189.94c.04.29.08.58.13.86.17-.17.34-.34.52-.51-.24-.08-.48-.16-.71-.24.73-11.59.53-23.19,4.59-34.46,4.47-12.4,13.79-20.6,22.9-29.07,8.32-7.73,16.69-15.38,24.66-23.48,8.27-8.4,10.86-19.1,11.11-30.06.17-7.33-1.56-14.83-2.47-22.24-.84-6.84-1.41-13.68-1.98-20.54-.67-8.08-2.58-16.09-2.88-24.17-.33-9.01-6.08-19.08-17.46-20.39-.8-.19-1.59-.48-2.4-.55-27.11-2.34-54.23-4.67-81.34-6.95-1.46-.12-2.96.06-4.42.25-7.59.99-12.74,6.12-13.2,13.78-.28,4.66,3.03,11.53,9.5,13.92,10.61,3.91,21.89,4.61,32.87,6.68,8.01,1.52,16,3.22,24.09,4.42,3.23.48,7.72,1.03,8.38,6.44.56,4.61-2.39,6.48-5.1,8.7-3.42,2.8-7.12,5.25-10.52,8.07-7.87,6.5-15.51,13.2-22.58,20.63-7.91,8.31-22.07,28.28-26.21,37.66-2.66,6.04-5.78,11.88-8.52,17.9-1.14,2.51-5,4.19-8.27,3.93-3.24-.26-4.49-2.81-5.31-5.97-.94-3.65,1.98-5.47,2.8-8.21,2.09-6.94,5.28-13.47,8.82-19.64,3.78-6.59,8.2-12.92,12.7-19.14,3.33-4.6,6.9-9.01,10.52-13.34,3.49-4.17,8.89-6.62,11.03-12.08.11-.27.48-.44.73-.66,3.96-3.34,7.94-6.67,11.88-10.05.59-.51,1.51-1.31,1.4-1.8-.19-.93-1.18-1.3-2.25-1.49-10.6-1.85-21.14-4.08-31.78-5.6-8.84-1.26-16.25-4.73-21.92-11.61-2.25-2.73-4.07-3.65-7.35-1.14-3.4,2.61-7.4,4.67-11.78,5.09-7.57.72-14.64.87-21.68-4.28-4.43-3.24-8.2-6.36-11.21-10.85-5.67-8.44-4.47-17.66-3.7-26.9,1.67-7.29,1.68-14.76,2.33-22.16,3.22-36.65,6.54-73.29,9.32-109.97,1-13.23-5.49-18.84-16.57-19.94-7.7.65-13.24,3.52-15.37,11.94-.88,3.47-.76,6.79-1.06,10.14-3.72,41.99-7.47,83.98-10.8,126.01-2.96,37.3-7.57,74.48-8.87,111.91-.49,14.08,3.68,27.24,9.57,39.91,6.5,13.96,12.2,28.11,10.64,44.06-.41,4.25-2.79,10.09-.26,12.39,2.66,2.43,8.45,1.75,12.88,1.85,6.14.14,9.78,2.97,11.21,8.84-1.82,5.11-5.37,6.93-10.75,6.33-8.74-.97-17.54-1.42-26.28-2.38-3.33-.37-4.62.29-4.87,3.92-.96,13.74-2.16,27.46-3.51,41.17-.33,3.38.42,4.57,3.97,4.86,56.4,4.68,112.78,9.48,169.16,14.36,3.19.28,4.29-.45,4.53-3.75.96-13.41,1.97-26.82,3.49-40.17.54-4.79-1.06-5.66-5.34-6.01-33.91-2.76-67.79-5.82-101.7-8.61-5.38-.44-8.66-2.55-9.41-8.03,1.82-5.73,4.52-7.43,10.92-6.9,26.74,2.23,53.49,4.46,80.23,6.68,4.31.44,8.58,1.51,12.95.66Zm-21.52,99.53q12.43,1.73,13.47-10.44c.13-1.48.12-2.98.41-4.43.56-2.79.02-4.25-3.31-4.13-2.94.11-5.91-.43-8.87-.69-.37-.27-.72-.75-1.11-.78-43.78-3.78-87.56-7.52-131.33-11.34-2.56-.22-3.12.84-3.26,3.02-.28,4.47-.55,8.95-1.17,13.38-.45,3.23.6,4.18,3.82,4.42,15.71,1.17,31.39,2.62,47.09,3.94,28.08,2.36,56.17,4.7,84.26,7.04Z"/><path class="cls-7" d="m70.58,378.31c6.92,1.4,14.12.55,20.94,2.93,5.99,2.09,9.79,6.34,11.59,12.05,2.12,6.73.27,13.11-5.02,17.65-19.29,16.55-38.8,32.84-58.3,49.16-4.56,3.81-9.64,3.68-14.33.04-5.54-4.31-7.12-9.56-4.77-15.18,3.67-8.75,9.77-16.1,14.04-24.53,1.95-3.84.86-4.83-2.56-5.19-4.62-.49-9.26-.71-13.88-1.21-8.31-.89-14.4-5.35-17.19-13.01-2.65-7.28-.29-13.83,5.2-19.48,9.28-9.55,19.49-18.08,29.13-27.23,12.96-12.3,26.17-24.35,39.09-36.7,3.75-3.58,8.2-6.1,12.94-5.3,5.14.87,9.94,3.71,11.41,9.71,1.26,5.11-1.62,9.13-3.85,13.05-5.56,9.74-11.67,19.16-17.44,28.79-2.46,4.1-4.6,8.39-6.89,12.59-.94.57-1.75,1.14-.1,1.85Zm3.7-37.59c-3.07.24-4.05,1.73-5.22,2.79-8.2,7.42-16.38,14.87-24.46,22.42-9.02,8.42-17.88,17.01-26.92,25.39-1.54,1.43-3.21,2.72-2.4,4.88.73,1.92,2.62,2.95,4.73,2.99,9.45.17,18.59,2.7,27.97,3.42,8.98.69,11.52,5.73,6.89,13.54-4.07,6.86-8.05,13.77-12.28,21.02,2.39-.1,3.24-1.49,4.33-2.41,12.97-10.87,25.92-21.76,38.82-32.71,1.39-1.18,3.88-2.02,2.89-4.57-.88-2.27-2.98-2.72-5.28-2.89-8.6-.65-17.2-1.41-25.79-2.2-8.02-.74-10.82-6.51-6.59-13.48,1.59-2.62,3.25-5.2,4.85-7.82,6.02-9.87,12.02-19.75,18.46-30.35Z"/><path class="cls-7" d="m423.7,408.72c2.93-.17,7.35,2.21,9.42.01,1.66-1.77-1.58-5.69-2.66-8.63-4.91-13.42-10.04-26.77-15.16-40.12-3.62-9.44,1.08-18.11,11.04-18.32,5.55-.12,9.59,2.67,12.72,7.11,3.68,5.21,7.39,10.41,11.29,15.45,11.77,15.24,23.74,30.33,35.41,45.64,3.09,4.06,6.28,8.03,9.38,12.06,8.89,11.55,4.69,25.79-8.89,30.33-6.05,2.02-12.27.76-18.42.24-8.63-.73-8.59-.78-5.52,7.22,2.76,7.2,5.42,14.43,8.09,21.67,2.23,6.04-.46,12.95-6.31,16.33-5.26,3.04-11.18,1.9-15.45-3.15-15.73-18.62-31.45-37.26-47.12-55.94-5.49-6.54-6.62-13.77-2.2-21.27,3.96-6.74,10.11-9.73,17.93-9.17,1.99.14,3.97.33,6.44.55Zm14-36.01c-1.21,1.27-.67,1.77-.43,2.37,4.88,12.64,9.74,25.29,14.61,37.93,3.1,8.06-.47,13.01-8.96,12.32-8.6-.69-17.19-1.47-25.79-2.19-1.61-.13-3.58-.72-4.45,1.16-.84,1.82-.79,3.73.7,5.52,11.95,14.44,23.84,28.92,36.1,43.82,1.15-2.24.83-3.07.46-4.06-2.95-7.94-5.94-15.86-8.6-23.9-1.51-4.56,2.1-9.08,6.74-8.86,9.54.46,19.13.07,28.63,1.4,2.81.39,6.02.7,7.47-2.15,1.34-2.62-.72-4.98-2.37-7.06-4.71-5.95-9.87-11.61-14.01-17.94-4.35-6.64-9.77-12.4-14.47-18.74-4.94-6.64-9.46-13.79-15.62-19.63Zm-3.66,36.16c-.07.09-.21.21-.19.27.04.13.17.24.26.35.08-.19.17-.38.25-.58-.11-.02-.22-.03-.32-.05Z"/><path class="cls-6" d="m342.78,23.25c10.98,1.71,16.84,7.69,15.81,20.25-2.82,34.48-5.85,68.93-8.79,103.4-.17,1.98-.3,3.96-.42,5.94-.33,5.47,1.24,7.45,6.63,8.42-.57,6.58-1.14,13.15-1.71,19.73-6.65-.11-13.26-.68-19.83-1.7,3.91-45.78,7.79-91.57,11.79-137.35.48-5.46-.35-10.53-2.79-15.36-.56-1.1-.81-2.14-.68-3.32Z"/><path class="cls-7" d="m105.26,218c.41,4.45-3.6,5.87-6.27,7.98-2.77,2.18-3.04,3.79-.42,6.1,1.11.97,1.92,2.27,2.93,3.37,2.9,3.17,2.85,6.57.17,9.62-3.21,3.66-7.36,3.78-10.8.79-6.33-5.49-6.67-5.41-13.82-1.29-3.52,2.03-6.91,2.15-9.91-1.59-2.88-3.59-1.82-6.65.5-9.66,1.96-2.55,6.7-3.62,6.45-6.78-.2-2.57-3.78-4.77-5.58-7.33-2.31-3.3-1.49-6.93,1.06-9.33,2.95-2.78,6.93-2.78,10.18-.09,2.51,2.07,3.9,6.77,6.65,6.77,2.57,0,4.96-3.92,7.76-5.54,2.57-1.49,5.41-1.53,8.29.23,2.72,1.67,3.14,3.88,2.81,6.77Z"/><path class="cls-7" d="m463.48,259.98c-.46,4.8-3.14,7.07-7.8,6.59-3.43-.35-6.4-3.99-6.12-7.49.36-4.44,3-6.72,7.44-6.4,4.64.33,6.9,2.87,6.48,7.29Z"/><path class="cls-4" d="m70.58,378.31c-1.65-.71-.84-1.28.1-1.85-.03.62-.07,1.23-.1,1.85Z"/><path class="cls-5" d="m355.35,437.55c-.75.22-.94-.04-.62-.73.53-.04.76.19.62.73Z"/><path class="cls-3" d="m205,399.87c-1.43-5.87-5.07-8.7-11.21-8.84-4.43-.1-10.22.58-12.88-1.85-2.52-2.31-.15-8.14.26-12.39,1.56-15.95-4.15-30.1-10.64-44.06-5.9-12.67-10.06-25.84-9.57-39.91,1.3-37.42,5.91-74.6,8.87-111.91,3.33-42.02,7.08-84.01,10.8-126.01.3-3.35.18-6.67,1.06-10.14,2.13-8.43,7.67-11.29,15.37-11.94,4.94,7.85,4.76,16.4,3.93,25.25-2.54,27.35-4.76,54.73-7.1,82.1-.89,10.39-1.86,20.77-2.64,31.16-.58,7.75,3.97,13.34,10.73,13.56-.78,9.24-1.97,18.46,3.7,26.9,3.02,4.49,6.78,7.62,11.21,10.85,7.04,5.15,14.11,4.99,21.68,4.28,4.38-.41,8.38-2.48,11.78-5.09,3.28-2.52,5.1-1.59,7.35,1.14,5.67,6.88,13.09,10.35,21.92,11.61,10.64,1.52,21.18,3.75,31.78,5.6,1.07.19,2.06.56,2.25,1.49.1.49-.81,1.3-1.4,1.8-3.94,3.37-7.92,6.7-11.88,10.05-.25.21-.63.38-.73.66-2.14,5.45-7.54,7.9-11.03,12.08-3.62,4.34-7.19,8.74-10.52,13.34-4.5,6.22-8.92,12.55-12.7,19.14-3.53,6.17-6.73,12.7-8.82,19.64-.83,2.74-3.74,4.56-2.8,8.21.81,3.16,2.07,5.72,5.31,5.97,3.28.26,7.13-1.42,8.27-3.93,2.74-6.02,5.86-11.86,8.52-17.9,4.14-9.38,18.3-29.35,26.21-37.66,7.07-7.43,14.72-14.14,22.58-20.63,3.41-2.81,7.1-5.27,10.52-8.07,2.72-2.22,5.67-4.09,5.1-8.7-.66-5.42-5.15-5.96-8.38-6.44-8.09-1.2-16.08-2.9-24.09-4.42-10.98-2.08-22.26-2.77-32.87-6.68-6.48-2.39-9.78-9.26-9.5-13.92.46-7.66,5.61-12.78,13.2-13.78,1.46-.19,2.96-.38,4.42-.25,27.12,2.28,54.23,4.61,81.34,6.95.81.07,1.6.36,2.4.55,1.34,4.7,4.44,8.66,4.96,13.78,2.24,22.08,4.88,44.11,7.14,66.18,1.6,15.61-1.46,30-13.06,41.43-10.45,10.3-21.08,20.42-31.88,30.34-7.27,6.66-12.34,14.49-15.14,23.91-2.72,9.16-2.11,18.69-3.38,28.01-26.74-2.23-53.48-4.46-80.23-6.68-6.41-.53-9.1,1.17-10.92,6.9-6.44-.56-12.87-1.12-19.31-1.68Z"/><path class="cls-5" d="m205,399.87c6.44.56,12.87,1.12,19.31,1.68.75,5.48,4.03,7.59,9.41,8.03,33.91,2.79,67.79,5.85,101.7,8.61,4.27.35,5.88,1.22,5.34,6.01-1.52,13.35-2.53,26.76-3.49,40.17-.24,3.3-1.34,4.03-4.53,3.75-56.38-4.88-112.77-9.67-169.16-14.36-3.56-.3-4.31-1.48-3.97-4.86,1.35-13.71,2.55-27.43,3.51-41.17.25-3.62,1.54-4.28,4.87-3.92,8.74.97,17.54,1.41,26.28,2.38,5.38.6,8.93-1.22,10.75-6.33Zm109.04,41.49c.28-3.49-2.77-7.09-6.29-7.43-3.67-.35-7.29,2.8-7.63,6.63-.33,3.72,2.92,8.02,6.1,8.07,3.85.05,7.51-3.35,7.82-7.27Zm-76.43-6.16c.55-4.78-1.54-7.37-6.34-7.84-3.17-.31-7.27,3.14-7.51,6.34-.26,3.39,2.81,7.04,6.27,7.45,4.82.57,7.04-1.17,7.59-5.95Zm-43.92-10.15c-4.6-.45-7.38,1.68-7.69,5.9-.26,3.54,3.25,7.78,6.55,7.92,3.4.14,7.02-3.03,7.35-6.46.45-4.59-1.5-6.9-6.21-7.36Zm76.1,6.51c-4.68-.38-7.07,1.49-7.38,5.76-.3,4.2,1.95,6.82,6.13,7.12,4.6.34,7.52-1.95,7.77-6.11.25-4.03-2.05-6.42-6.53-6.78Z"/><path class="cls-3" d="m342.78,23.25c-.12,1.18.13,2.22.68,3.32,2.44,4.83,3.26,9.91,2.79,15.36-4,45.78-7.88,91.57-11.79,137.35-5.95-.42-11.89-.88-17.84-1.23-1.97-.11-2.63-.99-2.29-2.84.09-.49.09-.99.13-1.49,4.01-45.76,8.09-91.51,11.97-137.28.62-7.31,7.4-13.67,16.35-13.21Z"/><path class="cls-4" d="m306.88,501.53c-28.09-2.35-56.17-4.68-84.26-7.04-15.7-1.32-31.38-2.78-47.09-3.94-3.22-.24-4.27-1.19-3.82-4.42.61-4.43.88-8.91,1.17-13.38.14-2.18.7-3.24,3.26-3.02,43.77,3.82,87.55,7.55,131.33,11.34.39.03.74.51,1.11.78-.57,6.56-1.13,13.12-1.7,19.68Z"/><path class="cls-6" d="m315.45,401.34c1.27-9.32.66-18.85,3.38-28.01,2.8-9.42,7.87-17.25,15.14-23.91,10.81-9.92,21.44-20.04,31.88-30.34,11.6-11.43,14.66-25.82,13.06-41.43-2.26-22.07-4.9-44.11-7.14-66.18-.52-5.12-3.62-9.08-4.96-13.78,11.37,1.32,17.13,11.39,17.46,20.39.3,8.08,2.21,16.09,2.88,24.17.57,6.86,1.15,13.7,1.98,20.54.91,7.42,2.63,14.92,2.47,22.24-.25,10.96-2.84,21.66-11.11,30.06-7.97,8.1-16.35,15.75-24.66,23.48-9.11,8.47-18.43,16.67-22.9,29.07-4.07,11.28-3.86,22.88-4.59,34.46,0,0,.07-.11.07-.11-4.37.85-8.65-.22-12.95-.66Z"/><path class="cls-6" d="m201.97,184.91c-6.76-.22-11.3-5.81-10.73-13.56.77-10.4,1.75-20.78,2.64-31.16,2.34-27.37,4.55-54.75,7.1-82.1.82-8.85,1.01-17.39-3.93-25.25,11.09,1.09,17.57,6.71,16.57,19.94-2.77,36.68-6.1,73.33-9.32,109.97-.65,7.4-.66,14.87-2.33,22.16Z"/><path class="cls-3" d="m229.71,212.05c-8.77-1.42-13.94-8.34-13.15-16.99,1.81-19.76,3.5-39.53,5.08-59.31.72-9.02,6.51-14.32,15.75-13.9,2.89,6.62,5.36,13.07,4.43,20.79-1.91,15.79-3.11,31.69-4.14,47.57-.53,8.2-2.31,15.65-7.96,21.84Z"/><path class="cls-6" d="m229.71,212.05c5.65-6.19,7.43-13.65,7.96-21.84,1.03-15.88,2.23-31.78,4.14-47.57.93-7.72-1.54-14.17-4.43-20.79,7.78-1.14,15.88,4.69,16.79,14.2.17,1.8.13,3.64-.02,5.44-1.49,17.82-3.05,35.63-4.54,53.45-.66,7.95-4.04,13.91-11.73,17.02-2.77,1.12-5.44.56-8.17.1Z"/><path class="cls-3" d="m286.83,175.22c-6.97-.49-13.73.49-20.84,3.13,1.54-14.61,1.79-28.99,4.35-43.14.92-5.09,8.47-9.55,14.67-9.3,4.15,6.49,5.38,13.43,4.34,21.14-1.26,9.33-1.71,18.77-2.51,28.17Z"/><path class="cls-6" d="m286.83,175.22c.8-9.39,1.26-18.83,2.51-28.17,1.04-7.71-.19-14.65-4.34-21.14,7.5-.34,15.73,3.28,16.64,14.02.98,11.49-1.52,22.98-2.26,34.49-.11,1.79-1.25,2.09-2.75,1.91-3.27-.38-6.54-.74-9.81-1.11Z"/><path class="cls-2" d="m306.88,501.53c.57-6.56,1.13-13.12,1.7-19.68,2.96.25,5.92.8,8.87.69,3.33-.13,3.87,1.34,3.31,4.13-.29,1.45-.28,2.95-.41,4.43q-1.04,12.17-13.47,10.44Z"/><path class="cls-5" d="m328.4,402s-.08.11-.07.11c.24.08.48.16.72.24-.17.17-.34.34-.52.51-.04-.29-.08-.58-.13-.86Z"/><path class="cls-1" d="m74.28,340.72c-6.44,10.6-12.45,20.48-18.46,30.35-1.6,2.62-3.26,5.2-4.85,7.82-4.22,6.97-1.42,12.74,6.59,13.48,8.59.8,17.18,1.56,25.79,2.2,2.3.17,4.4.62,5.28,2.89.99,2.56-1.5,3.39-2.89,4.57-12.9,10.95-25.85,21.84-38.82,32.71-1.09.91-1.94,2.3-4.33,2.41,4.23-7.24,8.21-14.15,12.28-21.02,4.63-7.81,2.09-12.85-6.89-13.54-9.37-.72-18.52-3.25-27.97-3.42-2.11-.04-4-1.07-4.73-2.99-.82-2.15.85-3.44,2.4-4.88,9.05-8.39,17.9-16.97,26.92-25.39,8.08-7.55,16.26-14.99,24.46-22.42,1.17-1.06,2.15-2.55,5.22-2.79Z"/><path class="cls-1" d="m437.7,372.71c6.16,5.84,10.68,12.99,15.62,19.63,4.71,6.33,10.12,12.09,14.47,18.74,4.14,6.33,9.3,11.98,14.01,17.94,1.65,2.09,3.71,4.44,2.37,7.06-1.46,2.85-4.66,2.55-7.47,2.15-9.5-1.33-19.09-.94-28.63-1.4-4.64-.22-8.24,4.3-6.74,8.86,2.65,8.04,5.65,15.96,8.6,23.9.37.99.69,1.82-.46,4.06-12.26-14.9-24.15-29.39-36.1-43.82-1.49-1.79-1.54-3.7-.7-5.52.87-1.88,2.83-1.29,4.45-1.16,8.6.72,17.19,1.49,25.79,2.19,8.49.69,12.06-4.26,8.96-12.32-4.87-12.64-9.72-25.29-14.61-37.93-.23-.6-.77-1.1.43-2.37Z"/><path class="cls-4" d="m434.04,408.87c.11.02.22.03.32.05-.08.19-.17.38-.25.58-.09-.12-.22-.22-.26-.35-.02-.06.12-.18.19-.27Z"/><path class="cls-7" d="m314.04,441.36c-.31,3.92-3.98,7.32-7.82,7.27-3.17-.04-6.43-4.35-6.1-8.07.34-3.83,3.96-6.98,7.63-6.63,3.52.33,6.57,3.93,6.29,7.43Z"/><path class="cls-7" d="m237.61,435.2c-.55,4.78-2.77,6.52-7.59,5.95-3.46-.41-6.53-4.06-6.27-7.45.25-3.2,4.34-6.65,7.51-6.34,4.8.47,6.89,3.06,6.34,7.84Z"/><path class="cls-7" d="m193.69,425.05c4.71.46,6.66,2.77,6.21,7.36-.34,3.43-3.95,6.6-7.35,6.46-3.3-.14-6.81-4.38-6.55-7.92.31-4.21,3.09-6.34,7.69-5.9Z"/><path class="cls-7" d="m269.79,431.56c4.47.36,6.77,2.75,6.53,6.78-.25,4.16-3.17,6.45-7.77,6.11-4.18-.31-6.44-2.93-6.13-7.12.31-4.28,2.7-6.14,7.38-5.76Z"/><g><path class="cls-1" d="m424.25,141.88c-2.15,0-4.28-.91-5.77-2.68l-9.72-11.54c-1.29-1.53-1.92-3.51-1.75-5.5.17-1.99,1.13-3.84,2.66-5.13l52.22-43.99c1.42-1.19,3.14-1.77,4.86-1.77,2.15,0,4.28.91,5.77,2.68l16.08,19.09,13.36-11.25c-3.58-.85-6.09-4.21-5.77-7.98l1.29-15.03c.17-1.99,1.13-3.84,2.66-5.13,1.37-1.15,3.09-1.77,4.86-1.77.21,0,.43,0,.64.03l42.62,3.65c1.99.17,3.84,1.13,5.13,2.66,1.29,1.53,1.92,3.51,1.75,5.5l-3.62,42.36c-.17,1.99-1.13,3.84-2.66,5.13-1.37,1.15-3.09,1.77-4.86,1.77-.21,0-.43,0-.64-.03l-15.04-1.29c-1.99-.17-3.84-1.13-5.13-2.66-1-1.18-1.6-2.64-1.74-4.15l-30.71,25.87c-1.42,1.19-3.14,1.77-4.86,1.77-2.15,0-4.28-.91-5.77-2.68l-16.08-19.09-34.91,29.41c-1.42,1.19-3.14,1.77-4.86,1.77Z"/><path class="cls-7" d="m504.99,59.4l42.62,3.65-3.62,42.36-15.04-1.29,1.43-16.69-44.51,37.5-20.94-24.86-40.68,34.27-9.72-11.54,52.22-43.99,20.94,24.86,32.97-27.77-16.95-1.45,1.29-15.04m0-15.09c-3.54,0-6.99,1.25-9.72,3.55-3.06,2.58-4.97,6.27-5.31,10.25l-1.29,15.04c-.25,2.96.37,5.9,1.76,8.47l-.93.78-11.22-13.32c-2.98-3.54-7.25-5.37-11.55-5.37-3.43,0-6.88,1.17-9.71,3.55l-52.22,43.99c-6.37,5.37-7.19,14.89-1.82,21.26l9.72,11.54c2.98,3.54,7.25,5.37,11.55,5.37,3.43,0,6.88-1.17,9.71-3.55l29.14-24.55,11.22,13.32c2.98,3.54,7.25,5.37,11.55,5.37,3.43,0,6.88-1.17,9.71-3.55l24.18-20.37c2.21,1.7,4.91,2.8,7.9,3.06l15.04,1.29c.43.04.86.06,1.29.06,3.54,0,6.99-1.25,9.72-3.55,3.06-2.58,4.97-6.27,5.31-10.25l3.62-42.36c.34-3.99-.92-7.95-3.49-11.01-2.58-3.06-6.27-4.97-10.25-5.31l-42.62-3.64c-.43-.04-.86-.06-1.29-.06h0Z"/></g><g><path class="cls-7" d="m42.04,39.84l10.41,16.1c-.66.19-1.32.36-1.97.51-1.67.38-3.25.57-4.72.57-.04,0-.07,0-.11,0-1.51,0-2.87-.3-4.1-.88-1.22-.58-2.23-1.53-3.02-2.85-1-1.55-1.45-3.23-1.33-5.04.11-1.81.81-3.61,2.07-5.42.72-1.03,1.65-2.02,2.77-2.99m0-15.09c-3.59,0-7.1,1.28-9.85,3.66-2.07,1.78-3.83,3.71-5.26,5.73-2.89,4.11-4.5,8.53-4.79,13.15-.31,4.93.92,9.75,3.57,13.96,2.31,3.78,5.56,6.73,9.4,8.54,3.22,1.52,6.72,2.3,10.43,2.32h.21c2.6,0,5.32-.32,8.09-.95.83-.19,1.7-.41,2.72-.7,4.61-1.3,8.32-4.72,10.01-9.2,1.69-4.48,1.15-9.5-1.45-13.52l-10.41-16.1c-2.37-3.66-6.21-6.12-10.53-6.74-.71-.1-1.43-.15-2.15-.15h0Z"/><path class="cls-7" d="m76.08,65.81c1.11,0,2.13.13,3.04.4,1.67.49,3.03,1.55,4.07,3.17,1.13,1.74,1.59,3.62,1.4,5.65-.19,2.02-1,4.03-2.43,6.03-.84,1.17-1.88,2.28-3.12,3.34l-11.03-17.06c1.87-.56,3.57-.98,5.12-1.25,1.05-.18,2.03-.27,2.94-.27m0-15.09c-1.77,0-3.62.17-5.51.49-2.16.37-4.42.92-6.91,1.67-4.54,1.37-8.17,4.79-9.81,9.24-1.63,4.45-1.08,9.41,1.49,13.4l11.03,17.06c2.36,3.66,6.19,6.11,10.5,6.74.72.11,1.45.16,2.17.16,3.57,0,7.06-1.27,9.81-3.63,2.16-1.85,4.03-3.87,5.57-6,3-4.18,4.75-8.69,5.2-13.4.51-5.4-.79-10.68-3.75-15.26-3.02-4.67-7.34-7.94-12.49-9.45-2.29-.67-4.75-1.02-7.3-1.02h0Z"/><g><path class="cls-1" d="m86.85,116.69c-.53,0-1.06-.06-1.58-.17-1.96-.42-3.67-1.6-4.75-3.28l-1.58-2.45c-3.35,1.42-6.67,2.43-9.93,3.03-2.29.42-4.57.63-6.78.63-4.43,0-8.71-.85-12.72-2.53-6.04-2.52-11.28-7.01-15.58-13.34-1.14-1.68-1.56-3.75-1.15-5.74.4-1.99,1.59-3.73,3.3-4.84l10.26-6.64c-1.63.19-3.23.28-4.79.28-1.94,0-3.85-.15-5.69-.43-7.66-1.2-14.12-5.6-18.68-12.73-3.69-5.64-5.42-11.79-5.08-18.2.32-6.13,2.35-12.08,6.03-17.7,1.62-2.47,3.53-4.81,5.73-7.01l-1.73-2.68c-2.26-3.5-1.26-8.17,2.24-10.43l5.79-3.74c1.23-.8,2.65-1.21,4.1-1.21.53,0,1.06.06,1.58.17,1.96.42,3.67,1.6,4.75,3.28l1.67,2.58c3.1-1.22,6.2-2.06,9.27-2.51,1.88-.27,3.75-.41,5.55-.41,4.49,0,8.78.85,12.77,2.52,5.71,2.4,10.48,6.4,14.15,11.88,1.13,1.68,1.53,3.74,1.12,5.72s-1.59,3.72-3.29,4.81l-10.09,6.52c.29-.05.58-.1.87-.14,2.17-.34,4.32-.51,6.39-.51,1.89,0,3.76.14,5.57.42,4.06.63,7.87,2.06,11.31,4.25,3.47,2.2,6.52,5.29,9.08,9.17.02.03.04.06.06.09,3.65,5.72,5.41,11.75,5.24,17.94-.17,6.1-2.2,12.07-6.03,17.73-1.84,2.72-4.12,5.33-6.81,7.82l1.57,2.43c2.26,3.5,1.26,8.17-2.24,10.43l-5.79,3.74c-1.23.8-2.65,1.21-4.1,1.21Z"/><path class="cls-7" d="m34.24,15.09l5.26,8.13c4.42-2.49,8.79-4.07,13.1-4.69,1.52-.22,3.01-.33,4.46-.33,3.5,0,6.78.65,9.85,1.93,4.35,1.83,7.95,4.87,10.8,9.12l-14.64,9.47c-2.12-2.66-4.76-4.09-7.92-4.28-.23-.01-.47-.02-.71-.02-2.1,0-4.31.56-6.64,1.67l11.36,17.57,4.07-1.44c3.61-1.33,7.11-2.26,10.5-2.79,1.79-.28,3.54-.42,5.23-.42,1.51,0,2.98.11,4.42.33,3.04.47,5.85,1.52,8.42,3.16,2.58,1.64,4.85,3.95,6.82,6.95,2.84,4.44,4.19,8.99,4.05,13.66-.13,4.67-1.71,9.24-4.74,13.72-2.52,3.73-6.05,7.22-10.56,10.48l5.23,8.09-5.79,3.74-5.23-8.1c-4.78,2.73-9.44,4.53-13.97,5.36-1.85.34-3.66.51-5.42.51-3.44,0-6.71-.65-9.81-1.94-4.68-1.96-8.77-5.5-12.24-10.62l14.78-9.56c1.73,2.32,3.73,3.88,6.01,4.69,1.37.49,2.81.74,4.3.74.98,0,1.99-.11,3.02-.32,1.66-.34,3.33-.92,5-1.74l-12.02-18.59-5.33,1.81c-5.2,1.81-10,2.72-14.4,2.72-1.56,0-3.07-.11-4.52-.34-5.57-.87-10.06-3.98-13.49-9.34-2.85-4.36-4.15-8.94-3.9-13.74.25-4.8,1.85-9.45,4.81-13.96,2.36-3.6,5.47-6.85,9.31-9.75l-5.28-8.17,5.79-3.74m11.51,41.93c1.48,0,3.05-.19,4.72-.57.65-.15,1.31-.32,1.97-.51l-10.41-16.1c-1.12.97-2.05,1.96-2.77,2.99-1.27,1.8-1.96,3.61-2.07,5.42-.11,1.81.33,3.49,1.33,5.04.79,1.32,1.8,2.27,3.02,2.85,1.22.58,2.59.87,4.1.88.04,0,.07,0,.11,0m33.3,27.38c1.24-1.06,2.28-2.17,3.12-3.34,1.43-1.99,2.24-4,2.43-6.03.19-2.02-.27-3.91-1.4-5.65-1.05-1.62-2.41-2.68-4.07-3.17-.92-.27-1.93-.4-3.04-.4-.91,0-1.9.09-2.94.27-1.55.27-3.26.69-5.12,1.25l11.03,17.06M34.24,0c-2.88,0-5.73.83-8.19,2.42l-5.79,3.74c-6.25,4.04-8.51,11.91-5.72,18.53-.98,1.23-1.9,2.49-2.74,3.79-4.42,6.75-6.86,13.97-7.25,21.44-.42,8.02,1.7,15.66,6.3,22.72,4.23,6.58,9.79,11.32,16.35,13.98-.86,1.45-1.49,3.05-1.83,4.73-.81,3.98.02,8.12,2.3,11.48,5.14,7.56,11.5,12.97,18.91,16.07,4.94,2.06,10.19,3.11,15.63,3.11,2.67,0,5.41-.25,8.15-.76,1.93-.35,3.87-.83,5.82-1.43,2.04,2.04,4.64,3.47,7.5,4.08,1.05.23,2.11.34,3.17.34,2.88,0,5.73-.83,8.19-2.42l5.79-3.74c6.08-3.93,8.39-11.5,5.93-18,1.36-1.56,2.6-3.16,3.7-4.79,4.65-6.87,7.11-14.19,7.32-21.75.22-7.72-1.94-15.2-6.42-22.21-.04-.06-.07-.11-.11-.17-3.14-4.78-6.95-8.61-11.33-11.39-2.7-1.71-5.57-3.06-8.58-4.02.52-1.09.91-2.25,1.16-3.45.82-3.96,0-8.09-2.24-11.45-4.51-6.73-10.4-11.66-17.5-14.64-4.92-2.06-10.2-3.11-15.69-3.11-2.17,0-4.41.17-6.64.49-1.75.25-3.5.62-5.26,1.08-2.08-2.18-4.77-3.7-7.76-4.34-1.05-.23-2.11-.34-3.17-.34h0Z"/></g></g></g></g></svg>