<?xml version="1.0" encoding="utf-8"?>
<!-- Generator: Adobe Illustrator 27.2.0, SVG Export Plug-In . SVG Version: 6.00 Build 0)  -->
<svg version="1.1" id="Layer_2_00000052106218207001811040000007291402366741390482_"
	 xmlns="http://www.w3.org/2000/svg" xmlns:xlink="http://www.w3.org/1999/xlink" x="0px" y="0px" viewBox="0 0 117 117.2"
	 style="enable-background:new 0 0 117 117.2;" xml:space="preserve">
<style type="text/css">
	.st0{fill:#1A2959;}
	.st1{fill:#06FFD5;}
	.st2{fill:#05BFA0;}
	.st3{fill:#FFFFFF;}
	.st4{fill:#AADDDD;}
	.st5{fill:#80A6A6;}
	.st6{fill:#EDF2F3;}
	.st7{fill:#F7F8F2;}
	.st8{fill:#B6E5F5;}
	.st9{fill:#6ACAEB;}
	.st10{fill:#D84854;}
	.st11{fill:#FAEBAC;}
</style>
<g id="Layer_1-2">
	<g>
		<path class="st0" d="M117,31.4c-0.5,0.7-0.4,1.6-0.6,2.4C112.6,51.1,94.9,60.6,78.4,54c-0.2-0.1-0.4-0.1-0.6-0.2
			c-0.7-0.3-1.4-0.7-2-1c-7.3-4.1-12.1-10.3-14-18.5c-0.1-0.5-0.2-1-0.8-1.1c-1.2-0.2-2.3-0.5-3.5-0.5c-2.6-0.2-5.1,0-7.5,0.9
			c-0.2,0-0.4,0-0.5,0.2c-0.1,0-0.1,0-0.2,0c-0.1,0-0.2,0-0.3,0C40,37.2,34.5,46.7,36.2,56c1.4,7.6,5.8,12.8,13,15.6h0
			c0.2,0.1,0.3,0.1,0.5,0.2c3,1.2,6.2,1.2,9.3,0.7c7.4-1.3,12.6-5.5,15.5-12.5c0.4-1.1,1-1.8,2.4-1.6c1.3,0.8,1.4,1.3,0.9,2.8
			c-1.7,4.4-4.5,8-8.3,10.8c-0.3,0.2-0.6,0.4-1.2,0.8c2.3,0,4.4,0,6.4,0c2.9,0,4.5,1.6,4.5,4.5c0,2.1,0.2,4.1-0.1,6.2
			c-0.2,1.8-0.2,3.6,0,5.4c0.2,2.1,0.2,4.2,0,6.3c-0.2,1.9-0.2,3.6,0,5.5c0.2,1.1,0.1,2.3,0,3.4c0,0.6,0.2,0.8,0.8,0.8
			c1.3,0,2.6,0,3.9,0c3.2,0.1,5.8,2.6,6,5.8c0.2,3.2-1.9,6-5,6.6c-0.1,0-0.1,0.1-0.2,0.2H2.1c-1.6-0.8-2.1-2-2.1-3.8
			c0.1-7.6,0-15.1,0-22.7c0-2.4,1.1-3.5,3.5-3.5c6.9,0,13.9,0,20.8,0c2.5,0,4,1.2,4.4,3.7c0.1,0.6,0.3,0.7,0.8,0.7
			c2.9,0.1,2.8,0.1,3-2.8c0.1-2,0.2-3.8,0-5.8c-0.2-2-0.1-4.1,0-6.2c0-2.6,1.7-4.3,4.3-4.3c2.1,0,4.2,0,6.6,0
			c-1-0.8-1.8-1.4-2.6-2.1c-7.3-6.7-10-14.9-7.2-24.4c2.7-9.4,9.3-14.9,19-16.6c2.5-0.5,5.1-0.4,7.6,0.1c1,0.2,0.9-0.2,0.9-0.9
			c-0.2-7.2,2.1-13.6,6.8-19c4.6-5.4,10.5-8.5,17.5-9.5c0.2,0,0.5,0.1,0.6-0.2h5.9c0,0.2,0.2,0.2,0.3,0.2c5.4,0.6,10.2,2.7,14.4,6.1
			c1.3,1.1,1.4,1.5,0.7,3c-1.1,0.7-1.9,0.5-2.9-0.3c-1.9-1.7-4.2-2.9-6.6-3.8C94.3,3.8,90.5,3,86.6,3.6C80.9,4,76,6.4,71.9,10.4
			c-10.3,9.9-10,26.6,0.8,36.1c4.1,3.6,8.9,5.8,14.4,6.1c8,0.5,14.8-2.1,20.2-8.1c7.5-8.5,8.4-19.9,2.5-29.5c-0.6-1-0.8-1.9,0-2.9
			c1.5-0.5,2-0.4,2.8,0.9c1.8,2.8,3,5.8,3.8,9.1c0.2,1,0.2,2,0.7,2.9V31.4L117,31.4z M70.6,101.2c0,0.3,0,0.7,0,1
			c0.1,0.8-0.8,1.8-0.2,2.2c0.5,0.4,1.6,0.1,2.4,0.1c2.2,0,3.2-1.1,3.1-3.4c-0.1-0.7,0.6-1.7-0.7-1.8c-1.7-0.1-3.4,0-5.2,0
			C70.2,100,70.4,100.6,70.6,101.2z M7.6,90.8c-1.1,0-2.3,0-3.4-0.1c-0.5,0-0.7,0.2-0.7,0.7c0,7.2,0,14.4,0,21.6
			c0,0.5,0.1,0.8,0.7,0.7c1.1,0,2.3,0,3.4,0c1.7,0,3.3,0,5,0.1c0.6,0,0.7-0.2,0.7-0.7c0-7.2,0-14.4,0-21.6c0-0.5-0.1-0.8-0.7-0.8
			C10.9,90.8,9.3,90.8,7.6,90.8L7.6,90.8z M75.9,89.5c0.1-1.2-0.4-1.8-1.6-1.8c-12.2,0-24.4,0-36.7,0c-0.3,0-0.5,0-0.8,0
			c-0.6,0-0.9,0.3-0.9,0.9c-0.2,3.2,0,3.4,3.2,3.1c4.6-0.2,8.8,1.5,12.9,3.2c1.5,0.6,3,1,4.6,1.1c6.1,0.1,12.2,0,18.3,0.1
			c0.7,0,1-0.2,1-0.9C75.9,93.2,75.9,91.3,75.9,89.5L75.9,89.5z M39.1,84.2c6.8,0,13.6,0,20.4,0c5,0,10.1,0,15.2,0
			c1,0,1.3-0.3,1.3-1.3c-0.1-1.6-0.1-3.3-0.1-4.9c0-0.2,0.1-0.4,0.1-0.6c0-1.4,0-1.5-1.4-1.5c-0.5,0-1.1,0-1.6,0
			c-11.9,0-23.7,0-35.6,0c-1.1,0-1.5,0.3-1.4,1.4c0.1,1.2,0,2.5,0,3.8C36,84.7,35.1,84.3,39.1,84.2L39.1,84.2z M86.5,110.3
			c-0.5-1.7-1.3-2.3-3.2-2.3c-9.3,0-18.7,0-28,0c-1.8,0-2.5-0.6-2.5-1.8c0-1.2,0.8-1.7,2.5-1.7c2.4,0,4.7,0,7.1,0c0.8,0,1.5,0,2.3,0
			c1.5-0.1,2.6-1.3,2.5-2.8c-0.1-1.4-1.2-2.4-2.7-2.4c-1.3,0-2.6-0.1-3.9,0C56.2,99.7,52,98.8,48,97c-2-0.9-4-1.7-6.2-1.8
			c-4.1-0.1-8.2,0-12.3-0.1c-0.5,0-0.7,0.1-0.7,0.7c0,5.1,0,10.1,0.1,15.2c0,0.4,0,0.8,0,1.2c0,1,0.5,1.5,1.5,1.5
			c17.5,0,35,0,52.4,0c0.4,0,0.8,0,1.1,0C85.7,113.6,86.8,112.2,86.5,110.3L86.5,110.3z M25.3,102.3c0-3.5,0-6.9,0-10.4
			c0-0.8-0.3-1.2-1.1-1.2c-2.2,0-4.5,0-6.7,0c-0.7,0-0.8,0.2-0.8,0.9c0,7.1,0,14.2,0,21.4c0,0.7,0.2,0.9,0.9,0.9
			c2.1,0,4.3-0.1,6.4,0c1,0,1.4-0.3,1.4-1.4C25.3,109,25.3,105.7,25.3,102.3L25.3,102.3z"/>
		<path class="st1" d="M49.8,33.7c2.4-0.9,5-1.1,7.5-0.9c0.2,2.8,1.1,5.4,2.1,7.9c2.8,6.3,7.1,11.4,13,14.9c1.4,0.8,2.8,1.7,4.5,2.1
			c0,0.2-0.1,0.4-0.1,0.5c-1.3-0.2-1.9,0.5-2.4,1.6c-2.9,7-8,11.3-15.5,12.5c-3.1,0.5-6.3,0.5-9.3-0.7c-0.1-0.3-0.3-0.3-0.5-0.2h0
			c-0.1-0.6-0.7-0.8-1.1-1.1c-2.9-2-5.2-4.6-6.8-7.7c-1.9-3.7-2.8-7.6-2.4-11.9c0.3-3,1-5.8,2.4-8.4c1.7-3.2,4.1-5.9,7.2-7.9
			c0.3-0.2,0.5-0.3,0.5-0.7c0-0.1,0.1-0.1,0.2,0C49.5,33.9,49.7,33.9,49.8,33.7L49.8,33.7z M62.2,47.9c-0.2-1.9-0.9-3.8-2.7-4.7
			c-1.6-0.8-2.1-1.8-1.9-3.5c0.1-1-0.7-1.7-1.6-1.7c-1,0-1.7,0.6-1.8,1.7c0,0.5-0.1,0.9,0,1.4c0.1,0.8-0.2,1.2-1,1.6
			c-2.4,1.1-3.7,3.5-3.5,6c0.2,2.6,1.9,4.7,4.3,5.5c0.7,0.2,1.4,0.2,2.1,0.3c1.4,0.2,2.5,1.3,2.5,2.7c0,1.4-1.1,2.7-2.5,2.8
			c-1.4,0.2-2.7-0.8-3-2.3c0-0.2-0.1-0.5-0.1-0.7c-0.2-1-0.9-1.6-1.8-1.5c-1,0.1-1.6,0.8-1.6,1.9c0,1.8,0.7,3.5,2.2,4.5
			c1.6,1,2.7,2,2.4,4.1c-0.1,0.9,0.8,1.5,1.7,1.4c0.9,0,1.5-0.6,1.6-1.6c0-0.5,0.1-0.9,0-1.4c-0.1-0.8,0.2-1.3,1-1.7
			c2.5-1.2,3.9-3.9,3.4-6.6c-0.6-3-2.8-4.9-5.7-5.1c-0.4,0-0.8-0.1-1.1-0.2c-1.3-0.4-2.1-1.5-2-2.8c0.1-1.3,1-2.3,2.3-2.5
			c1.7-0.3,3,0.8,3.3,2.7c0.2,1.2,0.9,1.8,1.8,1.7C61.5,49.8,62.2,49.1,62.2,47.9L62.2,47.9z"/>
		<path class="st2" d="M77,57.7c-1.7-0.4-3.1-1.3-4.5-2.1c-5.9-3.6-10.3-8.6-13-14.9c-1.1-2.5-1.9-5.1-2.1-7.9
			c1.2-0.1,2.3,0.3,3.5,0.5c0.7,0.1,0.7,0.6,0.8,1.1c2,8.2,6.7,14.3,14,18.5c0.7,0.4,1.3,0.7,2,1C77.4,55.1,77.5,56.5,77,57.7
			L77,57.7z"/>
		<path class="st3" d="M28.8,111c0-5.1,0-10.1-0.1-15.2c0-0.6,0.2-0.7,0.7-0.7c4.1,0,8.2,0,12.3,0.1c2.2,0,4.2,0.9,6.2,1.8
			c4,1.8,8.1,2.7,12.5,2.4c1.3-0.1,2.6,0,3.9,0c1.5,0,2.6,1.1,2.7,2.4c0.1,1.4-1,2.6-2.5,2.8c-0.8,0.1-1.5,0-2.3,0
			c-2.4,0-4.7,0-7.1,0c-1.7,0-2.5,0.5-2.5,1.7c0,1.2,0.8,1.8,2.5,1.8c9.3,0,18.7,0,28,0c1.9,0,2.7,0.6,3.2,2.3
			c-1,0.6-2.1,0.7-3.3,0.7C65.1,111,47,111,28.8,111L28.8,111z"/>
		<path class="st4" d="M107.4,9.3c0.9,0.8,1.8,1.7,2.4,2.7c-0.8,1-0.6,1.9,0,2.9c5.9,9.7,5,21.1-2.5,29.5c-5.3,6-12.2,8.7-20.2,8.1
			c-3.8-1.7-7.1-3.9-9.9-7c-0.5-0.6-1.1-1.1-1.3-1.9c0.5,0,0.7,0.4,1.1,0.6c3.4,2.5,7.3,3.9,11.6,4c11.7,0.3,21-9.4,20.5-21.2
			C108.6,14.7,96.7,5.6,84.7,8.4c-3.4,0.8-6.3,2.4-9,4.5c-0.1-0.4,0.2-0.6,0.3-0.8c1.4-2,3.1-3.6,5-5c1.7-1.4,3.8-2.2,5.6-3.4
			c3.9-0.6,7.7,0.1,11.3,1.5c2.4,0.9,4.6,2.2,6.6,3.8C105.4,9.8,106.3,10,107.4,9.3L107.4,9.3z"/>
		<path class="st5" d="M75.9,43.6c0.1,0.8,0.7,1.4,1.3,1.9c2.8,3.1,6.1,5.4,9.9,7c-5.5-0.4-10.3-2.5-14.4-6.1
			C61.9,37,61.6,20.3,71.9,10.4c4.1-3.9,9-6.3,14.7-6.7c-1.8,1.2-3.9,2-5.6,3.4c-1.9,1.5-3.6,3.1-5,5c-0.2,0.2-0.4,0.5-0.3,0.8v0
			c-0.1,0.1-0.2,0.2-0.2,0.3c-0.2,0.2-0.4,0.4-0.6,0.7c-5.5,5.8-7.2,12.6-5.1,20.3c1,3.6,3.2,6.6,5.9,9.2c-0.2,0.1-0.2,0.2,0.1,0.2
			h-0.1C75.7,43.6,75.8,43.6,75.9,43.6L75.9,43.6L75.9,43.6z"/>
		<path class="st1" d="M75.9,78.1c0,1.6,0,3.3,0.1,4.9c0.1,1-0.3,1.3-1.3,1.3c-5.1-0.1-10.1,0-15.2,0c-6.8,0-13.6,0-20.4,0
			c0-1.7,0.1-3.3,0-5c-0.1-1.1,0.3-1.4,1.4-1.4c11.2,0,22.5,0,33.7,0C74.8,77.8,75.3,77.9,75.9,78.1z"/>
		<path class="st6" d="M25.3,102.3c0,3.4,0,6.8,0,10.2c0,1.1-0.3,1.4-1.4,1.4c-2.1-0.1-4.3-0.1-6.4,0c-0.7,0-0.9-0.1-0.9-0.9
			c0-7.1,0-14.2,0-21.4c0-0.6,0.1-0.9,0.8-0.9c2.2,0,4.5,0,6.7,0c0.9,0,1.1,0.3,1.1,1.2C25.3,95.3,25.3,98.8,25.3,102.3L25.3,102.3z
			"/>
		<path class="st1" d="M75.9,89.5c0,1.8,0,3.7,0.1,5.5c0,0.7-0.3,0.9-1,0.9c-6.1,0-12.2,0-18.3-0.1c-1.6,0-3.2-0.4-4.6-1.1
			c-4.2-1.7-8.3-3.4-12.9-3.2c0-1.4,0.7-2.1,2.1-2.1C52.8,89.5,64.3,89.5,75.9,89.5L75.9,89.5z"/>
		<path class="st7" d="M28.8,111c18.1,0,36.3,0,54.4,0c1.2,0,2.3-0.2,3.3-0.7c0.3,1.9-0.8,3.3-2.7,3.5c-0.4,0-0.8,0-1.1,0
			c-17.5,0-35,0-52.5,0c-1,0-1.5-0.5-1.5-1.5C28.8,111.8,28.8,111.4,28.8,111z"/>
		<path class="st8" d="M7.6,90.8c1.7,0,3.3,0,5-0.1c0.6,0,0.7,0.2,0.7,0.8c0,7.2,0,14.4,0,21.6c0,0.5-0.1,0.7-0.7,0.7
			c-1.7,0-3.3,0-5-0.1C7.6,106.1,7.6,98.4,7.6,90.8L7.6,90.8z"/>
		<path class="st2" d="M49.2,33.9c0,0.3-0.2,0.5-0.5,0.7c-3.1,2-5.5,4.7-7.2,7.9c-1.3,2.6-2.1,5.4-2.4,8.4
			c-0.4,4.2,0.5,8.2,2.4,11.9c1.6,3.1,3.8,5.7,6.8,7.7c0.4,0.3,1,0.5,1.1,1.1c-7.3-2.7-11.6-8-13-15.6c-1.7-9.2,3.8-18.8,12.6-22
			C48.9,33.9,49,33.9,49.2,33.9L49.2,33.9z"/>
		<path class="st9" d="M7.6,90.8c0,7.7,0,15.3,0,23c-1.1,0-2.3,0-3.4,0c-0.6,0-0.7-0.2-0.7-0.7c0-7.2,0-14.4,0-21.6
			c0-0.5,0.2-0.8,0.7-0.7C5.3,90.7,6.5,90.7,7.6,90.8L7.6,90.8z"/>
		<path class="st2" d="M75.9,78.1c-0.6-0.2-1.1-0.2-1.7-0.2c-11.2,0-22.5,0-33.7,0c-1.1,0-1.5,0.3-1.4,1.4c0.1,1.7,0,3.3,0,5
			c-4,0.1-3.1,0.4-3.2-3c0-1.3,0.1-2.5,0-3.8c-0.1-1.1,0.3-1.4,1.4-1.4c11.9,0,23.7,0,35.6,0c0.5,0,1.1,0,1.6,0c1.4,0,1.5,0,1.4,1.5
			C75.9,77.7,75.9,77.9,75.9,78.1L75.9,78.1z"/>
		<path class="st2" d="M75.9,89.5c-11.6,0-23.1,0-34.7,0c-1.4,0-2.1,0.7-2.1,2.1c-3.2,0.4-3.5,0.1-3.2-3.1c0-0.6,0.3-0.9,0.9-0.9
			c0.3,0,0.5,0,0.8,0c12.2,0,24.4,0,36.7,0C75.4,87.7,76,88.3,75.9,89.5L75.9,89.5z"/>
		<path class="st1" d="M75.9,101.2c0.2,2.3-0.9,3.4-3.1,3.4c-0.8,0-1.9,0.3-2.4-0.1c-0.6-0.5,0.3-1.4,0.2-2.2c0-0.3,0-0.7,0-1
			C72.3,101.2,74.1,101.2,75.9,101.2L75.9,101.2z"/>
		<path class="st2" d="M75.9,101.2c-1.8,0-3.6,0-5.3,0c-0.2-0.6-0.3-1.2-0.5-1.8c1.8,0,3.5-0.1,5.2,0
			C76.4,99.4,75.8,100.5,75.9,101.2L75.9,101.2z"/>
		<path class="st2" d="M49.8,33.7c-0.1,0.2-0.3,0.2-0.5,0.2C49.5,33.7,49.6,33.6,49.8,33.7z"/>
		<path class="st2" d="M49.3,71.6c0.2-0.1,0.4-0.1,0.5,0.2C49.6,71.7,49.5,71.6,49.3,71.6z"/>
		<path class="st0" d="M62.1,47.9c0,1.2-0.6,1.9-1.6,2c-1,0.1-1.7-0.6-1.8-1.7c-0.3-1.9-1.6-3-3.3-2.7c-1.3,0.2-2.2,1.2-2.3,2.5
			c-0.1,1.3,0.7,2.5,2,2.8c0.4,0.1,0.8,0.1,1.1,0.2c3,0.2,5.2,2.2,5.7,5.1c0.5,2.7-0.9,5.4-3.4,6.6c-0.8,0.4-1.1,0.9-1,1.7
			c0,0.4,0,0.9,0,1.4c-0.1,1-0.7,1.6-1.6,1.6c-1,0.1-1.8-0.6-1.7-1.4c0.3-2.1-0.7-3.1-2.4-4.1c-1.5-0.9-2.1-2.6-2.2-4.5
			c0-1.1,0.6-1.8,1.6-1.9c0.9-0.1,1.6,0.5,1.8,1.5c0,0.2,0.1,0.5,0.1,0.7c0.3,1.4,1.6,2.4,3,2.3s2.5-1.4,2.5-2.8
			c0-1.4-1.1-2.5-2.5-2.7c-0.7-0.1-1.5-0.1-2.1-0.3c-2.5-0.7-4.2-2.9-4.3-5.5c-0.2-2.6,1.1-5,3.5-6c0.8-0.4,1.1-0.8,1-1.6
			c0-0.5,0-0.9,0-1.4c0.1-1.1,0.8-1.7,1.8-1.7c0.9,0,1.7,0.7,1.6,1.7c-0.2,1.7,0.3,2.7,1.9,3.5C61.3,44.1,62,46,62.1,47.9L62.1,47.9
			z"/>
		<path class="st0" d="M75.7,43.2c-2.7-2.6-4.9-5.5-5.9-9.2c-2.2-7.7-0.5-14.5,5.1-20.3c0.2-0.2,0.4-0.4,0.6-0.7
			c0.1-0.1,0.2-0.2,0.2-0.3v0c2.7-2.1,5.6-3.7,9-4.5c12-2.7,23.9,6.4,24.4,18.7c0.5,11.8-8.8,21.5-20.5,21.2
			c-4.3-0.1-8.1-1.5-11.6-4c-0.3-0.2-0.6-0.6-1.1-0.6l0,0.1c0.1-0.2,0-0.3-0.2-0.2h0.1c0,0,0-0.1,0-0.1
			C75.7,43.3,75.7,43.3,75.7,43.2L75.7,43.2z M83.8,12.2L83.8,12.2c-8.5,2.5-13.6,12.2-10.7,20.9c1.8,5.5,5.4,9.2,11,10.9
			c0.1,0,0.2,0.1,0.3,0.2c6.4,1.9,13.3-0.3,17.6-5.6c4.2-5.3,4.9-12.6,1.6-18.5c-3.8-6.9-12.3-10.4-19.3-7.9
			C84.2,12.1,84,12.2,83.8,12.2L83.8,12.2z"/>
		<path class="st10" d="M75.7,43.2c0,0,0.1,0.1,0.1,0.1c0,0,0,0,0,0.1C75.5,43.4,75.5,43.4,75.7,43.2z"/>
		<path class="st10" d="M75.7,43.5c0.2-0.1,0.3,0,0.2,0.2C75.8,43.6,75.7,43.6,75.7,43.5z"/>
		<path class="st10" d="M75.7,12.8c-0.1,0.1-0.2,0.2-0.2,0.3C75.5,13,75.6,12.9,75.7,12.8z"/>
		<path class="st3" d="M84.3,12.1c6.9-2.5,15.4,1,19.3,7.9c3.3,5.9,2.6,13.3-1.6,18.5c-4.3,5.3-11.2,7.5-17.6,5.6
			c-0.1,0-0.2-0.1-0.3-0.2c-0.1-0.2-0.2-0.3-0.3-0.4c-1.7-1.1-3.2-2.5-4.5-4.1c-2.2-2.9-3.5-6.2-3.8-9.9c0.9,0.4,1.8,0.4,2.4-0.5
			c0.5-0.7,0.4-1.4-0.1-2.1c-0.6-0.7-1.4-0.7-2.3-0.4c0.2-3,1.1-5.7,2.7-8.2c0.1-0.2,0.2-0.5,0.6-0.3c-0.1,0.2-0.2,0.5-0.3,0.7
			c-0.2,0.9,0.5,1.9,1.4,2c1,0.1,1.8-0.5,2-1.4c0.1-0.9-0.5-1.8-1.5-2c-0.6-0.1-1.1,0.2-1.5,0.6c-0.3-0.8,0.4-1.3,0.8-1.7
			c1.2-1.2,2.3-2.5,3.8-3.5c0.2-0.1,0.5-0.3,0.3-0.6l0.1,0C84,12.4,84.2,12.3,84.3,12.1L84.3,12.1z M87.3,25.2c0,0.9,0,1.8,0,2.7
			c0,0.6,0.2,1,0.6,1.4c1,0.9,2,1.9,3,2.8c0.8,0.7,1.7,0.6,2.4,0c0.7-0.7,0.7-1.7,0-2.5c-0.6-0.6-1.2-1.2-1.8-1.7
			c-0.5-0.4-0.7-0.8-0.7-1.5c0.1-1.3,0.1-2.7,0-4c-0.1-1-0.8-1.7-1.8-1.7c-0.9,0-1.6,0.7-1.6,1.7C87.3,23.4,87.3,24.3,87.3,25.2
			L87.3,25.2z M97.9,35.2c-0.9,0-1.7,0.7-1.7,1.6c0,1,0.7,1.8,1.7,1.8c0.9,0,1.8-0.8,1.7-1.8C99.5,36,98.8,35.3,97.9,35.2z
			 M101.5,26.4c-0.9,0-1.7,0.8-1.7,1.8c0,0.9,0.8,1.6,1.7,1.6c0.9,0,1.7-0.7,1.7-1.6S102.4,26.3,101.5,26.4z M89,17.2
			c0.9,0,1.7-0.7,1.7-1.6c0-0.9-0.8-1.8-1.7-1.8c-0.9,0-1.7,0.8-1.7,1.8C87.3,16.5,88,17.2,89,17.2z M90.7,40.7
			c0-0.9-0.8-1.7-1.7-1.7c-0.9,0-1.7,0.7-1.7,1.6c0,1,0.7,1.8,1.6,1.8C89.9,42.4,90.7,41.6,90.7,40.7L90.7,40.7z M99.6,19.1
			c0-0.9-0.9-1.7-1.8-1.7c-0.9,0.1-1.6,0.8-1.6,1.8c0,1,0.8,1.7,1.8,1.6C98.9,20.8,99.6,20.1,99.6,19.1z M81.8,36.9
			c0-0.9-0.8-1.7-1.8-1.7c-0.9,0-1.6,0.8-1.6,1.7c0,0.9,0.8,1.7,1.7,1.7C81.1,38.7,81.8,37.9,81.8,36.9L81.8,36.9z"/>
		<path class="st7" d="M83.7,12.2c0.1,0.3-0.1,0.4-0.3,0.6c-1.4,1-2.6,2.3-3.8,3.5c-0.4,0.5-1.1,0.9-0.8,1.7l-0.1,0.1
			c-0.3-0.2-0.4,0-0.6,0.3c-1.6,2.5-2.5,5.3-2.7,8.2c-1,1.2-1,1.7,0,2.9c0.3,3.7,1.6,7,3.8,9.9c1.3,1.6,2.8,3,4.5,4.1
			c0.1,0.1,0.2,0.3,0.3,0.4c-5.6-1.7-9.2-5.4-11-10.9C70.2,24.4,75.3,14.7,83.7,12.2L83.7,12.2z"/>
		<path class="st11" d="M84.3,12.1c-0.1,0.2-0.3,0.3-0.5,0.1C84,12.2,84.1,12.1,84.3,12.1z"/>
		<path class="st0" d="M87.3,25.2c0-0.9,0-1.8,0-2.6c0-1,0.7-1.7,1.6-1.7c1,0,1.8,0.6,1.8,1.7c0.1,1.3,0.1,2.7,0,4
			c0,0.6,0.2,1.1,0.7,1.5c0.6,0.5,1.2,1.1,1.8,1.7c0.7,0.8,0.7,1.8,0,2.5c-0.6,0.7-1.6,0.7-2.4,0c-1-0.9-2-1.9-3-2.8
			c-0.4-0.4-0.6-0.9-0.6-1.4C87.3,27,87.3,26.1,87.3,25.2L87.3,25.2z"/>
		<path class="st0" d="M97.9,35.2c0.9,0,1.7,0.8,1.7,1.7c0,0.9-0.8,1.8-1.7,1.8c-1,0-1.7-0.8-1.7-1.8C96.2,36,97,35.2,97.9,35.2z"/>
		<path class="st0" d="M101.5,26.4c0.9,0,1.8,0.9,1.7,1.8s-0.8,1.6-1.7,1.6c-0.9,0-1.7-0.7-1.7-1.6C99.8,27.2,100.6,26.4,101.5,26.4
			z"/>
		<path class="st0" d="M78.8,18.1c0.4-0.4,0.9-0.6,1.5-0.6c0.9,0.1,1.6,1,1.5,2c-0.2,0.9-1,1.6-2,1.4c-0.9-0.1-1.6-1.1-1.4-2
			C78.5,18.6,78.6,18.4,78.8,18.1L78.8,18.1L78.8,18.1z"/>
		<path class="st0" d="M89,17.2c-0.9,0-1.7-0.7-1.7-1.6c0-1,0.7-1.8,1.7-1.8c0.9,0,1.8,0.8,1.7,1.8C90.7,16.5,89.9,17.2,89,17.2z"/>
		<path class="st0" d="M90.7,40.7c0,0.9-0.8,1.7-1.8,1.7c-0.9,0-1.7-0.8-1.6-1.8c0-0.9,0.8-1.6,1.7-1.6
			C89.9,38.9,90.7,39.8,90.7,40.7L90.7,40.7z"/>
		<path class="st0" d="M75.4,29.5c-1-1.2-1-1.7,0-2.9c0.8-0.4,1.6-0.4,2.3,0.4c0.6,0.6,0.6,1.4,0.1,2.1
			C77.2,29.9,76.3,29.9,75.4,29.5L75.4,29.5z"/>
		<path class="st0" d="M99.6,19.1c0,0.9-0.7,1.7-1.6,1.7c-1,0-1.8-0.6-1.8-1.6c0-0.9,0.7-1.7,1.6-1.8C98.7,17.4,99.5,18.2,99.6,19.1
			z"/>
		<path class="st0" d="M81.8,36.9c0,0.9-0.8,1.8-1.7,1.8c-0.9,0-1.7-0.8-1.7-1.7c0-0.9,0.7-1.7,1.6-1.7C81,35.2,81.8,36,81.8,36.9
			L81.8,36.9z"/>
	</g>
</g>
</svg>
