<?xml version="1.0" encoding="UTF-8" standalone="no"?>
<!-- Generator: Adobe Illustrator 26.3.1, SVG Export Plug-In . SVG Version: 6.00 Build 0)  -->

<svg
   version="1.1"
   id="Layer_1"
   x="0px"
   y="0px"
   viewBox="0 0 365.43137 120.00001"
   xml:space="preserve"
   sodipodi:docname="OMG_Logo.svg"
   width="274.07352pt"
   height="90.000008pt"
   inkscape:version="1.2 (dc2aedaf03, 2022-05-15)"
   inkscape:export-filename="OMG_Logo.png"
   inkscape:export-xdpi="240"
   inkscape:export-ydpi="240"
   xmlns:inkscape="http://www.inkscape.org/namespaces/inkscape"
   xmlns:sodipodi="http://sodipodi.sourceforge.net/DTD/sodipodi-0.dtd"
   xmlns="http://www.w3.org/2000/svg"
   xmlns:svg="http://www.w3.org/2000/svg"><defs
   id="defs85">
	
	
	
	
	
	
	
	
	
	

	
	
	
	
	
	
	
	
	
</defs><sodipodi:namedview
   id="namedview83"
   pagecolor="#ffffff"
   bordercolor="#666666"
   borderopacity="1.0"
   inkscape:showpageshadow="2"
   inkscape:pageopacity="0.0"
   inkscape:pagecheckerboard="0"
   inkscape:deskcolor="#d1d1d1"
   showgrid="false"
   showguides="true"
   inkscape:zoom="3.705"
   inkscape:cx="-15.384615"
   inkscape:cy="144.93927"
   inkscape:window-width="3840"
   inkscape:window-height="2054"
   inkscape:window-x="-11"
   inkscape:window-y="-11"
   inkscape:window-maximized="1"
   inkscape:current-layer="Layer_1"
   inkscape:document-units="pt" />
<style
   type="text/css"
   id="style2">
	.st0{fill:#DDE3E7;}
	.st1{fill:#7F9884;}
	.st2{fill:#F1876A;}
	.st3{fill:#9CC1D8;}
	.st4{enable-background:new    ;}
	.st5{fill:#1F2537;}
</style>






<g
   id="g19664"
   transform="translate(-0.18258802)"
   style="fill:#1f2537;fill-opacity:1"><path
     class="st5"
     d="m 164.45252,17.318536 c 0,2.664389 -0.40991,4.918873 -1.33219,6.865927 -0.92229,1.947054 -2.15201,3.484201 -3.89411,4.611443 -1.63963,1.024765 -3.58668,1.639625 -5.84116,1.639625 -3.27925,0 -6.04612,-1.229719 -7.99317,-3.586679 -2.04953,-2.35696 -3.0743,-5.533732 -3.0743,-9.632793 V 14.24424 c 0,-2.561913 0.40991,-4.9188726 1.3322,-6.8659265 0.92229,-1.9470539 2.25448,-3.4842017 3.8941,-4.6114434 1.63963,-1.0247652 3.58668,-1.6396243 5.84117,-1.6396243 2.25448,0 4.09906,0.5123826 5.73868,1.5371478 1.63963,1.0247652 2.97182,2.561913 3.89411,4.5089669 0.92229,1.9470539 1.43467,4.2015375 1.43467,6.6609735 z m -2.45944,-3.074296 c 0,-3.381725 -0.81981,-6.1485908 -2.35696,-7.9931682 -1.53714,-1.9470539 -3.68915,-2.8693426 -6.35354,-2.8693426 -2.66439,0 -4.71392,0.9222887 -6.35354,2.8693426 -1.53715,1.9470539 -2.35696,4.6114432 -2.35696,8.1981212 v 2.971819 c 0,3.381726 0.81981,6.046115 2.35696,7.993169 1.53714,1.947054 3.68915,2.971819 6.35354,2.971819 2.76687,0 4.8164,-0.922289 6.35354,-2.869342 1.53715,-1.947054 2.25449,-4.611444 2.25449,-8.095646 V 14.24424 Z"
     id="path28"
     style="stroke-width:1.02477;fill:#1f2537;fill-opacity:1" /><path
     class="st5"
     d="m 186.58745,19.675496 c 0,3.279249 -0.71734,5.943638 -2.15201,7.788215 -1.43467,1.947054 -3.38172,2.869343 -5.84116,2.869343 -2.97182,0 -5.12383,-1.127242 -6.66097,-3.279249 l -0.10248,2.869343 h -2.15201 V 4.0800001e-6 h 2.35696 V 11.88728 c 1.43467,-2.254483 3.68916,-3.4842013 6.5585,-3.4842013 2.45944,0 4.50897,0.9222887 5.94364,2.8693423 1.43467,1.947054 2.15201,4.508967 2.15201,7.993169 v 0.409906 z m -2.35696,-0.409906 c 0,-2.766866 -0.51238,-4.918873 -1.63963,-6.456021 -1.12724,-1.537148 -2.56191,-2.254483 -4.61144,-2.254483 -1.53715,0 -2.76686,0.409906 -3.79163,1.127241 -1.02477,0.717336 -1.84458,1.844578 -2.35696,3.279249 v 9.530316 c 1.12724,2.66439 3.27925,3.996585 6.25107,3.996585 1.94705,0 3.38172,-0.717336 4.50896,-2.254484 1.12725,-1.639624 1.63963,-3.996584 1.63963,-6.968403 z"
     id="path30"
     style="stroke-width:1.02477;fill:#1f2537;fill-opacity:1" /><path
     class="st5"
     d="M 193.3509,8.9154613 V 32.587537 c 0,1.947054 -0.51238,3.484202 -1.43467,4.508967 -0.92229,1.024766 -2.35696,1.537148 -4.09906,1.537148 -0.71734,0 -1.43467,-0.102476 -2.04953,-0.409906 v -1.947054 c 0.61486,0.204953 1.12724,0.204953 1.7421,0.204953 2.35696,0 3.4842,-1.332195 3.4842,-3.996584 V 8.9154613 Z m -1.12724,-7.685739 c 0.51238,0 0.92229,0.1024765 1.22972,0.4099061 0.30743,0.3074296 0.4099,0.7173356 0.4099,1.1272417 0,0.4099061 -0.10247,0.8198122 -0.4099,1.1272417 -0.30743,0.3074296 -0.71734,0.4099061 -1.22972,0.4099061 -0.51239,0 -0.92229,-0.1024765 -1.12724,-0.4099061 -0.30743,-0.3074295 -0.40991,-0.6148591 -0.40991,-1.1272417 0,-0.4099061 0.10248,-0.8198121 0.40991,-1.1272417 0.30743,-0.3074296 0.61485,-0.4099061 1.12724,-0.4099061 z"
     id="path32"
     style="stroke-width:1.02477;fill:#1f2537;fill-opacity:1" /><path
     class="st5"
     d="m 207.28771,30.435531 c -1.84458,0 -3.38173,-0.409907 -4.91888,-1.332195 -1.43467,-0.922289 -2.56191,-2.152007 -3.38172,-3.689155 -0.81981,-1.537148 -1.22972,-3.381725 -1.22972,-5.328779 V 19.26559 c 0,-2.049531 0.40991,-3.894108 1.22972,-5.533732 0.81981,-1.639625 1.84458,-2.869343 3.27925,-3.7916315 1.43467,-0.9222887 2.97182,-1.4346713 4.61144,-1.4346713 2.56191,0 4.61144,0.9222887 6.14859,2.6643898 1.53715,1.742101 2.25448,4.099061 2.25448,7.173356 v 1.332195 h -15.06404 v 0.409906 c 0,2.35696 0.71733,4.40649 2.04953,5.943638 1.33219,1.639624 3.07429,2.35696 5.2263,2.35696 1.22972,0 2.35696,-0.204953 3.27925,-0.717336 0.92229,-0.409906 1.84458,-1.229718 2.56191,-2.152006 l 1.43467,1.127241 c -1.7421,2.459437 -4.20154,3.791632 -7.48078,3.791632 z M 206.8778,10.452609 c -1.7421,0 -3.27925,0.614859 -4.40649,1.947054 -1.22972,1.332195 -1.94705,2.971819 -2.15201,5.226303 h 12.70709 v -0.204954 c -0.10248,-2.04953 -0.61486,-3.689154 -1.7421,-4.918872 -1.12724,-1.229719 -2.66439,-2.049531 -4.40649,-2.049531 z"
     id="path34"
     style="stroke-width:1.02477;fill:#1f2537;fill-opacity:1" /><path
     class="st5"
     d="m 227.3731,28.386 c 1.63963,0 2.97182,-0.409906 4.09906,-1.332195 1.12725,-0.922288 1.74211,-2.152007 1.74211,-3.586678 h 2.25448 c -0.10248,1.332195 -0.51238,2.459437 -1.22972,3.484202 -0.71733,1.024765 -1.7421,1.844577 -2.97182,2.459436 -1.22972,0.614859 -2.56191,0.922289 -3.99658,0.922289 -2.76687,0 -4.91888,-0.922289 -6.5585,-2.869343 -1.63962,-1.947053 -2.45944,-4.508966 -2.45944,-7.788215 v -0.614859 c 0,-2.049531 0.40991,-3.894108 1.12725,-5.533732 0.71733,-1.639625 1.7421,-2.869343 3.17677,-3.689155 1.33219,-0.9222887 2.97182,-1.3321948 4.81639,-1.3321948 2.35696,0 4.20154,0.7173357 5.73869,2.0495308 1.53715,1.332194 2.25448,3.176772 2.45944,5.431255 h -2.35696 c -0.10248,-1.639624 -0.71734,-2.971819 -1.74211,-3.996584 -1.12724,-1.024765 -2.45943,-1.537148 -4.09906,-1.537148 -2.152,0 -3.79163,0.717336 -4.91887,2.254484 -1.12724,1.537147 -1.7421,3.689154 -1.7421,6.353544 v 0.717335 c 0,2.66439 0.61486,4.816397 1.7421,6.353545 1.12724,1.537147 2.76687,2.254483 4.91887,2.254483 z"
     id="path36"
     style="stroke-width:1.02477;fill:#1f2537;fill-opacity:1" /><path
     class="st5"
     d="m 243.25696,3.4842058 v 5.4312555 h 4.40649 v 1.9470537 h -4.40649 v 14.039283 c 0,1.127242 0.20496,2.049531 0.61486,2.66439 0.40991,0.614859 1.12725,0.819812 2.15201,0.819812 0.40991,0 1.02477,-0.102476 1.84458,-0.204953 l 0.10247,1.947054 c -0.61485,0.204953 -1.43467,0.30743 -2.45943,0.30743 -1.63963,0 -2.76687,-0.512383 -3.4842,-1.434672 C 241.30991,28.078571 240.9,26.746376 240.9,24.901798 V 10.862515 h -3.8941 V 8.9154613 H 240.9 V 3.4842058 Z"
     id="path38"
     style="stroke-width:1.02477;fill:#1f2537;fill-opacity:1" /><path
     class="st5"
     d="m 251.35261,2.7668701 c 0,-0.4099061 0.10248,-0.8198121 0.40991,-1.1272417 0.30743,-0.3074296 0.71733,-0.4099061 1.12724,-0.4099061 0.4099,0 0.92229,0.1024765 1.22972,0.4099061 0.30743,0.3074296 0.4099,0.7173356 0.4099,1.1272417 0,0.4099061 -0.10247,0.8198122 -0.4099,1.1272417 -0.30743,0.3074296 -0.71734,0.4099061 -1.22972,0.4099061 -0.51239,0 -0.92229,-0.1024765 -1.12724,-0.4099061 -0.20496,-0.3074295 -0.40991,-0.6148591 -0.40991,-1.1272417 z M 254.017,30.025624 h -2.35696 V 8.9154613 h 2.35696 z"
     id="path40"
     style="stroke-width:1.02477;fill:#1f2537;fill-opacity:1" /><path
     class="st5"
     d="M 266.31418,26.746376 272.7702,8.8129848 h 2.35696 l -7.89069,21.1101632 h -1.84458 L 257.5012,8.8129848 h 2.35696 z"
     id="path42"
     style="stroke-width:1.02477;fill:#1f2537;fill-opacity:1" /><path
     class="st5"
     d="m 285.98967,30.435531 c -1.84457,0 -3.38172,-0.409907 -4.91887,-1.332195 -1.43467,-0.922289 -2.56191,-2.152007 -3.38172,-3.689155 -0.81982,-1.537148 -1.22972,-3.381725 -1.22972,-5.328779 V 19.26559 c 0,-2.049531 0.4099,-3.894108 1.22972,-5.533732 0.81981,-1.639625 1.84457,-2.869343 3.27924,-3.7916315 1.43468,-0.9222887 2.97182,-1.4346713 4.61145,-1.4346713 2.56191,0 4.61144,0.9222887 6.14859,2.6643898 1.53715,1.742101 2.25448,4.099061 2.25448,7.173356 v 1.332195 h -15.06405 v 0.409906 c 0,2.35696 0.71734,4.40649 2.04953,5.943638 1.3322,1.639624 3.0743,2.35696 5.22631,2.35696 1.22971,0 2.35696,-0.204953 3.27925,-0.717336 0.92228,-0.409906 1.84457,-1.229718 2.56191,-2.152006 l 1.43467,1.127241 c -1.7421,2.459437 -4.20154,3.791632 -7.48079,3.791632 z m -0.4099,-19.982922 c -1.7421,0 -3.27925,0.614859 -4.40649,1.947054 -1.22972,1.332195 -1.94706,2.971819 -2.15201,5.226303 h 12.60461 v -0.204954 c -0.10247,-2.04953 -0.61486,-3.689154 -1.7421,-4.918872 -1.12724,-1.229719 -2.56191,-2.049531 -4.30401,-2.049531 z"
     id="path44"
     style="stroke-width:1.02477;fill:#1f2537;fill-opacity:1" /><path
     class="st5"
     d="m 146.62161,42.630236 10.4526,25.106748 10.55508,-25.106748 h 3.17677 V 71.016232 H 168.4491 V 58.616574 l 0.20496,-12.707089 -10.55508,25.106747 h -1.84458 l -10.55508,-25.00427 0.20495,12.502135 v 12.399659 h -2.35696 v -28.28352 z"
     id="path48"
     style="stroke-width:1.02477;fill:#1f2537;fill-opacity:1" /><path
     class="st5"
     d="m 190.17413,71.016232 c -0.20496,-0.614859 -0.40991,-1.639624 -0.40991,-2.971819 -0.81981,1.024766 -1.84458,1.844578 -3.17677,2.459437 -1.22972,0.614859 -2.56191,0.819812 -3.99659,0.819812 -2.04953,0 -3.68915,-0.614859 -4.91887,-1.742101 -1.22972,-1.127242 -1.84458,-2.561913 -1.84458,-4.304014 0,-2.04953 0.81982,-3.689154 2.56192,-4.918873 1.7421,-1.229718 4.09906,-1.844577 7.17335,-1.844577 h 4.20154 v -2.35696 c 0,-1.537148 -0.51238,-2.664389 -1.43467,-3.586678 -0.92229,-0.819812 -2.25448,-1.332195 -4.09906,-1.332195 -1.63963,0 -2.97182,0.409906 -3.99659,1.229718 -1.02476,0.819812 -1.63962,1.844578 -1.63962,2.971819 h -2.35696 c 0,-1.639624 0.81981,-3.176772 2.35696,-4.40649 1.53715,-1.229718 3.4842,-1.844577 5.73869,-1.844577 2.35696,0 4.20153,0.614859 5.53373,1.742101 1.33219,1.127241 2.04953,2.869342 2.04953,4.918872 v 10.042699 c 0,2.049531 0.20495,3.586679 0.61486,4.611444 v 0.204953 h -2.35696 z m -7.27584,-1.7421 c 1.53715,0 2.97182,-0.409906 4.20154,-1.127242 1.22972,-0.717336 2.15201,-1.742101 2.66439,-3.074296 v -4.611443 h -4.20154 c -2.35696,0 -4.09906,0.409906 -5.43125,1.229718 -1.3322,0.819812 -1.94706,1.947054 -1.94706,3.381725 0,1.229719 0.40991,2.152007 1.3322,2.971819 0.81981,0.922289 1.94705,1.229719 3.38172,1.229719 z"
     id="path50"
     style="stroke-width:1.02477;fill:#1f2537;fill-opacity:1" /><path
     class="st5"
     d="m 199.70444,49.906069 0.10248,3.586679 c 0.81981,-1.332195 1.7421,-2.254484 2.97182,-2.97182 1.22972,-0.717335 2.45944,-1.024765 3.89411,-1.024765 2.25448,0 3.99658,0.614859 5.02135,1.947054 1.02476,1.332195 1.63962,3.176772 1.63962,5.738685 v 13.83433 h -2.35696 v -13.83433 c 0,-1.844577 -0.40991,-3.279248 -1.22972,-4.201537 -0.81981,-0.922289 -2.04953,-1.434671 -3.79163,-1.434671 -1.43467,0 -2.76686,0.409906 -3.79163,1.332194 -1.12724,0.922289 -1.94705,2.152007 -2.45944,3.689155 v 14.449189 h -2.35696 V 49.906069 Z"
     id="path52"
     style="stroke-width:1.02477;fill:#1f2537;fill-opacity:1" /><path
     class="st5"
     d="m 232.08702,71.016232 c -0.20495,-0.614859 -0.4099,-1.639624 -0.4099,-2.971819 -0.81981,1.024766 -1.84458,1.844578 -3.17677,2.459437 -1.22972,0.614859 -2.56192,0.819812 -3.99659,0.819812 -2.04953,0 -3.68915,-0.614859 -4.91887,-1.742101 -1.22972,-1.127242 -1.84458,-2.561913 -1.84458,-4.304014 0,-2.04953 0.81981,-3.689154 2.56191,-4.918873 1.7421,-1.229718 4.09906,-1.844577 7.17336,-1.844577 h 4.20154 v -2.35696 c 0,-1.537148 -0.51238,-2.664389 -1.43467,-3.586678 -0.92229,-0.819812 -2.25449,-1.332195 -4.09906,-1.332195 -1.63963,0 -2.97182,0.409906 -3.99659,1.229718 -1.02476,0.819812 -1.63962,1.844578 -1.63962,2.971819 h -2.35696 c 0,-1.639624 0.81981,-3.176772 2.35696,-4.40649 1.53714,-1.229718 3.4842,-1.844577 5.73868,-1.844577 2.35696,0 4.20154,0.614859 5.53373,1.742101 1.3322,1.127241 2.04953,2.869342 2.04953,4.918872 v 10.042699 c 0,2.049531 0.20496,3.586679 0.61486,4.611444 v 0.204953 h -2.35696 z m -7.37831,-1.7421 c 1.53715,0 2.97182,-0.409906 4.20154,-1.127242 1.22972,-0.717336 2.15201,-1.742101 2.66439,-3.074296 v -4.611443 h -4.20154 c -2.35696,0 -4.09906,0.409906 -5.43125,1.229718 -1.3322,0.819812 -1.94706,1.947054 -1.94706,3.381725 0,1.229719 0.40991,2.152007 1.3322,2.971819 0.81981,0.922289 1.94705,1.229719 3.38172,1.229719 z"
     id="path54"
     style="stroke-width:1.02477;fill:#1f2537;fill-opacity:1" /><path
     class="st5"
     d="m 238.33809,60.256198 c 0,-3.279249 0.71734,-5.943638 2.15201,-7.890692 1.43467,-1.947054 3.4842,-2.869343 5.94364,-2.869343 2.86934,0 5.02135,1.127242 6.55849,3.484202 l 0.10248,-3.074296 h 2.15201 v 20.700257 c 0,2.766866 -0.71734,4.918873 -2.25449,6.456021 -1.53714,1.537148 -3.58667,2.35696 -6.14859,2.35696 -1.43467,0 -2.86934,-0.307429 -4.20153,-1.024765 -1.3322,-0.614859 -2.35696,-1.537148 -3.17678,-2.66439 l 1.3322,-1.434671 c 1.63962,2.04953 3.58668,3.074296 5.94364,3.074296 1.94705,0 3.4842,-0.614859 4.61144,-1.742101 1.12724,-1.127242 1.63962,-2.766866 1.7421,-4.816397 v -2.561913 c -1.53715,2.049531 -3.68915,3.074296 -6.5585,3.074296 -2.45943,0 -4.40649,-1.024765 -5.94363,-2.971819 -1.53715,-1.947054 -2.25449,-4.611443 -2.25449,-7.890692 z m 2.35696,0.409906 c 0,2.664389 0.51238,4.816396 1.63963,6.353544 1.12724,1.537148 2.56191,2.35696 4.61144,2.35696 2.86934,0 4.91887,-1.332195 6.14859,-3.894108 v -9.837746 c -0.51238,-1.332194 -1.33219,-2.35696 -2.35696,-3.074295 -1.02476,-0.717336 -2.25448,-1.024765 -3.68915,-1.024765 -1.94706,0 -3.48421,0.819812 -4.61145,2.35696 -1.22972,1.434671 -1.7421,3.791631 -1.7421,6.76345 z"
     id="path56"
     style="stroke-width:1.02477;fill:#1f2537;fill-opacity:1" /><path
     class="st5"
     d="m 269.08105,71.426139 c -1.84458,0 -3.38173,-0.409907 -4.91888,-1.332195 -1.43467,-0.922289 -2.56191,-2.152007 -3.38172,-3.689155 -0.81981,-1.537148 -1.22972,-3.381725 -1.22972,-5.328779 v -0.819812 c 0,-2.049531 0.40991,-3.894108 1.22972,-5.533732 0.81981,-1.639625 1.84458,-2.869343 3.27925,-3.791631 1.43467,-0.922289 2.97182,-1.434672 4.61144,-1.434672 2.56191,0 4.61144,0.922289 6.14859,2.66439 1.53715,1.742101 2.25449,4.099061 2.25449,7.173356 v 1.332195 h -15.16653 v 0.409906 c 0,2.35696 0.71734,4.40649 2.04953,5.943638 1.3322,1.639624 3.0743,2.35696 5.2263,2.35696 1.22972,0 2.35696,-0.204953 3.27925,-0.717336 0.92229,-0.409906 1.84458,-1.229718 2.56192,-2.152006 l 1.43467,1.127241 c -1.63963,2.459437 -4.09906,3.791632 -7.37831,3.791632 z m -0.40991,-19.982922 c -1.7421,0 -3.27925,0.614859 -4.40649,1.947054 -1.22972,1.332195 -1.94705,2.971819 -2.15201,5.226303 h 12.70709 V 58.41162 c -0.10247,-2.04953 -0.61486,-3.689154 -1.7421,-4.918872 -1.12724,-1.229719 -2.66439,-2.049531 -4.40649,-2.049531 z"
     id="path58"
     style="stroke-width:1.02477;fill:#1f2537;fill-opacity:1" /><path
     class="st5"
     d="m 283.32528,49.906069 0.10248,3.484202 c 0.81981,-1.229718 1.7421,-2.254483 2.97182,-2.869343 1.12724,-0.614859 2.45944,-0.922288 3.89411,-0.922288 3.27925,0 5.43125,1.332195 6.35354,4.099061 0.71734,-1.332195 1.7421,-2.35696 3.0743,-3.074296 1.22972,-0.717336 2.66439,-1.024765 4.20153,-1.024765 4.50897,0 6.86593,2.459436 6.96841,7.378309 v 14.039283 h -2.35696 V 57.079426 c 0,-1.844578 -0.40991,-3.279249 -1.22972,-4.201538 -0.81981,-0.922288 -2.15201,-1.332194 -3.89411,-1.332194 -1.63962,0 -3.07429,0.614859 -4.30401,1.639624 -1.12724,1.024765 -1.84458,2.35696 -1.94706,3.894108 v 13.936806 h -2.45943 V 56.976949 c 0,-1.844577 -0.40991,-3.176772 -1.22972,-4.099061 -0.81981,-0.922288 -2.15201,-1.332194 -3.89411,-1.332194 -1.43467,0 -2.76686,0.409906 -3.79163,1.229718 -1.02476,0.819812 -1.84458,2.04953 -2.35696,3.689155 V 70.913756 H 281.0708 V 49.803593 h 2.25448 z"
     id="path60"
     style="stroke-width:1.02477;fill:#1f2537;fill-opacity:1" /><path
     class="st5"
     d="m 324.21342,71.426139 c -1.84458,0 -3.38173,-0.409907 -4.91888,-1.332195 -1.43467,-0.922289 -2.56191,-2.152007 -3.38172,-3.689155 -0.81981,-1.537148 -1.22972,-3.381725 -1.22972,-5.328779 v -0.819812 c 0,-2.049531 0.40991,-3.894108 1.22972,-5.533732 0.81981,-1.639625 1.84457,-2.869343 3.27925,-3.791631 1.43467,-0.922289 2.97181,-1.434672 4.61144,-1.434672 2.56191,0 4.61144,0.922289 6.14859,2.66439 1.53715,1.742101 2.25448,4.099061 2.25448,7.173356 v 1.332195 h -15.06404 v 0.409906 c 0,2.35696 0.71733,4.40649 2.04953,5.943638 1.33219,1.639624 3.07429,2.35696 5.2263,2.35696 1.22972,0 2.35696,-0.204953 3.27925,-0.717336 0.92229,-0.409906 1.84457,-1.229718 2.56191,-2.152006 l 1.43467,1.127241 c -1.7421,2.459437 -4.20154,3.791632 -7.48078,3.791632 z m -0.40991,-19.982922 c -1.7421,0 -3.27925,0.614859 -4.40649,1.947054 -1.22972,1.332195 -1.94705,2.971819 -2.15201,5.226303 H 329.9521 V 58.41162 c -0.10248,-2.04953 -0.61486,-3.689154 -1.7421,-4.918872 -1.12724,-1.229719 -2.66439,-2.049531 -4.40649,-2.049531 z"
     id="path62"
     style="stroke-width:1.02477;fill:#1f2537;fill-opacity:1" /><path
     class="st5"
     d="m 338.45765,49.906069 0.10248,3.586679 c 0.81981,-1.332195 1.7421,-2.254484 2.97182,-2.97182 1.22972,-0.717335 2.45943,-1.024765 3.89411,-1.024765 2.25448,0 3.99658,0.614859 5.02134,1.947054 1.02477,1.332195 1.63963,3.176772 1.63963,5.738685 v 13.83433 h -2.35696 v -13.83433 c 0,-1.844577 -0.40991,-3.279248 -1.22972,-4.201537 -0.81981,-0.922289 -2.04953,-1.434671 -3.79163,-1.434671 -1.43467,0 -2.76687,0.409906 -3.79163,1.332194 -1.12724,0.922289 -1.94706,2.152007 -2.45944,3.689155 v 14.449189 h -2.35696 V 49.906069 Z"
     id="path64"
     style="stroke-width:1.02477;fill:#1f2537;fill-opacity:1" /><path
     class="st5"
     d="m 360.90001,44.474814 v 5.431255 h 4.40649 v 1.947054 h -4.40649 v 14.039283 c 0,1.127242 0.20495,2.049531 0.61486,2.66439 0.4099,0.614859 1.12724,0.819812 2.15201,0.819812 0.4099,0 1.02476,-0.102476 1.84457,-0.204953 l 0.10248,1.947054 c -0.61486,0.204953 -1.43467,0.30743 -2.45944,0.30743 -1.63962,0 -2.76686,-0.512383 -3.4842,-1.434672 -0.71733,-0.922288 -1.12724,-2.254483 -1.12724,-4.099061 V 51.853123 h -3.89411 v -1.947054 h 3.89411 v -5.431255 z"
     id="path66"
     style="stroke-width:1.02477;fill:#1f2537;fill-opacity:1" /><g
     class="st4"
     id="g80"
     transform="matrix(1.0247652,0,0,1.0247652,-102.90872,-143.87703)"
     style="fill:#1f2537;fill-opacity:1">
	<path
   class="st5"
   d="m 260.4,246.4 c -0.8,1.2 -2.1,2.1 -3.8,2.7 -1.7,0.6 -3.7,1 -5.8,1 -2.2,0 -4.1,-0.5 -5.8,-1.6 -1.7,-1.1 -3,-2.5 -3.9,-4.4 -0.9,-1.9 -1.4,-4.1 -1.4,-6.6 V 234 c 0,-3.8 1,-6.9 2.9,-9.1 1.9,-2.2 4.6,-3.3 7.8,-3.3 2.9,0 5.2,0.7 6.9,2.2 1.7,1.5 2.8,3.5 3.1,6 h -2.3 c -0.3,-2 -1.2,-3.6 -2.5,-4.6 -1.3,-1.1 -3,-1.6 -5.2,-1.6 -2.6,0 -4.6,0.9 -6.2,2.8 -1.5,1.8 -2.3,4.4 -2.3,7.8 v 3.3 c 0,2.1 0.4,4 1.1,5.6 0.7,1.6 1.7,2.9 3.1,3.8 1.3,0.9 2.9,1.3 4.6,1.3 2,0 3.8,-0.3 5.2,-1 0.9,-0.4 1.6,-0.9 2.1,-1.5 v -7.2 h -7.4 v -2 h 9.8 z"
   id="path70"
   style="fill:#1f2537;fill-opacity:1" />
	<path
   class="st5"
   d="m 275.5,231 c -0.5,-0.1 -1,-0.1 -1.5,-0.1 -1.4,0 -2.6,0.4 -3.6,1.2 -1,0.8 -1.7,1.9 -2.1,3.5 v 14.1 H 266 v -20.6 h 2.2 v 3.3 c 1.2,-2.4 3.1,-3.7 5.8,-3.7 0.6,0 1.1,0.1 1.5,0.2 z"
   id="path72"
   style="fill:#1f2537;fill-opacity:1" />
	<path
   class="st5"
   d="m 276.8,239.1 c 0,-2 0.4,-3.8 1.2,-5.4 0.8,-1.6 1.9,-2.8 3.3,-3.7 1.4,-0.9 3,-1.3 4.8,-1.3 2.7,0 5,1 6.7,2.9 1.7,1.9 2.6,4.5 2.6,7.6 v 0.5 c 0,2 -0.4,3.8 -1.2,5.4 -0.8,1.6 -1.9,2.8 -3.2,3.7 -1.3,0.9 -3,1.3 -4.8,1.3 -2.7,0 -4.9,-1 -6.7,-2.9 -1.7,-1.9 -2.6,-4.5 -2.6,-7.6 v -0.5 z m 2.2,0.6 c 0,2.5 0.6,4.5 1.9,6.1 1.3,1.6 2.9,2.4 5,2.4 2.1,0 3.7,-0.8 5,-2.4 1.3,-1.6 1.9,-3.7 1.9,-6.3 v -0.4 c 0,-1.6 -0.3,-3 -0.9,-4.3 -0.6,-1.3 -1.4,-2.3 -2.5,-3 -1.1,-0.7 -2.3,-1.1 -3.6,-1.1 -2,0 -3.7,0.8 -5,2.4 -1.3,1.6 -1.9,3.7 -1.9,6.3 v 0.3 z"
   id="path74"
   style="fill:#1f2537;fill-opacity:1" />
	<path
   class="st5"
   d="m 312.5,247.1 c -1.4,2 -3.6,3 -6.6,3 -2.2,0 -3.9,-0.6 -5,-1.9 -1.1,-1.3 -1.7,-3.2 -1.8,-5.7 v -13.4 h 2.3 v 13.1 c 0,3.9 1.6,5.9 4.8,5.9 3.3,0 5.4,-1.4 6.3,-4.1 v -14.9 h 2.3 v 20.6 h -2.2 z"
   id="path76"
   style="fill:#1f2537;fill-opacity:1" />
	<path
   class="st5"
   d="m 336.6,239.6 c 0,3.2 -0.7,5.8 -2.1,7.6 -1.4,1.9 -3.3,2.8 -5.7,2.8 -2.8,0 -5,-1 -6.5,-3 v 10.5 H 320 V 229 h 2.1 l 0.1,2.9 c 1.5,-2.2 3.6,-3.3 6.5,-3.3 2.5,0 4.4,0.9 5.8,2.8 1.4,1.9 2.1,4.5 2.1,7.8 z m -2.2,-0.4 c 0,-2.6 -0.5,-4.7 -1.6,-6.2 -1.1,-1.5 -2.6,-2.3 -4.5,-2.3 -1.4,0 -2.6,0.3 -3.6,1 -1,0.7 -1.8,1.7 -2.3,2.9 v 9.9 c 0.5,1.2 1.3,2.1 2.3,2.7 1,0.6 2.2,0.9 3.6,0.9 1.9,0 3.4,-0.8 4.5,-2.3 1,-1.5 1.6,-3.7 1.6,-6.6 z"
   id="path78"
   style="fill:#1f2537;fill-opacity:1" />
</g></g>
<path
   style="fill:none;stroke:#e5e5e5;stroke-width:5.99986;stroke-dasharray:none;stroke-opacity:1"
   id="path10022-0"
   sodipodi:type="arc"
   sodipodi:cx="59.999405"
   sodipodi:cy="60.002384"
   sodipodi:rx="56.998711"
   sodipodi:ry="57.002453"
   sodipodi:start="4.0142573"
   sodipodi:end="4.712389"
   sodipodi:arc-type="arc"
   d="M 23.361341,16.335971 A 56.998711,57.002453 0 0 1 59.999405,2.9999313"
   sodipodi:open="true" /><path
   style="fill:none;stroke:#e5e5e5;stroke-width:6;stroke-dasharray:none;stroke-opacity:1"
   id="path10022-9-2"
   sodipodi:type="arc"
   sodipodi:cx="60.00272"
   sodipodi:cy="60.002705"
   sodipodi:rx="48.002617"
   sodipodi:ry="48.00436"
   sodipodi:start="3.3161256"
   sodipodi:end="4.712389"
   sodipodi:arc-type="arc"
   d="M 12.729371,51.666834 A 48.002617,48.00436 0 0 1 60.00272,11.998344"
   sodipodi:open="true" /><path
   style="fill:none;stroke:#e5e5e5;stroke-width:5.99937;stroke-dasharray:none;stroke-opacity:1"
   id="path10022-9-1-6"
   sodipodi:type="arc"
   sodipodi:cx="59.999073"
   sodipodi:cy="60.001637"
   sodipodi:rx="39.000435"
   sodipodi:ry="39.001953"
   sodipodi:start="2.6179939"
   sodipodi:end="4.712389"
   sodipodi:arc-type="arc"
   d="m 26.223705,79.502612 a 39.000435,39.001953 0 0 1 1e-6,-39.001952 39.000435,39.001953 0 0 1 33.775367,-19.500977"
   sodipodi:open="true" /><path
   style="fill:none;stroke:#7f9884;stroke-width:6.00000009;stroke-dasharray:none;stroke-opacity:1;stroke-linecap:round"
   id="path10022"
   sodipodi:type="arc"
   sodipodi:cx="59.995354"
   sodipodi:cy="59.998756"
   sodipodi:rx="57.000767"
   sodipodi:ry="56.998867"
   sodipodi:start="4.712389"
   sodipodi:end="4.0142573"
   sodipodi:arc-type="arc"
   d="M 59.995354,2.9998894 A 57.000767,56.998867 0 0 1 116.13015,50.101008 57.000767,56.998867 0 0 1 79.490763,113.56017 57.000767,56.998867 0 0 1 10.631241,88.498189 57.000767,56.998867 0 0 1 23.355968,16.33509"
   sodipodi:open="true" /><path
   style="fill:none;stroke:#9cc1d8;stroke-width:5.99942;stroke-dasharray:none;stroke-opacity:1;stroke-linecap:round"
   id="path10022-9-1"
   sodipodi:type="arc"
   sodipodi:cx="60.000301"
   sodipodi:cy="60.002541"
   sodipodi:rx="39.000145"
   sodipodi:ry="39.002831"
   sodipodi:start="4.712389"
   sodipodi:end="2.6179939"
   sodipodi:arc-type="arc"
   d="M 60.000301,20.99971 A 39.000145,39.002831 0 0 1 98.407947,53.229771 39.000145,39.002831 0 0 1 73.339136,96.653213 39.000145,39.002831 0 0 1 26.225185,79.503955"
   sodipodi:open="true" /><path
   style="fill:none;stroke:#f1876a;stroke-width:6;stroke-dasharray:none;stroke-opacity:1;stroke-linecap:round"
   id="path10022-9"
   sodipodi:type="arc"
   sodipodi:cx="60.001057"
   sodipodi:cy="60.001747"
   sodipodi:rx="48.025742"
   sodipodi:ry="48.028179"
   sodipodi:start="4.712389"
   sodipodi:end="3.3161256"
   sodipodi:arc-type="arc"
   d="M 60.001057,11.973568 A 48.025742,48.028179 0 0 1 105.13049,43.575143 48.025742,48.028179 0 0 1 90.871408,96.793468 48.025742,48.028179 0 0 1 35.988185,101.59537 48.025742,48.028179 0 0 1 12.704934,51.66174"
   sodipodi:open="true" /></svg>
