<?xml version="1.0" encoding="utf-8"?>
<!-- Generator: Adobe Illustrator 28.0.0, SVG Export Plug-In . SVG Version: 6.00 Build 0)  -->
<svg version="1.1" id="Layer_1" xmlns="http://www.w3.org/2000/svg" xmlns:xlink="http://www.w3.org/1999/xlink" x="0px" y="0px"
	 viewBox="0 0 154 36" style="enable-background:new 0 0 154 36;" xml:space="preserve">
<style type="text/css">
	.st0{fill:#666666;}
	.st1{fill:#FFFFFF;}
</style>
<g>
	<g>
		<path class="st0" d="M61.8,27.6c-0.4-0.1-0.9,0-1.3,0 M58.6,27.6c-0.1,0-0.2,0-0.2,0 M43.8,27.5c-0.1,0-0.2,0-0.2,0.1 M45.7,27.6
			c-0.1,0-0.2,0-0.2,0 M78.6,27.6c-0.1,0-0.2,0-0.2,0 M73.8,27.6c-0.1,0-0.2,0-0.2,0 M71.6,27.6c-0.1,0-0.2,0-0.2,0"/>
		<path class="st0" d="M70,4.8c0.4,0.1,0.8,0.2,1.2,0.2c2.1,0.5,3.6,1.8,4,4c0.5,2.6-0.3,5-2.2,6.2c-0.1,0.1-0.2,0.2-0.4,0.2
			c2,0.9,2.4,2.5,2.5,4.3c0.1,1.6,0,3.3,0,5c-1.3,0-2.8,0-4.3,0c0-1.1,0-2.2,0-3.4c0-0.7-0.1-1.3-0.2-2c-0.3-1.4-1.1-2-2.5-2
			c-0.7,0-1.5,0-2.1,0c-0.1,0-0.2,0-0.4,0.1c0,2.4,0,4.8,0,7.2c-1.6,0-3.1,0-4.8,0c0-6.7,0-13.4,0-20.2C63.9,4.8,67,4.8,70,4.8z
			 M65.6,9.2c0,1.6,0,3,0,4.6c1.1,0,2.1,0.1,3.2,0c1.2-0.1,2-0.9,2-2.2c0-1.2-0.6-2.1-1.8-2.3C67.9,9,66.8,9.2,65.6,9.2z"/>
		<path class="st0" d="M111.3,24.9c-1.5,0-3,0.1-4.5,0c-0.3,0-0.7-0.4-1-0.7c-3.8-6.4-7.5-12.9-11.2-19.3c5.6,0,11.2,0,16.6,0
			C111.3,11.6,111.3,18.2,111.3,24.9z"/>
		<path class="st0" d="M58.1,4.8c0,6.7,0,13.4,0,20.2c-1.6,0-3,0-4.7,0c0-2.7,0-5.4,0-8.2c-2,0-3.8,0-5.7,0c0,2.7,0,5.5,0,8.2
			c-1.6,0-3.1,0-4.8,0c0-6.7,0-13.4,0-20.2c1.6,0,3.1,0,4.7,0c0,2.5,0,4.9,0,7.4c2,0,3.8,0,5.7,0c0-2.5,0-4.9,0-7.4
			C54.9,4.8,56.5,4.8,58.1,4.8z"/>
		<path class="st0" d="M91.4,4.8c2.2,3.9,4.5,7.8,6.7,11.6c1.6,2.8,3.2,5.6,4.9,8.6c-1.7,0-3.3,0-4.9,0c-0.2,0-0.5-0.3-0.6-0.5
			c-0.6-1-1.1-2-1.7-3c-0.2-0.2-0.4-0.6-0.7-0.6c-1.7-0.1-3.4,0-5.2,0c0,1.5,0,2.8,0,4.2c-1.5,0-2.8,0-4.3,0c0-6.7,0-13.4,0-20.2
			C87.5,4.8,89.5,4.8,91.4,4.8z M93.3,16.5c-1.1-2-2.2-3.9-3.4-6c0,2.1,0,4.1,0,6C91,16.5,92.1,16.5,93.3,16.5z"/>
		<path class="st0" d="M82.8,4.8c0,6.7,0,13.4,0,20.2c-1.6,0-3,0-4.6,0c0-0.2-0.1-0.6-0.1-0.8c0-6.1,0-12.3,0-18.4
			c0-0.2,0.1-0.6,0.2-0.8C79.8,4.8,81.3,4.8,82.8,4.8z"/>
		<path class="st0" d="M60.4,27.6c0.4,0,0.9-0.1,1.3,0"/>
		<path class="st0" d="M58.3,27.5c0.1,0,0.2,0,0.2,0"/>
		<path class="st0" d="M45.4,27.6c0.1,0,0.2,0,0.2,0"/>
		<path class="st0" d="M43.6,27.6c0.1,0,0.2,0,0.2-0.1"/>
		<path class="st0" d="M78.4,27.6c0.1,0,0.2,0,0.2,0"/>
		<path class="st0" d="M73.6,27.6c0.1,0,0.2,0,0.2,0"/>
		<path class="st0" d="M71.3,27.6c0.1,0,0.2,0,0.2,0"/>
		<path class="st0" d="M105,27.6"/>
		<path class="st1" d="M65.6,9.2c1.1,0,2.3-0.1,3.4,0c1.2,0.1,1.9,1.1,1.8,2.3c0,1.3-0.7,2.1-2,2.2c-1.1,0.1-2,0-3.2,0
			C65.6,12.1,65.6,10.7,65.6,9.2z"/>
	</g>
	<g>
		<path class="st0" d="M42.7,27.6h0.5v1.1h1.3v-1.1H45v2.9h-0.5v-1.3h-1.3v1.3h-0.5C42.7,30.4,42.7,27.6,42.7,27.6z"/>
		<path class="st0" d="M45.6,27.6h0.5V28h-0.5V27.6z M45.6,28.3h0.5v2h-0.5V28.3z"/>
		<path class="st0" d="M46.6,28.3H47v0.4l0,0c0-0.1,0-0.1,0.1-0.2c0-0.1,0.1-0.1,0.2-0.2c0.1-0.1,0.1-0.1,0.2-0.1s0.2,0,0.2,0
			c0.1,0,0.1,0,0.1,0s0,0,0.1,0v0.4h-0.1h-0.1c-0.1,0-0.2,0-0.2,0.1c-0.1,0-0.2,0.1-0.2,0.2c-0.1,0.1-0.1,0.2-0.1,0.2
			S47,29.4,47,29.5v1h-0.5L46.6,28.3L46.6,28.3z"/>
		<path class="st0" d="M48.2,29.4c0,0.1,0,0.2,0,0.2c0,0.1,0.1,0.2,0.1,0.2c0.1,0.1,0.1,0.1,0.2,0.2c0.1,0,0.2,0.1,0.2,0.1
			c0.2,0,0.2,0,0.3-0.1c0.1-0.1,0.2-0.2,0.2-0.2h0.4c0,0.1-0.1,0.2-0.2,0.3c-0.1,0.1-0.2,0.2-0.2,0.2c0.2,0,0,0-0.1,0.1
			c-0.1,0-0.2,0.1-0.3,0.1c-0.2,0-0.3,0-0.4-0.1c-0.2-0.1-0.2-0.2-0.3-0.2c-0.1-0.1-0.2-0.2-0.2-0.3c-0.1-0.2-0.1-0.2-0.1-0.4
			c0-0.2,0-0.2,0.1-0.4c0.1-0.2,0.1-0.2,0.2-0.3c0.1-0.1,0.2-0.2,0.3-0.2c0.1-0.1,0.2-0.1,0.4-0.1c0.2,0,0.3,0,0.4,0.1
			c0.2,0.1,0.2,0.2,0.3,0.2c0.1,0.1,0.2,0.2,0.2,0.4c0,0.2,0.1,0.3,0,0.4L48.2,29.4L48.2,29.4z M49.3,29.2c0-0.1,0-0.2-0.1-0.2
			c0-0.1-0.1-0.2-0.1-0.2c0,0-0.1-0.1-0.1-0.1c-0.1,0-0.2-0.1-0.2-0.1c-0.1,0-0.2,0-0.2,0.1c-0.1,0-0.1,0.1-0.2,0.1
			c-0.1,0.1-0.1,0.1-0.1,0.2c0,0.1-0.1,0.2-0.1,0.2H49.3z"/>
		<path class="st0" d="M53,29.9C53,30,53,30,53,29.9L53,29.9c0.1,0.1,0.1,0.1,0.2,0.1c0,0,0,0,0.1,0v0.3c0,0,0,0-0.1,0h-0.1H53h-0.1
			c-0.1,0-0.2,0-0.2-0.1c-0.1,0-0.1-0.1-0.1-0.2c-0.1,0.1-0.2,0.2-0.3,0.2c-0.2,0-0.2,0.1-0.4,0.1c-0.1,0-0.2,0-0.2,0
			s-0.2-0.1-0.2-0.1c-0.1-0.1-0.1-0.1-0.2-0.2c0-0.1-0.1-0.2-0.1-0.2c0-0.2,0-0.2,0.1-0.3c0.1-0.1,0.1-0.2,0.2-0.2
			c0.1-0.1,0.2-0.1,0.2-0.1s0.2,0,0.2-0.1c0.1,0,0.2,0,0.2,0s0.2,0,0.2,0c0.1,0,0.1,0,0.2-0.1c0,0,0.1-0.1,0.1-0.2s0-0.1-0.1-0.2
			l-0.1-0.1c-0.1,0-0.1,0-0.2,0s-0.1,0-0.2,0c-0.2,0-0.2,0-0.3,0.1c-0.1,0.1-0.2,0.2-0.2,0.2H51c0-0.2,0-0.2,0.1-0.3
			s0.2-0.2,0.2-0.2c0.1-0.1,0.2-0.1,0.3-0.1c0.1,0,0.2,0,0.3,0s0.2,0,0.3,0c0.1,0,0.2,0.1,0.2,0.1c0.1,0.1,0.2,0.1,0.2,0.2
			c0.1,0.1,0.1,0.2,0.1,0.2v1.1H53z M52.5,29.4c-0.1,0.1-0.2,0.1-0.2,0.1c-0.1,0-0.2,0-0.3,0.1c-0.1,0-0.1,0-0.2,0s-0.1,0-0.1,0.1
			l-0.1,0.1c0,0.1,0,0.1,0,0.2c0,0.1,0,0.1,0.1,0.2l0.1,0.1c0,0,0.1,0,0.2,0.1c0.1,0,0.1,0,0.2,0s0.1,0,0.2,0c0.1,0,0.1,0,0.2-0.1
			c0.1,0,0.1-0.1,0.2-0.1c0-0.1,0.1-0.1,0.1-0.2v-0.5H52.5z"/>
		<path class="st0" d="M53.5,28.3h0.4v0.3l0,0c0.1-0.1,0.2-0.2,0.2-0.2s0.2-0.1,0.4-0.1c0.2,0,0.4,0.1,0.6,0.2
			c0.2,0.1,0.2,0.3,0.2,0.5v1.4h-0.4V29c0-0.2,0-0.2-0.1-0.3c-0.1-0.1-0.2-0.1-0.3-0.1c-0.1,0-0.2,0-0.2,0.1c-0.1,0-0.1,0.1-0.2,0.1
			C54,28.9,54,28.9,54,28.9c0,0.1,0,0.2,0,0.2v1.2h-0.5C53.5,30.4,53.5,28.3,53.5,28.3z"/>
		<path class="st0" d="M57.7,30.4h-0.4v-0.2l0,0c-0.1,0.1-0.2,0.2-0.2,0.2c-0.1,0.1-0.2,0.1-0.4,0.1c-0.2,0-0.3,0-0.4-0.1
			c-0.1-0.1-0.2-0.2-0.3-0.2c-0.1-0.1-0.2-0.2-0.2-0.3c0-0.2-0.1-0.2-0.1-0.4c0-0.2,0-0.3,0.1-0.5c0.1-0.2,0.1-0.2,0.2-0.3
			c0.1-0.1,0.2-0.2,0.3-0.2c0.1,0,0.2-0.1,0.3-0.1c0.1,0,0.2,0,0.2,0s0.2,0,0.2,0.1c0.1,0,0.1,0.1,0.2,0.1c0.1,0,0.1,0.1,0.2,0.2
			l0,0v-1.1h0.5C57.7,27.6,57.7,30.4,57.7,30.4z M56.1,29.4c0,0.1,0,0.2,0,0.2c0,0.1,0.1,0.2,0.1,0.2c0.1,0.1,0.1,0.1,0.2,0.2
			c0.1,0,0.2,0.1,0.2,0.1s0.2,0,0.2-0.1c0.1-0.1,0.2-0.1,0.2-0.2c0.1-0.1,0.1-0.2,0.1-0.2s0-0.2,0-0.2c0-0.2-0.1-0.4-0.2-0.6
			s-0.2-0.2-0.4-0.2c-0.1,0-0.2,0-0.2,0.1c-0.1,0.1-0.2,0.1-0.2,0.2C56,28.9,56,29,56,29.1C56.1,29.2,56.1,29.3,56.1,29.4z"/>
		<path class="st0" d="M59.8,27.6h1.4c0.3,0,0.6,0.1,0.7,0.2c0.2,0.2,0.2,0.3,0.2,0.6c0,0.2,0,0.2-0.1,0.3c0,0.1-0.1,0.2-0.2,0.2
			c-0.1,0.1-0.1,0.1-0.2,0.1s-0.1,0-0.1,0.1l0,0c0.1,0,0.1,0,0.2,0s0.1,0.1,0.2,0.1c0.1,0.1,0.1,0.1,0.1,0.2c0,0.1,0.1,0.2,0.1,0.2
			c0,0.2,0,0.3,0,0.5c0,0.2,0.1,0.2,0.1,0.3h-0.6c0-0.1-0.1-0.2-0.1-0.2c0-0.1,0-0.2,0-0.2c0-0.2,0-0.2,0-0.3c0-0.1-0.1-0.2-0.1-0.2
			c-0.1-0.1-0.1-0.1-0.2-0.2c-0.1,0-0.2-0.1-0.2-0.1h-0.7v1.1h-0.6V27.6z M60.3,28.9h0.8c0.2,0,0.2,0,0.3-0.1s0.2-0.2,0.2-0.3
			c0-0.1,0-0.2,0-0.2s-0.1-0.1-0.1-0.2c-0.1,0-0.1-0.1-0.2-0.1s-0.1,0-0.2,0h-0.8L60.3,28.9L60.3,28.9z"/>
		<path class="st0" d="M62.9,29.4c0,0.1,0,0.2,0,0.2c0,0.1,0.1,0.2,0.1,0.2c0.1,0.1,0.1,0.1,0.2,0.2c0.1,0,0.2,0.1,0.2,0.1
			c0.2,0,0.2,0,0.3-0.1c0.1-0.1,0.2-0.2,0.2-0.2h0.4c0,0.1-0.1,0.2-0.2,0.3c-0.1,0.1-0.2,0.2-0.2,0.2c0.1,0,0,0-0.1,0.1
			c-0.1,0-0.2,0.1-0.3,0.1c-0.2,0-0.3,0-0.4-0.1c-0.2-0.1-0.2-0.2-0.3-0.2c-0.1-0.1-0.2-0.2-0.2-0.3c-0.1-0.2-0.1-0.2-0.1-0.4
			c0-0.2,0-0.2,0.1-0.4c0.1-0.2,0.1-0.2,0.2-0.3c0.1-0.1,0.2-0.2,0.3-0.2c0.1-0.1,0.2-0.1,0.4-0.1s0.3,0,0.4,0.1
			c0.2,0.1,0.2,0.2,0.3,0.2c0.1,0.1,0.2,0.2,0.2,0.4c0,0.2,0.1,0.3,0,0.4L62.9,29.4L62.9,29.4z M64,29.2c0-0.1,0-0.2-0.1-0.2
			c0-0.1-0.1-0.2-0.1-0.2c-0.1-0.1-0.1-0.1-0.2-0.1c-0.1,0-0.2-0.1-0.2-0.1c-0.1,0-0.2,0-0.2,0.1c-0.1,0-0.1,0.1-0.2,0.1
			c-0.1,0.1-0.1,0.1-0.1,0.2c0,0.1-0.1,0.2-0.1,0.2H64z"/>
		<path class="st0" d="M64.8,28.3h0.4v0.3l0,0c0.1-0.1,0.2-0.2,0.2-0.2c0.1-0.1,0.2-0.1,0.4-0.1c0.2,0,0.4,0.1,0.6,0.2
			c0.2,0.1,0.2,0.3,0.2,0.5v1.4h-0.5V29c0-0.2,0-0.2-0.1-0.3c-0.1-0.1-0.2-0.1-0.3-0.1c-0.1,0-0.2,0-0.2,0.1c-0.1,0-0.1,0.1-0.2,0.1
			c-0.1,0.1-0.1,0.1-0.1,0.2c0,0.1,0,0.2,0,0.2v1.2h-0.5L64.8,28.3L64.8,28.3z"/>
		<path class="st0" d="M66.8,28.3h0.3v-0.7h0.5v0.7h0.4v0.4h-0.4v1.1c0,0.1,0,0.1,0,0.2c0,0.1,0,0.1,0,0.1s0,0.1,0.1,0.1h0.1h0.1H68
			v0.3c-0.1,0-0.1,0-0.2,0c-0.1,0-0.1,0-0.2,0s-0.2,0-0.3,0c-0.1,0-0.2-0.1-0.2-0.1c-0.1-0.1-0.1-0.1-0.1-0.2s0-0.2,0-0.2v-1.2h-0.3
			L66.8,28.3L66.8,28.3z"/>
		<path class="st0" d="M70.1,29.9C70.1,30,70.1,30,70.1,29.9L70.1,29.9c0.1,0.1,0.1,0.1,0.2,0.1c0,0,0,0,0.1,0v0.3c0,0,0,0-0.1,0
			h-0.1h-0.1H70c-0.1,0-0.2,0-0.2-0.1c-0.1,0-0.1-0.1-0.1-0.2c-0.1,0.1-0.2,0.2-0.3,0.2c-0.2,0-0.2,0.1-0.4,0.1c-0.1,0-0.2,0-0.2,0
			s-0.2-0.1-0.2-0.1c-0.1-0.1-0.1-0.1-0.2-0.2c0-0.1-0.1-0.2-0.1-0.2c0-0.2,0-0.2,0.1-0.3c0.1-0.1,0.1-0.2,0.2-0.2
			c0.1-0.1,0.2-0.1,0.2-0.1c0.1,0,0.2,0,0.2-0.1c0.1,0,0.2,0,0.2,0s0.2,0,0.2,0c0.1,0,0.1,0,0.2-0.1c0,0,0.1-0.1,0.1-0.2
			s0-0.1-0.1-0.2l-0.1-0.1c-0.1,0-0.1,0-0.2,0c-0.1,0-0.1,0-0.2,0c-0.2,0-0.2,0-0.3,0.1c-0.1,0.1-0.2,0.2-0.2,0.2h-0.5
			c0-0.2,0-0.2,0.1-0.3c0.1-0.1,0.2-0.2,0.2-0.2c0.1-0.1,0.2-0.1,0.3-0.1c0.1,0,0.2,0,0.3,0c0.1,0,0.2,0,0.3,0
			c0.1,0,0.2,0.1,0.2,0.1c0.1,0.1,0.2,0.1,0.2,0.2c0.1,0.1,0.1,0.2,0.1,0.2v1.1H70.1z M69.7,29.4c-0.1,0.1-0.2,0.1-0.2,0.1
			c-0.1,0-0.2,0-0.3,0.1c-0.1,0-0.1,0-0.2,0c-0.1,0-0.1,0-0.1,0.1l-0.1,0.1c0,0.1,0,0.1,0,0.2c0,0.1,0,0.1,0.1,0.2l0.1,0.1
			c0.1,0,0.1,0,0.2,0.1c0.1,0,0.1,0,0.2,0s0.1,0,0.2,0c0.1,0,0.1,0,0.2-0.1c0.1,0,0.1-0.1,0.2-0.1c0-0.1,0.1-0.1,0.1-0.2v-0.5H69.7z
			"/>
		<path class="st0" d="M70.6,27.6h0.5v2.9h-0.5V27.6z"/>
		<path class="st0" d="M73,27.6h0.5v2.9H73V27.6z"/>
		<path class="st0" d="M74,28.3h0.4v0.3l0,0c0.1-0.1,0.2-0.2,0.2-0.2c0.1-0.1,0.2-0.1,0.4-0.1c0.2,0,0.4,0.1,0.6,0.2
			c0.2,0.1,0.2,0.3,0.2,0.5v1.4h-0.5V29c0-0.2,0-0.2-0.1-0.3c-0.1-0.1-0.2-0.1-0.3-0.1c-0.1,0-0.2,0-0.2,0.1c-0.1,0-0.1,0.1-0.2,0.1
			c-0.1,0.1-0.1,0.1-0.1,0.2c0,0.1,0,0.2,0,0.2v1.2H74L74,28.3L74,28.3z"/>
		<path class="st0" d="M78.3,30.4h-0.4v-0.2l0,0c-0.1,0.1-0.2,0.2-0.3,0.2c-0.1,0.1-0.2,0.1-0.4,0.1s-0.3,0-0.4-0.1
			c-0.1-0.1-0.2-0.2-0.3-0.2c-0.1-0.1-0.2-0.2-0.2-0.3c0-0.2-0.1-0.2-0.1-0.4c0-0.2,0-0.3,0.1-0.5c0.1-0.2,0.1-0.2,0.2-0.3
			c0.1-0.1,0.2-0.2,0.3-0.2c0.1,0,0.2-0.1,0.3-0.1c0.1,0,0.2,0,0.2,0s0.2,0,0.2,0.1c0.1,0,0.1,0.1,0.2,0.1c0.1,0,0.1,0.1,0.2,0.2
			l0,0v-1.1h0.5L78.3,30.4L78.3,30.4z M76.8,29.4c0,0.1,0,0.2,0,0.2c0,0.1,0.1,0.2,0.1,0.2c0.1,0.1,0.1,0.1,0.2,0.2
			c0.1,0,0.2,0.1,0.2,0.1s0.2,0,0.2-0.1c0.1-0.1,0.2-0.1,0.2-0.2c0.1-0.1,0.1-0.2,0.1-0.2s0-0.2,0-0.2c0-0.2-0.1-0.4-0.2-0.6
			c-0.1-0.2-0.2-0.2-0.4-0.2c-0.1,0-0.2,0-0.2,0.1c-0.1,0.1-0.2,0.1-0.2,0.2c-0.1,0.1-0.1,0.2-0.1,0.2
			C76.8,29.2,76.8,29.3,76.8,29.4z"/>
		<path class="st0" d="M80.6,30.4h-0.4v-0.3l0,0c-0.1,0.1-0.2,0.2-0.2,0.2c-0.1,0.1-0.2,0.1-0.3,0.1c-0.2,0-0.5-0.1-0.6-0.2
			c-0.1-0.2-0.2-0.3-0.2-0.6v-1.3h0.5v1.2c0,0.2,0,0.3,0.1,0.4c0.1,0.1,0.2,0.1,0.3,0.1c0.1,0,0.2,0,0.2-0.1c0.1,0,0.1-0.1,0.2-0.1
			c0-0.1,0.1-0.1,0.1-0.2c0-0.1,0-0.2,0-0.2v-1.2h0.5v2.1H80.6z"/>
		<path class="st0" d="M81.4,29.8c0,0.2,0.1,0.2,0.2,0.2c0.1,0.1,0.2,0.1,0.3,0.1c0.1,0,0.1,0,0.2,0c0.1,0,0.1,0,0.2,0
			c0.1,0,0.1-0.1,0.1-0.1s0.1-0.1,0.1-0.2c0-0.1,0-0.1-0.1-0.2c0,0-0.1-0.1-0.2-0.1c-0.1,0-0.2-0.1-0.2-0.1c-0.1,0-0.2,0-0.2-0.1
			c-0.1,0-0.2,0-0.2-0.1c-0.1,0-0.2-0.1-0.2-0.1c-0.1-0.1-0.1-0.1-0.2-0.2c0-0.1-0.1-0.2-0.1-0.2c0-0.1,0-0.2,0.1-0.2
			c0.1-0.1,0.2-0.2,0.2-0.2c0.1-0.1,0.2-0.1,0.2-0.1c0.1,0,0.2,0,0.3,0c0.1,0,0.2,0,0.3,0c0.1,0,0.2,0.1,0.2,0.1s0.2,0.1,0.2,0.2
			c0.2,0.1,0.2,0.2,0.2,0.3h-0.5c0-0.1-0.1-0.2-0.2-0.2c-0.1,0-0.2-0.1-0.2-0.1h-0.1c-0.1,0-0.1,0-0.2,0c0,0-0.1,0-0.1,0.1v0.1
			c0,0.1,0,0.1,0.1,0.2c0,0,0.1,0.1,0.2,0.1c0.1,0,0.2,0.1,0.2,0.1s0.2,0,0.2,0.1c0.1,0,0.2,0.1,0.2,0.1c0.1,0,0.2,0.1,0.2,0.1
			c0.1,0.1,0.1,0.1,0.2,0.2c0,0.1,0.1,0.2,0.1,0.2c0,0.1,0,0.2-0.1,0.3c-0.1,0.1-0.2,0.2-0.2,0.2c-0.1,0.1-0.2,0.1-0.3,0.1
			c-0.1,0-0.2,0-0.3,0c-0.2,0-0.2,0-0.3-0.1c-0.1,0-0.2-0.1-0.3-0.2c-0.1-0.1-0.2-0.2-0.2-0.2c-0.1-0.1-0.1-0.2-0.1-0.3h0.3V29.8z"
			/>
		<path class="st0" d="M83,28.3h0.3v-0.7h0.5v0.7h0.4v0.4h-0.4v1.1c0,0.1,0,0.1,0,0.2c0,0.1,0,0.1,0,0.1s0,0.1,0.1,0.1H84h0.1h0.1
			v0.3c-0.1,0-0.1,0-0.2,0c-0.1,0-0.1,0-0.2,0c-0.1,0-0.2,0-0.3,0c-0.1,0-0.2-0.1-0.2-0.1c-0.1-0.1-0.1-0.1-0.1-0.2
			c0-0.1,0-0.2,0-0.2v-1.2h-0.3L83,28.3L83,28.3z"/>
		<path class="st0" d="M84.5,28.3H85v0.4l0,0c0-0.1,0-0.1,0.1-0.2c0-0.1,0.1-0.1,0.2-0.2c0.1-0.1,0.1-0.1,0.2-0.1c0.1,0,0.2,0,0.2,0
			c0.1,0,0.1,0,0.1,0s0,0,0.1,0v0.4h-0.1h-0.1c-0.1,0-0.2,0-0.2,0.1c-0.1,0-0.2,0.1-0.2,0.2c0,0.1-0.1,0.2-0.1,0.2S85,29.4,85,29.5
			v1h-0.5L84.5,28.3L84.5,28.3z"/>
		<path class="st0" d="M85.7,28.3h0.5l0.6,1.6l0,0l0.5-1.6h0.5l-0.8,2.2c0,0.1-0.1,0.2-0.1,0.2c0,0.1-0.1,0.2-0.2,0.2
			c-0.1,0.1-0.1,0.1-0.2,0.2c-0.1,0.1-0.2,0.1-0.3,0.1c-0.1,0-0.2,0-0.3,0v-0.4h0.1H86c0.1,0,0.1,0,0.2,0c0,0,0.1,0,0.1-0.1l0.1-0.1
			c0,0,0-0.1,0.1-0.1l0.1-0.2L85.7,28.3z"/>
		<path class="st0" d="M89.6,27.6h0.5l1.1,2.9h-0.6l-0.2-0.7h-1.1l-0.2,0.7h-0.5L89.6,27.6z M89.5,29.3h0.9L90,28l0,0L89.5,29.3z"/>
		<path class="st0" d="M91.8,29.8c0,0.2,0.1,0.2,0.2,0.2c0.1,0.1,0.2,0.1,0.3,0.1c0.1,0,0.1,0,0.2,0c0.1,0,0.1,0,0.2,0
			s0.1-0.1,0.1-0.1s0.1-0.1,0.1-0.2c0-0.1,0-0.1-0.1-0.2c0,0-0.1-0.1-0.2-0.1c-0.1,0-0.2-0.1-0.2-0.1s-0.2,0-0.2-0.1
			c-0.1,0-0.2,0-0.2-0.1c-0.1,0-0.2-0.1-0.2-0.1c-0.1-0.1-0.1-0.1-0.2-0.2c0-0.1-0.1-0.2-0.1-0.2c0-0.1,0-0.2,0.1-0.2
			c0.1-0.1,0.2-0.2,0.2-0.2c0.1-0.1,0.2-0.1,0.2-0.1c0.1,0,0.2,0,0.3,0c0.1,0,0.2,0,0.3,0c0.1,0,0.2,0.1,0.2,0.1
			c0.1,0,0.2,0.1,0.2,0.2c0,0.1,0.1,0.2,0.1,0.3h-0.5c0-0.1-0.1-0.2-0.2-0.2c-0.1,0-0.2-0.1-0.2-0.1h-0.1c-0.1,0-0.1,0-0.2,0
			c0,0-0.1,0-0.1,0.1v0.1c0,0.1,0,0.1,0.1,0.2c0,0,0.1,0.1,0.2,0.1c0.1,0,0.2,0.1,0.2,0.1s0.2,0,0.2,0.1c0.1,0,0.2,0.1,0.2,0.1
			s0.2,0.1,0.2,0.1c0.1,0.1,0.1,0.1,0.2,0.2c0,0.1,0.1,0.2,0.1,0.2s0,0.2-0.1,0.3c-0.1,0.1-0.2,0.2-0.2,0.2
			c-0.1,0.1-0.2,0.1-0.3,0.1c-0.1,0-0.2,0-0.3,0c-0.2,0-0.2,0-0.3-0.1c-0.1,0-0.2-0.1-0.3-0.2c-0.1-0.1-0.2-0.2-0.2-0.2
			c-0.1-0.1-0.1-0.2-0.1-0.3h0.4V29.8z"/>
		<path class="st0" d="M93.9,29.8c0,0.2,0.1,0.2,0.2,0.2c0.1,0.1,0.2,0.1,0.3,0.1c0.1,0,0.1,0,0.2,0c0.1,0,0.1,0,0.2,0
			c0.1,0,0.1-0.1,0.1-0.1s0.1-0.1,0.1-0.2c0-0.1,0-0.1-0.1-0.2c0,0-0.1-0.1-0.2-0.1s-0.2-0.1-0.2-0.1c-0.1,0-0.2,0-0.2-0.1
			c-0.1,0-0.2,0-0.2-0.1c-0.1,0-0.2-0.1-0.2-0.1c-0.1-0.1-0.1-0.1-0.2-0.2c0-0.1-0.1-0.2-0.1-0.2c0-0.1,0-0.2,0.1-0.2
			c0.1-0.1,0.2-0.2,0.2-0.2c0.1-0.1,0.2-0.1,0.2-0.1s0.2,0,0.3,0c0.1,0,0.2,0,0.3,0s0.2,0.1,0.2,0.1c0.1,0.1,0.2,0.1,0.2,0.2
			c0.1,0.1,0.1,0.2,0.1,0.3h-0.5c0-0.1-0.1-0.2-0.2-0.2c-0.1,0-0.2-0.1-0.2-0.1h-0.1c-0.1,0-0.1,0-0.2,0c0,0-0.1,0-0.1,0.1v0.1
			c0,0.1,0,0.1,0.1,0.2c0,0,0.1,0.1,0.2,0.1s0.2,0.1,0.2,0.1c0.1,0,0.2,0,0.2,0.1c0.1,0,0.2,0.1,0.2,0.1c0.1,0,0.2,0.1,0.2,0.1
			c0.1,0.1,0.1,0.1,0.2,0.2c0,0.1,0.1,0.2,0.1,0.2s0,0.2-0.1,0.3c-0.1,0.1-0.2,0.2-0.2,0.2c-0.1,0.1-0.2,0.1-0.3,0.1
			c-0.1,0-0.2,0-0.3,0c-0.2,0-0.2,0-0.3-0.1c-0.1,0-0.2-0.1-0.3-0.2c-0.1-0.1-0.2-0.2-0.2-0.2c-0.1-0.1-0.1-0.2-0.1-0.3h0.4V29.8z"
			/>
		<path class="st0" d="M96.6,30.4c-0.2,0-0.3,0-0.4-0.1c-0.1-0.1-0.2-0.2-0.3-0.2c-0.1-0.1-0.2-0.2-0.2-0.3
			c-0.1-0.2-0.1-0.2-0.1-0.4c0-0.2,0-0.3,0.1-0.4c0.1-0.2,0.1-0.2,0.2-0.3c0.1-0.1,0.2-0.2,0.3-0.2c0.2-0.1,0.2-0.1,0.4-0.1
			c0.2,0,0.3,0,0.4,0.1c0.2,0.1,0.2,0.2,0.3,0.2c0.1,0.1,0.2,0.2,0.2,0.3c0.1,0.2,0.1,0.2,0.1,0.4c0,0.2,0,0.3-0.1,0.4
			c-0.1,0.2-0.1,0.2-0.2,0.3c-0.1,0.1-0.2,0.2-0.3,0.2C96.9,30.4,96.8,30.4,96.6,30.4z M96.6,30.1c0.1,0,0.2,0,0.2-0.1
			c0.1-0.1,0.2-0.1,0.2-0.2c0.1-0.1,0.1-0.2,0.1-0.2c0-0.1,0-0.2,0-0.2c0-0.1,0-0.2,0-0.2c0-0.1-0.1-0.2-0.1-0.2
			c-0.1-0.1-0.1-0.2-0.2-0.2c-0.1,0-0.2-0.1-0.2-0.1s-0.2,0-0.2,0.1c-0.1,0.1-0.2,0.1-0.2,0.2c-0.1,0.1-0.1,0.2-0.1,0.2s0,0.2,0,0.2
			c0,0.1,0,0.2,0,0.2c0,0.1,0.1,0.2,0.1,0.2c0,0.1,0.1,0.2,0.2,0.2C96.3,30.1,96.4,30.1,96.6,30.1z"/>
		<path class="st0" d="M99.4,29c0-0.2-0.1-0.2-0.2-0.3c-0.1-0.1-0.2-0.1-0.3-0.1c-0.1,0-0.1,0-0.2,0c-0.1,0-0.2,0.1-0.2,0.1
			c-0.1,0.1-0.1,0.2-0.2,0.2c0,0.1-0.1,0.2-0.1,0.4c0,0.1,0,0.2,0,0.2c0,0.1,0.1,0.2,0.1,0.2c0,0.1,0.1,0.1,0.2,0.2
			c0.1,0,0.2,0.1,0.2,0.1c0.2,0,0.2,0,0.3-0.2c0.1-0.1,0.2-0.2,0.2-0.3h0.5c-0.1,0.2-0.2,0.5-0.3,0.7c-0.2,0.2-0.4,0.2-0.7,0.2
			c-0.2,0-0.3,0-0.4-0.1c-0.2-0.1-0.2-0.2-0.3-0.2c-0.1-0.1-0.2-0.2-0.2-0.3s-0.1-0.2-0.1-0.4c0-0.2,0-0.3,0.1-0.4
			c0.1-0.2,0.1-0.2,0.2-0.3c0.1-0.1,0.2-0.2,0.3-0.2c0.2-0.1,0.2-0.1,0.4-0.1c0.1,0,0.2,0,0.3,0.1c0.1,0,0.2,0.1,0.3,0.2
			c0.1,0.1,0.2,0.2,0.2,0.2s0.1,0.2,0.1,0.3h-0.4V29z"/>
		<path class="st0" d="M100.2,27.6h0.5V28h-0.5V27.6z M100.2,28.3h0.5v2h-0.5V28.3z"/>
		<path class="st0" d="M100.9,28.3h0.3v-0.7h0.5v0.7h0.4v0.4h-0.4v1.1c0,0.1,0,0.1,0,0.2c0,0.1,0,0.1,0,0.1s0,0.1,0.1,0.1h0.1h0.1
			h0.1v0.3c-0.1,0-0.1,0-0.2,0c-0.1,0-0.1,0-0.2,0c-0.1,0-0.2,0-0.3,0c-0.1,0-0.2-0.1-0.2-0.1c-0.1-0.1-0.1-0.1-0.1-0.2
			c0-0.1,0-0.2,0-0.2v-1.2h-0.3L100.9,28.3L100.9,28.3z"/>
		<path class="st0" d="M104.2,29.9C104.2,30,104.2,30,104.2,29.9L104.2,29.9c0.1,0.1,0.1,0.1,0.2,0.1c0.1,0,0,0,0.1,0v0.3
			c0,0,0,0-0.1,0h-0.1h-0.1h-0.1c-0.1,0-0.2,0-0.2-0.1c-0.1,0-0.1-0.1-0.1-0.2c-0.1,0.1-0.2,0.2-0.3,0.2s-0.2,0.1-0.4,0.1
			c-0.1,0-0.2,0-0.2,0c-0.1,0-0.2-0.1-0.2-0.1c-0.1-0.1-0.1-0.1-0.2-0.2c0-0.1-0.1-0.2-0.1-0.2c0-0.2,0-0.2,0.1-0.3
			c0.1-0.1,0.1-0.2,0.2-0.2c0.1-0.1,0.2-0.1,0.2-0.1s0.2,0,0.2-0.1c0.1,0,0.2,0,0.2,0s0.2,0,0.2,0c0.1,0,0.1,0,0.2-0.1
			c0,0,0.1-0.1,0.1-0.2s0-0.1-0.1-0.2l-0.1-0.1c0,0-0.1,0-0.2,0c-0.1,0-0.1,0-0.2,0c-0.2,0-0.2,0-0.3,0.1c-0.1,0.1-0.2,0.2-0.2,0.2
			h-0.5c0-0.2,0-0.2,0.1-0.3s0.2-0.2,0.2-0.2c0.1-0.1,0.2-0.1,0.3-0.1c0.1,0,0.2,0,0.3,0c0.1,0,0.2,0,0.3,0c0.1,0,0.2,0.1,0.2,0.1
			s0.2,0.1,0.2,0.2c0,0.1,0.1,0.2,0.1,0.2v1.1H104.2z M103.8,29.4c-0.1,0.1-0.2,0.1-0.2,0.1c-0.1,0-0.2,0-0.3,0.1
			c-0.1,0-0.1,0-0.2,0c-0.1,0-0.1,0-0.1,0.1l-0.1,0.1c0,0.1,0,0.1,0,0.2c0,0.1,0,0.1,0.1,0.2l0.1,0.1c0,0,0.1,0,0.2,0.1
			c0.1,0,0.1,0,0.2,0c0.1,0,0.1,0,0.2,0c0.1,0,0.1,0,0.2-0.1c0.1,0,0.1-0.1,0.2-0.1c0-0.1,0.1-0.1,0.1-0.2v-0.5H103.8z"/>
		<path class="st0" d="M104.5,28.3h0.3v-0.7h0.5v0.7h0.4v0.4h-0.4v1.1c0,0.1,0,0.1,0,0.2c0,0.1,0,0.1,0,0.1s0,0.1,0.1,0.1h0.1h0.1
			h0.1v0.3c-0.1,0-0.1,0-0.2,0c-0.1,0-0.1,0-0.2,0c-0.1,0-0.2,0-0.3,0c-0.1,0-0.2-0.1-0.2-0.1c-0.1-0.1-0.1-0.1-0.1-0.2s0-0.2,0-0.2
			v-1.2h-0.3L104.5,28.3L104.5,28.3z"/>
		<path class="st0" d="M106.1,27.6h0.5V28h-0.5V27.6z M106.1,28.3h0.5v2h-0.5V28.3z"/>
		<path class="st0" d="M108,30.4c-0.2,0-0.3,0-0.4-0.1c-0.1-0.1-0.2-0.2-0.3-0.2c-0.1-0.1-0.2-0.2-0.2-0.3c-0.1-0.2-0.1-0.2-0.1-0.4
			c0-0.2,0-0.3,0.1-0.4c0.1-0.2,0.1-0.2,0.2-0.3c0.1-0.1,0.2-0.2,0.3-0.2c0.2-0.1,0.2-0.1,0.4-0.1s0.3,0,0.4,0.1
			c0.2,0.1,0.2,0.2,0.3,0.2c0.1,0.1,0.2,0.2,0.2,0.3c0.1,0.2,0.1,0.2,0.1,0.4c0,0.2,0,0.3-0.1,0.4c-0.1,0.2-0.1,0.2-0.2,0.3
			c-0.1,0.1-0.2,0.2-0.3,0.2C108.3,30.4,108.2,30.4,108,30.4z M108,30.1c0.1,0,0.2,0,0.2-0.1c0.1-0.1,0.2-0.1,0.2-0.2
			c0.1-0.1,0.1-0.2,0.1-0.2c0-0.1,0-0.2,0-0.2c0-0.1,0-0.2,0-0.2c0-0.1-0.1-0.2-0.1-0.2c-0.1-0.1-0.1-0.2-0.2-0.2s-0.2-0.1-0.2-0.1
			c-0.1,0-0.2,0-0.2,0.1c-0.1,0.1-0.2,0.1-0.2,0.2c-0.1,0.1-0.1,0.2-0.1,0.2s0,0.2,0,0.2c0,0.1,0,0.2,0,0.2c0,0.1,0.1,0.2,0.1,0.2
			c0,0.1,0.1,0.2,0.2,0.2C107.8,30.1,107.9,30.1,108,30.1z"/>
		<path class="st0" d="M109.4,28.3h0.4v0.3l0,0c0.1-0.1,0.2-0.2,0.2-0.2s0.2-0.1,0.4-0.1c0.2,0,0.4,0.1,0.6,0.2
			c0.2,0.1,0.2,0.3,0.2,0.5v1.4h-0.5V29c0-0.2,0-0.2-0.1-0.3c-0.1-0.1-0.2-0.1-0.3-0.1c-0.1,0-0.2,0-0.2,0.1c-0.1,0-0.1,0.1-0.2,0.1
			c-0.1,0.1-0.1,0.1-0.1,0.2c0,0.1,0,0.2,0,0.2v1.2h-0.5L109.4,28.3L109.4,28.3z"/>
	</g>
</g>
</svg>
