<?xml version="1.0" encoding="utf-8"?>
<!-- Generator: Adobe Illustrator 27.2.0, SVG Export Plug-In . SVG Version: 6.00 Build 0)  -->
<svg version="1.1" id="Layer_1" xmlns="http://www.w3.org/2000/svg" xmlns:xlink="http://www.w3.org/1999/xlink" x="0px" y="0px"
	 viewBox="0 0 154 36" style="enable-background:new 0 0 154 36;" xml:space="preserve">
<style type="text/css">
	.st0{fill:#666666;}
	.st1{enable-background:new    ;}
</style>
<g id="g19664" transform="translate(-0.18258802)">
	<path id="path28" class="st0" d="M72.3,8c0,0.6-0.1,1.2-0.3,1.7s-0.5,0.8-0.9,1.1c-0.4,0.2-0.9,0.4-1.4,0.4c-0.8,0-1.5-0.3-1.9-0.9
		c-0.5-0.6-0.7-1.3-0.7-2.3V7.2c0-0.6,0.1-1.2,0.3-1.7c0.2-0.5,0.5-0.8,0.9-1.1C68.6,4.2,69.1,4,69.6,4c0.5,0,1,0.1,1.4,0.4
		C71.4,4.7,71.7,5,72,5.5c0.2,0.5,0.3,1,0.3,1.6L72.3,8z M71.7,7.2c0-0.8-0.2-1.5-0.6-1.9c-0.4-0.5-0.9-0.7-1.5-0.7
		c-0.6,0-1.1,0.2-1.5,0.7c-0.4,0.5-0.6,1.1-0.6,2V8c0,0.8,0.2,1.5,0.6,1.9c0.4,0.5,0.9,0.7,1.5,0.7c0.7,0,1.2-0.2,1.5-0.7
		c0.4-0.5,0.5-1.1,0.5-2L71.7,7.2L71.7,7.2z"/>
	<path id="path30" class="st0" d="M77.7,8.5c0,0.8-0.2,1.4-0.5,1.9c-0.3,0.5-0.8,0.7-1.4,0.7c-0.7,0-1.2-0.3-1.6-0.8l0,0.7h-0.5V3.8
		h0.6v2.9c0.3-0.5,0.9-0.8,1.6-0.8c0.6,0,1.1,0.2,1.4,0.7C77.5,7,77.7,7.6,77.7,8.5L77.7,8.5L77.7,8.5z M77.1,8.4
		c0-0.7-0.1-1.2-0.4-1.6c-0.3-0.4-0.6-0.5-1.1-0.5c-0.4,0-0.7,0.1-0.9,0.3s-0.4,0.4-0.6,0.8v2.3c0.3,0.6,0.8,1,1.5,1
		c0.5,0,0.8-0.2,1.1-0.5C77,9.7,77.1,9.2,77.1,8.4z"/>
	<path id="path32" class="st0" d="M79.3,5.9v5.8c0,0.5-0.1,0.8-0.3,1.1c-0.2,0.2-0.6,0.4-1,0.4c-0.2,0-0.3,0-0.5-0.1v-0.5
		c0.1,0,0.3,0,0.4,0c0.6,0,0.8-0.3,0.8-1V5.9H79.3z M79.1,4.1c0.1,0,0.2,0,0.3,0.1c0.1,0.1,0.1,0.2,0.1,0.3s0,0.2-0.1,0.3
		c-0.1,0.1-0.2,0.1-0.3,0.1s-0.2,0-0.3-0.1c-0.1-0.1-0.1-0.1-0.1-0.3c0-0.1,0-0.2,0.1-0.3C78.9,4.1,78.9,4.1,79.1,4.1z"/>
	<path id="path34" class="st0" d="M82.7,11.2c-0.4,0-0.8-0.1-1.2-0.3c-0.3-0.2-0.6-0.5-0.8-0.9s-0.3-0.8-0.3-1.3V8.4
		c0-0.5,0.1-0.9,0.3-1.3c0.2-0.4,0.4-0.7,0.8-0.9c0.3-0.2,0.7-0.3,1.1-0.3c0.6,0,1.1,0.2,1.5,0.6c0.4,0.4,0.5,1,0.5,1.7v0.3H81v0.1
		c0,0.6,0.2,1.1,0.5,1.4c0.3,0.4,0.7,0.6,1.3,0.6c0.3,0,0.6,0,0.8-0.2c0.2-0.1,0.4-0.3,0.6-0.5l0.3,0.3
		C84.1,10.8,83.5,11.2,82.7,11.2L82.7,11.2z M82.6,6.3c-0.4,0-0.8,0.1-1.1,0.5C81.2,7.1,81.1,7.5,81,8h3.1v0c0-0.5-0.1-0.9-0.4-1.2
		C83.4,6.5,83,6.3,82.6,6.3z"/>
	<path id="path36" class="st0" d="M87.6,10.7c0.4,0,0.7-0.1,1-0.3S89,9.8,89,9.5h0.5c0,0.3-0.1,0.6-0.3,0.8
		c-0.2,0.2-0.4,0.4-0.7,0.6c-0.3,0.1-0.6,0.2-1,0.2c-0.7,0-1.2-0.2-1.6-0.7c-0.4-0.5-0.6-1.1-0.6-1.9V8.4c0-0.5,0.1-0.9,0.3-1.3
		c0.2-0.4,0.4-0.7,0.8-0.9c0.3-0.2,0.7-0.3,1.2-0.3c0.6,0,1,0.2,1.4,0.5c0.4,0.3,0.5,0.8,0.6,1.3H89c0-0.4-0.2-0.7-0.4-1
		c-0.3-0.2-0.6-0.4-1-0.4c-0.5,0-0.9,0.2-1.2,0.5C86.1,7.2,86,7.8,86,8.4v0.2c0,0.6,0.1,1.2,0.4,1.5C86.7,10.5,87.1,10.7,87.6,10.7z
		"/>
	<path id="path38" class="st0" d="M91.5,4.6v1.3h1.1v0.5h-1.1v3.4c0,0.3,0,0.5,0.1,0.6c0.1,0.1,0.3,0.2,0.5,0.2c0.1,0,0.2,0,0.4,0
		l0,0.5c-0.1,0-0.3,0.1-0.6,0.1c-0.4,0-0.7-0.1-0.8-0.3c-0.2-0.2-0.3-0.5-0.3-1V6.4h-0.9V5.9h0.9V4.6H91.5z"/>
	<path id="path40" class="st0" d="M93.4,4.4c0-0.1,0-0.2,0.1-0.3c0.1-0.1,0.2-0.1,0.3-0.1c0.1,0,0.2,0,0.3,0.1
		c0.1,0.1,0.1,0.2,0.1,0.3c0,0.1,0,0.2-0.1,0.3s-0.2,0.1-0.3,0.1c-0.1,0-0.2,0-0.3-0.1C93.5,4.6,93.4,4.6,93.4,4.4z M94.1,11.1h-0.6
		V5.9h0.6V11.1z"/>
	<path id="path42" class="st0" d="M97.1,10.3l1.6-4.4h0.6L97.3,11h-0.4l-1.9-5.1h0.6L97.1,10.3z"/>
	<path id="path44" class="st0" d="M101.8,11.2c-0.4,0-0.8-0.1-1.2-0.3c-0.3-0.2-0.6-0.5-0.8-0.9s-0.3-0.8-0.3-1.3V8.4
		c0-0.5,0.1-0.9,0.3-1.3c0.2-0.4,0.4-0.7,0.8-0.9c0.3-0.2,0.7-0.3,1.1-0.3c0.6,0,1.1,0.2,1.5,0.6c0.4,0.4,0.5,1,0.5,1.7v0.3h-3.7
		v0.1c0,0.6,0.2,1.1,0.5,1.4c0.3,0.4,0.7,0.6,1.3,0.6c0.3,0,0.6,0,0.8-0.2c0.2-0.1,0.4-0.3,0.6-0.5l0.3,0.3
		C103.2,10.8,102.6,11.2,101.8,11.2L101.8,11.2z M101.7,6.3c-0.4,0-0.8,0.1-1.1,0.5c-0.3,0.3-0.5,0.7-0.5,1.3h3.1v0
		c0-0.5-0.1-0.9-0.4-1.2C102.5,6.5,102.2,6.3,101.7,6.3z"/>
	<path id="path48" class="st0" d="M68,14.1l2.5,6.1l2.6-6.1h0.8V21h-0.6v-3l0-3.1L70.8,21h-0.4l-2.6-6.1l0,3v3h-0.6v-6.9H68z"/>
	<path id="path50" class="st0" d="M78.6,21c0-0.1-0.1-0.4-0.1-0.7c-0.2,0.2-0.4,0.4-0.8,0.6c-0.3,0.1-0.6,0.2-1,0.2
		c-0.5,0-0.9-0.1-1.2-0.4s-0.4-0.6-0.4-1c0-0.5,0.2-0.9,0.6-1.2s1-0.4,1.7-0.4h1v-0.6c0-0.4-0.1-0.6-0.3-0.9c-0.2-0.2-0.5-0.3-1-0.3
		c-0.4,0-0.7,0.1-1,0.3s-0.4,0.4-0.4,0.7h-0.6c0-0.4,0.2-0.8,0.6-1.1c0.4-0.3,0.8-0.4,1.4-0.4c0.6,0,1,0.1,1.3,0.4
		c0.3,0.3,0.5,0.7,0.5,1.2v2.4c0,0.5,0,0.9,0.1,1.1v0L78.6,21L78.6,21z M76.8,20.6c0.4,0,0.7-0.1,1-0.3c0.3-0.2,0.5-0.4,0.6-0.7
		v-1.1h-1c-0.6,0-1,0.1-1.3,0.3c-0.3,0.2-0.5,0.5-0.5,0.8c0,0.3,0.1,0.5,0.3,0.7C76.2,20.5,76.4,20.6,76.8,20.6L76.8,20.6z"/>
	<path id="path52" class="st0" d="M80.9,15.9l0,0.9c0.2-0.3,0.4-0.5,0.7-0.7c0.3-0.2,0.6-0.2,0.9-0.2c0.5,0,1,0.1,1.2,0.5
		c0.2,0.3,0.4,0.8,0.4,1.4V21h-0.6v-3.4c0-0.4-0.1-0.8-0.3-1s-0.5-0.3-0.9-0.3c-0.3,0-0.7,0.1-0.9,0.3c-0.3,0.2-0.5,0.5-0.6,0.9V21
		h-0.6v-5.1H80.9z"/>
	<path id="path54" class="st0" d="M88.7,21c0-0.1-0.1-0.4-0.1-0.7c-0.2,0.2-0.4,0.4-0.8,0.6c-0.3,0.1-0.6,0.2-1,0.2
		c-0.5,0-0.9-0.1-1.2-0.4s-0.4-0.6-0.4-1c0-0.5,0.2-0.9,0.6-1.2c0.4-0.3,1-0.4,1.7-0.4h1v-0.6c0-0.4-0.1-0.6-0.3-0.9
		c-0.2-0.2-0.5-0.3-1-0.3c-0.4,0-0.7,0.1-1,0.3c-0.2,0.2-0.4,0.4-0.4,0.7h-0.6c0-0.4,0.2-0.8,0.6-1.1c0.4-0.3,0.8-0.4,1.4-0.4
		c0.6,0,1,0.1,1.3,0.4c0.3,0.3,0.5,0.7,0.5,1.2v2.4c0,0.5,0,0.9,0.1,1.1v0L88.7,21L88.7,21z M86.9,20.6c0.4,0,0.7-0.1,1-0.3
		c0.3-0.2,0.5-0.4,0.6-0.7v-1.1h-1c-0.6,0-1,0.1-1.3,0.3c-0.3,0.2-0.5,0.5-0.5,0.8c0,0.3,0.1,0.5,0.3,0.7
		C86.3,20.5,86.6,20.6,86.9,20.6L86.9,20.6z"/>
	<path id="path56" class="st0" d="M90.3,18.4c0-0.8,0.2-1.4,0.5-1.9c0.3-0.5,0.8-0.7,1.4-0.7c0.7,0,1.2,0.3,1.6,0.8l0-0.7h0.5v5
		c0,0.7-0.2,1.2-0.5,1.6c-0.4,0.4-0.9,0.6-1.5,0.6c-0.3,0-0.7-0.1-1-0.2c-0.3-0.1-0.6-0.4-0.8-0.6l0.3-0.3c0.4,0.5,0.9,0.7,1.4,0.7
		c0.5,0,0.8-0.1,1.1-0.4c0.3-0.3,0.4-0.7,0.4-1.2v-0.6c-0.4,0.5-0.9,0.7-1.6,0.7c-0.6,0-1.1-0.2-1.4-0.7
		C90.4,19.9,90.3,19.3,90.3,18.4L90.3,18.4z M90.8,18.5c0,0.6,0.1,1.2,0.4,1.5s0.6,0.6,1.1,0.6c0.7,0,1.2-0.3,1.5-0.9v-2.4
		c-0.1-0.3-0.3-0.6-0.6-0.7s-0.5-0.2-0.9-0.2c-0.5,0-0.8,0.2-1.1,0.6C91,17.2,90.8,17.8,90.8,18.5z"/>
	<path id="path58" class="st0" d="M97.7,21.1c-0.4,0-0.8-0.1-1.2-0.3c-0.3-0.2-0.6-0.5-0.8-0.9c-0.2-0.4-0.3-0.8-0.3-1.3v-0.2
		c0-0.5,0.1-0.9,0.3-1.3c0.2-0.4,0.4-0.7,0.8-0.9c0.3-0.2,0.7-0.3,1.1-0.3c0.6,0,1.1,0.2,1.5,0.6c0.4,0.4,0.5,1,0.5,1.7v0.3H96v0.1
		c0,0.6,0.2,1.1,0.5,1.4c0.3,0.4,0.7,0.6,1.3,0.6c0.3,0,0.6,0,0.8-0.2c0.2-0.1,0.4-0.3,0.6-0.5l0.3,0.3
		C99.1,20.8,98.5,21.1,97.7,21.1L97.7,21.1z M97.6,16.3c-0.4,0-0.8,0.1-1.1,0.5c-0.3,0.3-0.5,0.7-0.5,1.3h3.1v0
		c0-0.5-0.1-0.9-0.4-1.2S98.1,16.3,97.6,16.3z"/>
	<path id="path60" class="st0" d="M101.2,15.9l0,0.8c0.2-0.3,0.4-0.5,0.7-0.7c0.3-0.1,0.6-0.2,0.9-0.2c0.8,0,1.3,0.3,1.5,1
		c0.2-0.3,0.4-0.6,0.7-0.7c0.3-0.2,0.6-0.2,1-0.2c1.1,0,1.7,0.6,1.7,1.8V21h-0.6v-3.4c0-0.4-0.1-0.8-0.3-1c-0.2-0.2-0.5-0.3-0.9-0.3
		c-0.4,0-0.7,0.1-1,0.4c-0.3,0.2-0.4,0.6-0.5,0.9V21H104v-3.4c0-0.4-0.1-0.8-0.3-1c-0.2-0.2-0.5-0.3-0.9-0.3c-0.3,0-0.7,0.1-0.9,0.3
		c-0.2,0.2-0.4,0.5-0.6,0.9V21h-0.6v-5.1L101.2,15.9L101.2,15.9z"/>
	<path id="path62" class="st0" d="M111.1,21.1c-0.4,0-0.8-0.1-1.2-0.3c-0.3-0.2-0.6-0.5-0.8-0.9s-0.3-0.8-0.3-1.3v-0.2
		c0-0.5,0.1-0.9,0.3-1.3c0.2-0.4,0.4-0.7,0.8-0.9c0.3-0.2,0.7-0.3,1.1-0.3c0.6,0,1.1,0.2,1.5,0.6c0.4,0.4,0.5,1,0.5,1.7v0.3h-3.7
		v0.1c0,0.6,0.2,1.1,0.5,1.4c0.3,0.4,0.7,0.6,1.3,0.6c0.3,0,0.6,0,0.8-0.2c0.2-0.1,0.4-0.3,0.6-0.5l0.3,0.3
		C112.5,20.8,111.9,21.1,111.1,21.1z M111,16.3c-0.4,0-0.8,0.1-1.1,0.5c-0.3,0.3-0.5,0.7-0.5,1.3h3.1v0c0-0.5-0.1-0.9-0.4-1.2
		S111.5,16.3,111,16.3z"/>
	<path id="path64" class="st0" d="M114.6,15.9l0,0.9c0.2-0.3,0.4-0.5,0.7-0.7c0.3-0.2,0.6-0.2,0.9-0.2c0.5,0,1,0.1,1.2,0.5
		c0.2,0.3,0.4,0.8,0.4,1.4V21h-0.6v-3.4c0-0.4-0.1-0.8-0.3-1c-0.2-0.2-0.5-0.3-0.9-0.3c-0.3,0-0.7,0.1-0.9,0.3
		c-0.3,0.2-0.5,0.5-0.6,0.9V21H114v-5.1H114.6z"/>
	<path id="path66" class="st0" d="M120.1,14.6v1.3h1.1v0.5h-1.1v3.4c0,0.3,0,0.5,0.1,0.6c0.1,0.1,0.3,0.2,0.5,0.2c0.1,0,0.2,0,0.4,0
		l0,0.5c-0.1,0-0.3,0.1-0.6,0.1c-0.4,0-0.7-0.1-0.8-0.3c-0.2-0.2-0.3-0.5-0.3-1v-3.4h-0.9v-0.5h0.9v-1.3L120.1,14.6z"/>
	<g id="g80" transform="matrix(1.0247652,0,0,1.0247652,-102.90872,-143.87703)" class="st1">
		<path id="path70" class="st0" d="M170.9,169.8c-0.2,0.3-0.5,0.5-0.9,0.7c-0.4,0.1-0.9,0.2-1.4,0.2c-0.5,0-1-0.1-1.4-0.4
			c-0.4-0.3-0.7-0.6-0.9-1.1s-0.3-1-0.3-1.6v-0.9c0-0.9,0.2-1.7,0.7-2.2c0.5-0.5,1.1-0.8,1.9-0.8c0.7,0,1.3,0.2,1.7,0.5
			c0.4,0.4,0.7,0.9,0.8,1.5h-0.6c-0.1-0.5-0.3-0.9-0.6-1.1c-0.3-0.3-0.7-0.4-1.3-0.4c-0.6,0-1.1,0.2-1.5,0.7
			c-0.4,0.4-0.6,1.1-0.6,1.9v0.8c0,0.5,0.1,1,0.3,1.4c0.2,0.4,0.4,0.7,0.8,0.9c0.3,0.2,0.7,0.3,1.1,0.3c0.5,0,0.9-0.1,1.3-0.2
			c0.2-0.1,0.4-0.2,0.5-0.4v-1.8h-1.8v-0.5h2.4L170.9,169.8z"/>
		<path id="path72" class="st0" d="M174.5,166.1c-0.1,0-0.2,0-0.4,0c-0.3,0-0.6,0.1-0.9,0.3s-0.4,0.5-0.5,0.9v3.4h-0.6v-5h0.5v0.8
			c0.3-0.6,0.8-0.9,1.4-0.9c0.1,0,0.3,0,0.4,0V166.1z"/>
		<path id="path74" class="st0" d="M174.8,168.1c0-0.5,0.1-0.9,0.3-1.3c0.2-0.4,0.5-0.7,0.8-0.9c0.3-0.2,0.7-0.3,1.2-0.3
			c0.7,0,1.2,0.2,1.6,0.7c0.4,0.5,0.6,1.1,0.6,1.8v0.1c0,0.5-0.1,0.9-0.3,1.3c-0.2,0.4-0.5,0.7-0.8,0.9c-0.3,0.2-0.7,0.3-1.2,0.3
			c-0.7,0-1.2-0.2-1.6-0.7c-0.4-0.5-0.6-1.1-0.6-1.8L174.8,168.1L174.8,168.1z M175.4,168.2c0,0.6,0.1,1.1,0.5,1.5
			c0.3,0.4,0.7,0.6,1.2,0.6s0.9-0.2,1.2-0.6c0.3-0.4,0.5-0.9,0.5-1.5v-0.1c0-0.4-0.1-0.7-0.2-1c-0.1-0.3-0.3-0.6-0.6-0.7
			c-0.3-0.2-0.6-0.3-0.9-0.3c-0.5,0-0.9,0.2-1.2,0.6C175.5,167,175.4,167.5,175.4,168.2L175.4,168.2L175.4,168.2z"/>
		<path id="path76" class="st0" d="M183.5,170c-0.3,0.5-0.9,0.7-1.6,0.7c-0.5,0-0.9-0.1-1.2-0.5c-0.3-0.3-0.4-0.8-0.4-1.4v-3.3h0.6
			v3.2c0,0.9,0.4,1.4,1.2,1.4c0.8,0,1.3-0.3,1.5-1v-3.6h0.6v5h-0.5L183.5,170z"/>
		<path id="path78" class="st0" d="M189.4,168.2c0,0.8-0.2,1.4-0.5,1.8c-0.3,0.5-0.8,0.7-1.4,0.7c-0.7,0-1.2-0.2-1.6-0.7v2.6h-0.6
			v-6.9h0.5l0,0.7c0.4-0.5,0.9-0.8,1.6-0.8c0.6,0,1.1,0.2,1.4,0.7C189.2,166.7,189.4,167.3,189.4,168.2L189.4,168.2z M188.8,168.1
			c0-0.6-0.1-1.1-0.4-1.5c-0.3-0.4-0.6-0.6-1.1-0.6c-0.3,0-0.6,0.1-0.9,0.2c-0.2,0.2-0.4,0.4-0.6,0.7v2.4c0.1,0.3,0.3,0.5,0.6,0.7
			s0.5,0.2,0.9,0.2c0.5,0,0.8-0.2,1.1-0.6C188.7,169.3,188.8,168.8,188.8,168.1L188.8,168.1z"/>
	</g>
</g>
<path class="st0" d="M46.8,32.9c-5.1,0-9.9-2.7-12.6-7.3c-3.5-6.1-2.2-13.9,3.3-18.5c0.3-0.3,0.8-0.2,1,0.1s0.2,0.8-0.1,1
	c-4.9,4.1-6.1,11.1-2.9,16.6c3.2,5.5,9.9,8,15.9,5.8c6-2.2,9.5-8.3,8.4-14.6C58.6,9.8,53.2,5.2,46.8,5.2c-0.4,0-0.7-0.3-0.7-0.7
	s0.3-0.7,0.7-0.7c7.1,0,13.1,5.1,14.4,12.1c1.2,7-2.7,13.8-9.4,16.2C50.1,32.6,48.4,32.9,46.8,32.9z"/>
<path class="st0" d="M46.8,28.6c-3.6,0-7-1.9-8.8-5.1c-0.2-0.3-0.1-0.8,0.3-1c0.3-0.2,0.8-0.1,1,0.3c2.1,3.7,6.6,5.3,10.6,3.8
	c4-1.5,6.4-5.6,5.6-9.7c-0.7-4.2-4.4-7.2-8.6-7.2c-0.4,0-0.7-0.3-0.7-0.7s0.3-0.7,0.7-0.7c5,0,9.2,3.5,10.1,8.4
	c0.9,4.9-1.9,9.7-6.6,11.4C49.1,28.4,47.9,28.6,46.8,28.6z"/>
<path class="st0" d="M46.8,30.7c-2.1,0-4.3-0.5-6.2-1.7c-4.5-2.6-6.9-7.8-6-12.9c0.1-0.4,0.5-0.7,0.8-0.6c0.4,0.1,0.7,0.4,0.6,0.8
	c-0.8,4.5,1.3,9.1,5.3,11.4c4,2.3,9,1.9,12.5-1.1c3.5-2.9,4.8-7.8,3.2-12.1s-5.7-7.2-10.3-7.2c-0.4,0-0.7-0.3-0.7-0.7
	s0.3-0.7,0.7-0.7c5.2,0,9.9,3.3,11.7,8.2c1.8,4.9,0.3,10.4-3.7,13.7C52.5,29.8,49.6,30.7,46.8,30.7z"/>
</svg>
