<?xml version="1.0" encoding="utf-8"?>
<!-- Generator: Adobe Illustrator 28.0.0, SVG Export Plug-In . SVG Version: 6.00 Build 0)  -->
<svg version="1.1" id="Layer_1" xmlns="http://www.w3.org/2000/svg" xmlns:xlink="http://www.w3.org/1999/xlink" x="0px" y="0px"
	 viewBox="0 0 154 36" style="enable-background:new 0 0 154 36;" xml:space="preserve">
<style type="text/css">
	.st0{fill-rule:evenodd;clip-rule:evenodd;fill:#606060;}
	.st1{fill:#606060;}
</style>
<g>
	<path class="st0" d="M104,19.9c2.4,0,4-1.3,4-3.4c0-2-1.4-3.3-3.8-3.3h-3.6v8.9h2.2v-2.3H104z M104.1,15.2c1,0,1.6,0.5,1.6,1.3
		c0,0.9-0.6,1.4-1.6,1.4h-1.3v-2.8H104.1z"/>
	<path class="st0" d="M112.4,20.6h3.7v0l0.6,1.5h2.3l-3.7-8.9h-2.1l-3.7,8.9h2.3L112.4,20.6z M114.4,15.8l1.2,3h-2.3L114.4,15.8z"/>
	<path class="st1" d="M127.6,15.2h-2.8v6.9h-2.2v-6.9h-2.8v-2h7.8V15.2z"/>
	<path class="st1" d="M138,13.2v8.9h-2.1v-3.3h-3.5v3.3h-2.2v-8.9h2.2v3.6h3.5v-3.6H138z"/>
	<path class="st0" d="M54.7,23.4l-1.4-1.7c0.9-0.9,1.5-2.1,1.5-3.6c0-2.7-2.1-4.8-4.8-4.8c-2.7,0-4.8,2.1-4.8,4.8
		c0,2.7,2.1,4.8,4.8,4.8c0.5,0,0.9-0.1,1.3-0.2l1.8,2.2L54.7,23.4z M52.6,18.1c0,1.5-1.1,2.7-2.5,2.7c-1.5,0-2.5-1.2-2.5-2.7
		c0-1.5,1.1-2.7,2.5-2.7C51.5,15.4,52.6,16.6,52.6,18.1z"/>
	<path class="st1" d="M65.7,18.2c0,2.9-1.6,4.5-4.1,4.5c-2.5,0-4.1-1.6-4.1-4.5v-4.9h2.2v5c0,1.4,0.7,2.3,1.9,2.3
		c1.2,0,1.9-0.9,1.9-2.3v-5h2.2V18.2z"/>
	<path class="st0" d="M73.1,22.6c2.7,0,4.8-2.1,4.8-4.7l0,0c0-2.6-2.1-4.7-4.8-4.7c-2.7,0-4.8,2.1-4.8,4.7
		C68.3,20.6,70.4,22.6,73.1,22.6z M73.1,15.3c1.5,0,2.5,1.2,2.5,2.6v0c0,1.4-1.1,2.6-2.5,2.6c-1.5,0-2.5-1.2-2.5-2.6
		C70.6,16.5,71.7,15.3,73.1,15.3z"/>
	<path class="st1" d="M87.3,15.2h-2.8v6.9h-2.2v-6.9h-2.8v-2h7.8V15.2z"/>
	<path class="st0" d="M91.6,20.6h3.7v0l0.6,1.5h2.3l-3.7-8.9h-2.1l-3.7,8.9H91L91.6,20.6z M93.6,15.8l1.2,3h-2.3L93.6,15.8z"/>
	<path class="st0" d="M36.9,31.2l-5.3-1.7c0,0-0.1,0-0.1,0c-1.2,0.4-2.4,0.6-3.7,0.6C21.3,30.1,16,24.7,16,18c0-3.2,1.2-6.2,3.2-8.3
		l2.9,3.5c-1.1,1.3-1.7,3-1.7,4.8c0,4.2,3.3,7.6,7.4,7.6c1.3,0,2.6-0.4,3.7-1l2.9,3.5c0,0,0,0,0,0l0,0L36.9,31.2z"/>
	<path class="st0" d="M18.7,4.8L24,6.5c0,0,0.1,0,0.1,0c1.2-0.4,2.4-0.6,3.7-0.6c6.5,0,11.8,5.4,11.8,12.1c0,3.2-1.2,6.2-3.2,8.3
		l-2.9-3.5c1.1-1.3,1.7-3,1.7-4.8c0-4.2-3.3-7.6-7.4-7.6c-1.3,0-2.6,0.4-3.7,1l-2.9-3.5c0,0,0,0,0,0l0,0L18.7,4.8z"/>
	<path class="st0" d="M30.2,18c0,1.3-1.1,2.4-2.4,2.4c-1.3,0-2.4-1.1-2.4-2.4c0-1.3,1.1-2.4,2.4-2.4C29.1,15.6,30.2,16.7,30.2,18z"
		/>
</g>
</svg>
