<?xml version="1.0" encoding="UTF-8"?><svg id="Layer_2" xmlns="http://www.w3.org/2000/svg" viewBox="0 0 52.89 30.46"><defs><style>.cls-1{fill:#676767;}</style></defs><g id="Layer_1-2"><g id="Layer_1-2"><g><g><path class="cls-1" d="m15.79,22.21h.85l.6,1.98h0v-1.98h.68v3.05h-.83l-.64-2.11h0v2.11h-.66s0-3.05,0-3.05Z"/><path class="cls-1" d="m18.98,22.21h.92l.78,3.05h-.76l-.11-.58h-.75l-.11.58h-.76l.8-3.05h0Zm.45.56h0l-.26,1.36h.54l-.27-1.36Z"/><path class="cls-1" d="m21.14,22.79h-.66v-.58h2.05v.58h-.66v2.47h-.74v-2.47Z"/><path class="cls-1" d="m22.8,22.21h.74v3.05h-.74v-3.05Z"/><path class="cls-1" d="m25.05,25.32c-.97,0-1.1-.62-1.1-1.59s.13-1.59,1.1-1.59c1.05,0,1.1.74,1.1,1.59s-.06,1.59-1.1,1.59Zm0-.48c.3,0,.34-.27.34-1.11s-.05-1.11-.34-1.11-.33.27-.33,1.11.05,1.11.33,1.11Z"/><path class="cls-1" d="m26.54,22.21h.85l.6,1.98h0v-1.98h.68v3.05h-.83l-.64-2.11h0v2.11h-.66s0-3.05,0-3.05Z"/><path class="cls-1" d="m29.73,22.21h.92l.78,3.05h-.76l-.11-.58h-.75l-.11.58h-.76l.8-3.05h0Zm.45.56h0l-.26,1.36h.54l-.27-1.36Z"/><path class="cls-1" d="m31.67,22.21h.74v2.47h1.07v.58h-1.81v-3.05Z"/><path class="cls-1" d="m35.3,22.79h-.66v-.58h2.05v.58h-.66v2.47h-.74s0-2.47,0-2.47Z"/><path class="cls-1" d="m36.96,22.21h.74v3.05h-.74v-3.05Z"/><path class="cls-1" d="m38.2,22.21h1.08l.39,2.01h0l.37-2.01h1.07v3.05h-.68v-2.38h0l-.48,2.38h-.57l-.51-2.38h0v2.38h-.66v-3.05h0Z"/><path class="cls-1" d="m41.59,22.21h1.15c.54,0,.9.25.9.75,0,.36-.19.63-.49.69h0c.23.04.58.14.58.77,0,.36-.17.85-1.04.85h-1.09v-3.05h0Zm.74,1.21h.2c.25,0,.36-.14.36-.36,0-.16-.09-.33-.36-.33h-.21v.69h0Zm0,1.31h.22c.3,0,.4-.18.4-.4,0-.3-.16-.43-.39-.43h-.24v.82h0Z"/><path class="cls-1" d="m44.12,22.21h1.82v.58h-1.08v.61h1.01v.58h-1.01v.7h1.13v.58h-1.86v-3.05h0Z"/><path class="cls-1" d="m46.32,22.21h1.24c.63,0,.84.38.84.79,0,.44-.18.67-.53.75h0c.47.07.5.36.51.77.02.6.03.67.14.71v.04h-.79c-.06-.1-.08-.28-.08-.62,0-.53-.07-.64-.31-.64h-.28v1.26h-.74s0-3.05,0-3.05Zm.74,1.28h.23c.3,0,.38-.22.38-.4,0-.23-.09-.39-.38-.39h-.22v.78h0Z"/><path class="cls-1" d="m51.69,24.19c.09-.13.11-.26.13-.4h.63c-.02.35-.11.66-.36.91l.43.56h-.78l-.14-.19c-.23.15-.46.25-.78.25-.72,0-.96-.47-.96-.85,0-.44.25-.65.6-.9-.13-.17-.31-.44-.31-.67,0-.48.39-.71.86-.71s.83.22.83.68c0,.38-.26.58-.55.8l.4.53Zm-.9-.18c-.18.13-.26.25-.26.4,0,.2.17.38.4.38.13,0,.25-.06.33-.15l-.47-.63h0Zm.17-.78c.14-.12.27-.23.27-.42,0-.15-.12-.24-.25-.24-.12,0-.24.09-.24.24s.12.29.22.42Z"/><path class="cls-1" d="m6.92,27.34h.74v1.14h.59v-1.14h.74v3.05h-.74v-1.31h-.59v1.31h-.74v-3.05Z"/><path class="cls-1" d="m10.02,27.34h.92l.78,3.05h-.76l-.11-.58h-.75l-.11.58h-.76l.8-3.05h0Zm.45.56h0l-.26,1.36h.54l-.27-1.36Z"/><path class="cls-1" d="m11.96,27.34h1.24c.63,0,.84.38.84.79,0,.44-.18.67-.53.75h0c.47.07.5.36.51.77.02.6.03.67.14.71v.04h-.79c-.06-.1-.08-.28-.08-.62,0-.53-.07-.64-.31-.64h-.28v1.26h-.74s0-3.05,0-3.05Zm.74,1.28h.23c.3,0,.38-.22.38-.4,0-.23-.09-.39-.38-.39h-.22v.78h0Z"/><path class="cls-1" d="m14.49,27.34h1.09c.73,0,1.04.36,1.04,1.43s-.14,1.63-1.12,1.63h-1.02v-3.05h0Zm.74,2.52h.2c.34,0,.46-.13.46-1.05,0-.75-.06-.94-.45-.94h-.21v2h0Z"/><path class="cls-1" d="m16.81,27.34h.74l.27,2.17h0l.33-2.17h.68l.35,2.17h0l.26-2.17h.71l-.55,3.05h-.82l-.32-2.17h0l-.3,2.17h-.82l-.56-3.05h0Z"/><path class="cls-1" d="m20.85,27.34h.92l.78,3.05h-.76l-.11-.58h-.75l-.11.58h-.76l.8-3.05h0Zm.45.56h0l-.26,1.36h.54l-.27-1.36Z"/><path class="cls-1" d="m22.8,27.34h1.24c.63,0,.84.38.84.79,0,.44-.18.67-.53.75h0c.47.07.5.36.51.77.02.6.03.67.14.71v.04h-.79c-.06-.1-.08-.28-.08-.62,0-.53-.07-.64-.31-.64h-.28v1.26h-.74s0-3.05,0-3.05Zm.74,1.28h.23c.3,0,.38-.22.38-.4,0-.23-.09-.39-.38-.39h-.22v.78h0Z"/><path class="cls-1" d="m25.32,27.34h1.82v.58h-1.08v.61h1.01v.58h-1.01v.7h1.13v.58h-1.86v-3.05h0Z"/><path class="cls-1" d="m29.24,27.34h.92l.78,3.05h-.76l-.11-.58h-.75l-.11.58h-.76l.8-3.05h0Zm.45.56h0l-.26,1.36h.54l-.27-1.36Z"/><path class="cls-1" d="m31.79,29.46v.1c0,.23.06.4.32.4s.33-.19.33-.36c0-.66-1.35-.29-1.35-1.44,0-.49.27-.9,1.03-.9s1,.36,1,.83v.07h-.71c0-.14-.02-.25-.06-.32-.05-.07-.11-.1-.22-.1-.18,0-.29.1-.29.33,0,.63,1.35.32,1.35,1.4,0,.69-.4.98-1.07.98-.54,0-1.03-.16-1.03-.79v-.2h.71Z"/><path class="cls-1" d="m34.15,29.46v.1c0,.23.06.4.32.4s.33-.19.33-.36c0-.66-1.35-.29-1.35-1.44,0-.49.27-.9,1.03-.9s1,.36,1,.83v.07h-.71c0-.14-.02-.25-.06-.32-.05-.07-.11-.1-.22-.1-.18,0-.29.1-.29.33,0,.63,1.35.32,1.35,1.4,0,.69-.4.98-1.07.98-.54,0-1.03-.16-1.03-.79v-.2h.71Z"/><path class="cls-1" d="m36.93,30.45c-.97,0-1.1-.62-1.1-1.59s.13-1.59,1.1-1.59c1.05,0,1.1.74,1.1,1.59s-.06,1.59-1.1,1.59Zm0-.48c.3,0,.34-.27.34-1.11s-.05-1.11-.34-1.11-.33.27-.33,1.11.05,1.11.33,1.11Z"/><path class="cls-1" d="m39.74,28.4c0-.44-.06-.64-.3-.64-.29,0-.32.28-.32,1.07,0,.9.03,1.14.34,1.14.27,0,.3-.3.31-.78h.71v.11c0,.66-.19,1.15-1.1,1.15s-1.02-.69-1.02-1.61c0-.78.05-1.57,1.09-1.57.65,0,1.01.28,1.01.99v.13h-.71,0Z"/><path class="cls-1" d="m40.8,27.34h.74v3.05h-.74v-3.05Z"/><path class="cls-1" d="m42.59,27.34h.92l.78,3.05h-.76l-.11-.58h-.75l-.11.58h-.76l.8-3.05h0Zm.45.56h0l-.26,1.36h.54l-.27-1.36Z"/><path class="cls-1" d="m44.75,27.93h-.66v-.58h2.05v.58h-.66v2.47h-.74s0-2.47,0-2.47Z"/><path class="cls-1" d="m46.42,27.34h.74v3.05h-.74v-3.05Z"/><path class="cls-1" d="m48.65,30.45c-.97,0-1.1-.62-1.1-1.59s.13-1.59,1.1-1.59c1.05,0,1.1.74,1.1,1.59s-.06,1.59-1.1,1.59Zm0-.48c.3,0,.34-.27.34-1.11s-.05-1.11-.34-1.11-.33.27-.33,1.11.05,1.11.33,1.11Z"/><path class="cls-1" d="m50.14,27.34h.85l.6,1.98h0v-1.98h.68v3.05h-.83l-.64-2.11h0v2.11h-.66s0-3.05,0-3.05Z"/></g><polygon class="cls-1" points="19.26 0 16.7 1.76 8.79 1.76 8.79 7.21 0 13.26 6.9 13.19 6.9 24.96 14.69 25.01 14.7 23.06 9.22 23.03 9.22 10.98 7.16 11 19.3 2.64 26.64 7.41 30.68 7.41 19.26 0"/></g></g><path class="cls-1" d="m14.34,10.59h3.15l4.09,6.33h.03v-6.33h2.89v10.28h-3.15l-4.09-6.41h-.03v6.41h-2.89v-10.28Z"/><path class="cls-1" d="m31.82,12.89h-1.83v7.98h-3.07v-7.98h-1.83v-2.3h6.74v2.3Z"/><path class="cls-1" d="m32.61,10.59h2.77v3.74h3.65v-3.74h2.77v10.28h-2.77v-4.23h-3.65v4.23h-2.77v-10.28Z"/><path class="cls-1" d="m45.89,10.59h2.9l4.1,10.28h-2.98l-.67-1.84h-3.82l-.69,1.84h-2.93l4.1-10.28Zm.18,6.45h2.49l-1.21-3.6h-.03l-1.24,3.6Z"/><g><path class="cls-1" d="m50.75,10.98h-.37v1.14h-.33v-1.14h-.37v-.33h1.07v.33Z"/><path class="cls-1" d="m50.89,10.65h.48l.22.98h0l.22-.98h.48v1.47h-.31v-1.12h0l-.26,1.12h-.25l-.26-1.12h0v1.12h-.31v-1.47Z"/></g></g></svg>