<?xml version="1.0" encoding="utf-8"?>
<!-- Generator: Adobe Illustrator 28.0.0, SVG Export Plug-In . SVG Version: 6.00 Build 0)  -->
<svg version="1.1" id="Layer_1" xmlns="http://www.w3.org/2000/svg" xmlns:xlink="http://www.w3.org/1999/xlink" x="0px" y="0px"
	 viewBox="0 0 154 36" style="enable-background:new 0 0 154 36;" xml:space="preserve">
<style type="text/css">
	.st0{fill:#676767;}
</style>
<g id="Layer_1-2_00000157268427439360296770000006073502532902798981_">
	<g id="Layer_1-2">
		<g>
			<g>
				<path class="st0" d="M65.6,25.7h0.9l0.6,2.1l0,0v-2.1h0.7V29H67l-0.7-2.3l0,0V29h-0.7C65.6,29,65.6,25.7,65.6,25.7z"/>
				<path class="st0" d="M69,25.7h1l0.8,3.3H70l-0.1-0.6h-0.8L69,29h-0.8L69,25.7L69,25.7L69,25.7z M69.5,26.3L69.5,26.3l-0.3,1.5
					h0.6L69.5,26.3L69.5,26.3z"/>
				<path class="st0" d="M71.3,26.3h-0.7v-0.6h2.2v0.6h-0.7V29h-0.8L71.3,26.3L71.3,26.3z"/>
				<path class="st0" d="M73.1,25.7h0.8V29h-0.8V25.7z"/>
				<path class="st0" d="M75.5,29c-1,0-1.2-0.7-1.2-1.7c0-1,0.1-1.7,1.2-1.7c1.1,0,1.2,0.8,1.2,1.7C76.7,28.3,76.6,29,75.5,29z
					 M75.5,28.5c0.3,0,0.4-0.3,0.4-1.2c0-0.9-0.1-1.2-0.4-1.2c-0.3,0-0.4,0.3-0.4,1.2C75.2,28.2,75.2,28.5,75.5,28.5z"/>
				<path class="st0" d="M77.1,25.7H78l0.6,2.1l0,0v-2.1h0.7V29h-0.9l-0.7-2.3l0,0V29h-0.7C77.1,29,77.1,25.7,77.1,25.7z"/>
				<path class="st0" d="M80.5,25.7h1l0.8,3.3h-0.8l-0.1-0.6h-0.8L80.5,29h-0.8L80.5,25.7L80.5,25.7L80.5,25.7z M81,26.3L81,26.3
					l-0.3,1.5h0.6L81,26.3L81,26.3z"/>
				<path class="st0" d="M82.6,25.7h0.8v2.6h1.1V29h-1.9V25.7z"/>
				<path class="st0" d="M86.5,26.3h-0.7v-0.6h2.2v0.6h-0.7V29h-0.8L86.5,26.3L86.5,26.3z"/>
				<path class="st0" d="M88.2,25.7H89V29h-0.8V25.7z"/>
				<path class="st0" d="M89.5,25.7h1.2l0.4,2.1l0,0l0.4-2.1h1.1V29h-0.7v-2.5l0,0L91.4,29h-0.6l-0.5-2.5l0,0V29h-0.7L89.5,25.7
					L89.5,25.7L89.5,25.7z"/>
				<path class="st0" d="M93.2,25.7h1.2c0.6,0,1,0.3,1,0.8c0,0.4-0.2,0.7-0.5,0.7l0,0c0.2,0,0.6,0.1,0.6,0.8c0,0.4-0.2,0.9-1.1,0.9
					h-1.2L93.2,25.7L93.2,25.7L93.2,25.7z M94,27h0.2c0.3,0,0.4-0.1,0.4-0.4c0-0.2-0.1-0.4-0.4-0.4h-0.2L94,27L94,27L94,27z
					 M94,28.4h0.2c0.3,0,0.4-0.2,0.4-0.4c0-0.3-0.2-0.5-0.4-0.5h-0.3L94,28.4L94,28.4L94,28.4z"/>
				<path class="st0" d="M95.9,25.7h1.9v0.6h-1.2V27h1.1v0.6h-1.1v0.7h1.2V29h-2L95.9,25.7L95.9,25.7L95.9,25.7z"/>
				<path class="st0" d="M98.2,25.7h1.3c0.7,0,0.9,0.4,0.9,0.8c0,0.5-0.2,0.7-0.6,0.8l0,0c0.5,0.1,0.5,0.4,0.5,0.8
					c0,0.6,0,0.7,0.1,0.8v0h-0.8c-0.1-0.1-0.1-0.3-0.1-0.7c0-0.6-0.1-0.7-0.3-0.7H99V29h-0.8L98.2,25.7L98.2,25.7z M99,27.1h0.2
					c0.3,0,0.4-0.2,0.4-0.4c0-0.2-0.1-0.4-0.4-0.4H99L99,27.1L99,27.1L99,27.1z"/>
				<path class="st0" d="M103.9,27.8c0.1-0.1,0.1-0.3,0.1-0.4h0.7c0,0.4-0.1,0.7-0.4,1l0.5,0.6H104l-0.1-0.2
					c-0.2,0.2-0.5,0.3-0.8,0.3c-0.8,0-1-0.5-1-0.9c0-0.5,0.3-0.7,0.6-1c-0.1-0.2-0.3-0.5-0.3-0.7c0-0.5,0.4-0.8,0.9-0.8
					s0.9,0.2,0.9,0.7c0,0.4-0.3,0.6-0.6,0.9L103.9,27.8L103.9,27.8z M103,27.7c-0.2,0.1-0.3,0.3-0.3,0.4c0,0.2,0.2,0.4,0.4,0.4
					c0.1,0,0.3-0.1,0.4-0.2L103,27.7C103,27.7,103,27.7,103,27.7z M103.2,26.8c0.1-0.1,0.3-0.2,0.3-0.4c0-0.2-0.1-0.3-0.3-0.3
					c-0.1,0-0.3,0.1-0.3,0.3C102.9,26.5,103.1,26.7,103.2,26.8z"/>
				<path class="st0" d="M56.2,31.2h0.8v1.2h0.6v-1.2h0.8v3.3h-0.8v-1.4h-0.6v1.4h-0.8V31.2z"/>
				<path class="st0" d="M59.5,31.2h1l0.8,3.3h-0.8l-0.1-0.6h-0.8l-0.1,0.6h-0.8L59.5,31.2L59.5,31.2L59.5,31.2z M59.9,31.8
					L59.9,31.8l-0.3,1.5h0.6L59.9,31.8L59.9,31.8z"/>
				<path class="st0" d="M61.5,31.2h1.3c0.7,0,0.9,0.4,0.9,0.8c0,0.5-0.2,0.7-0.6,0.8l0,0c0.5,0.1,0.5,0.4,0.5,0.8
					c0,0.6,0,0.7,0.1,0.8v0H63C63,34.4,63,34.2,63,33.8c0-0.6-0.1-0.7-0.3-0.7h-0.3v1.3h-0.8L61.5,31.2L61.5,31.2z M62.3,32.6h0.2
					c0.3,0,0.4-0.2,0.4-0.4c0-0.2-0.1-0.4-0.4-0.4h-0.2L62.3,32.6L62.3,32.6L62.3,32.6z"/>
				<path class="st0" d="M64.2,31.2h1.2c0.8,0,1.1,0.4,1.1,1.5s-0.1,1.7-1.2,1.7h-1.1L64.2,31.2L64.2,31.2L64.2,31.2z M65,33.9h0.2
					c0.4,0,0.5-0.1,0.5-1.1c0-0.8-0.1-1-0.5-1H65V33.9L65,33.9L65,33.9z"/>
				<path class="st0" d="M66.7,31.2h0.8l0.3,2.3l0,0l0.4-2.3h0.7l0.4,2.3l0,0l0.3-2.3h0.8l-0.6,3.3h-0.9l-0.3-2.3l0,0l-0.3,2.3h-0.9
					L66.7,31.2L66.7,31.2L66.7,31.2z"/>
				<path class="st0" d="M71,31.2h1l0.8,3.3H72l-0.1-0.6h-0.8L71,34.5h-0.8L71,31.2L71,31.2L71,31.2z M71.5,31.8L71.5,31.8l-0.3,1.5
					h0.6L71.5,31.8L71.5,31.8z"/>
				<path class="st0" d="M73.1,31.2h1.3c0.7,0,0.9,0.4,0.9,0.8c0,0.5-0.2,0.7-0.6,0.8l0,0c0.5,0.1,0.5,0.4,0.5,0.8
					c0,0.6,0,0.7,0.1,0.8v0h-0.8c-0.1-0.1-0.1-0.3-0.1-0.7c0-0.6-0.1-0.7-0.3-0.7h-0.3v1.3h-0.8V31.2L73.1,31.2z M73.9,32.6h0.2
					c0.3,0,0.4-0.2,0.4-0.4c0-0.2-0.1-0.4-0.4-0.4h-0.2L73.9,32.6L73.9,32.6L73.9,32.6z"/>
				<path class="st0" d="M75.8,31.2h1.9v0.6h-1.2v0.7h1.1v0.6h-1.1v0.7h1.2v0.6h-2L75.8,31.2L75.8,31.2L75.8,31.2z"/>
				<path class="st0" d="M80,31.2h1l0.8,3.3H81l-0.1-0.6h-0.8L80,34.5h-0.8L80,31.2L80,31.2L80,31.2z M80.5,31.8L80.5,31.8l-0.3,1.5
					h0.6L80.5,31.8L80.5,31.8z"/>
				<path class="st0" d="M82.7,33.5v0.1c0,0.2,0.1,0.4,0.3,0.4c0.3,0,0.4-0.2,0.4-0.4c0-0.7-1.4-0.3-1.4-1.5c0-0.5,0.3-1,1.1-1
					c0.8,0,1.1,0.4,1.1,0.9v0.1h-0.8c0-0.1,0-0.3-0.1-0.3c-0.1-0.1-0.1-0.1-0.2-0.1c-0.2,0-0.3,0.1-0.3,0.4c0,0.7,1.4,0.3,1.4,1.5
					c0,0.7-0.4,1-1.1,1c-0.6,0-1.1-0.2-1.1-0.8v-0.2L82.7,33.5L82.7,33.5z"/>
				<path class="st0" d="M85.2,33.5v0.1c0,0.2,0.1,0.4,0.3,0.4s0.4-0.2,0.4-0.4c0-0.7-1.4-0.3-1.4-1.5c0-0.5,0.3-1,1.1-1
					c0.8,0,1.1,0.4,1.1,0.9v0.1h-0.8c0-0.1,0-0.3-0.1-0.3c-0.1-0.1-0.1-0.1-0.2-0.1c-0.2,0-0.3,0.1-0.3,0.4c0,0.7,1.4,0.3,1.4,1.5
					c0,0.7-0.4,1-1.1,1c-0.6,0-1.1-0.2-1.1-0.8v-0.2L85.2,33.5L85.2,33.5z"/>
				<path class="st0" d="M88.2,34.5c-1,0-1.2-0.7-1.2-1.7c0-1,0.1-1.7,1.2-1.7c1.1,0,1.2,0.8,1.2,1.7C89.4,33.7,89.3,34.5,88.2,34.5
					z M88.2,34c0.3,0,0.4-0.3,0.4-1.2c0-0.9-0.1-1.2-0.4-1.2s-0.4,0.3-0.4,1.2C87.8,33.7,87.9,34,88.2,34z"/>
				<path class="st0" d="M91.2,32.3c0-0.5-0.1-0.7-0.3-0.7c-0.3,0-0.3,0.3-0.3,1.1c0,1,0,1.2,0.4,1.2c0.3,0,0.3-0.3,0.3-0.8H92v0.1
					c0,0.7-0.2,1.2-1.2,1.2s-1.1-0.7-1.1-1.7c0-0.8,0.1-1.7,1.2-1.7c0.7,0,1.1,0.3,1.1,1.1v0.1L91.2,32.3L91.2,32.3L91.2,32.3z"/>
				<path class="st0" d="M92.3,31.2h0.8v3.3h-0.8V31.2z"/>
				<path class="st0" d="M94.2,31.2h1l0.8,3.3h-0.8l-0.1-0.6h-0.8l-0.1,0.6h-0.8L94.2,31.2L94.2,31.2L94.2,31.2z M94.7,31.8
					L94.7,31.8l-0.3,1.5H95L94.7,31.8L94.7,31.8z"/>
				<path class="st0" d="M96.5,31.8h-0.7v-0.6H98v0.6h-0.7v2.6h-0.8L96.5,31.8L96.5,31.8z"/>
				<path class="st0" d="M98.3,31.2h0.8v3.3h-0.8V31.2z"/>
				<path class="st0" d="M100.7,34.5c-1,0-1.2-0.7-1.2-1.7c0-1,0.1-1.7,1.2-1.7c1.1,0,1.2,0.8,1.2,1.7
					C101.9,33.7,101.8,34.5,100.7,34.5z M100.7,34c0.3,0,0.4-0.3,0.4-1.2c0-0.9-0.1-1.2-0.4-1.2c-0.3,0-0.4,0.3-0.4,1.2
					C100.3,33.7,100.4,34,100.7,34z"/>
				<path class="st0" d="M102.3,31.2h0.9l0.6,2.1l0,0v-2.1h0.7v3.3h-0.9l-0.7-2.3l0,0v2.3h-0.7C102.3,34.5,102.3,31.2,102.3,31.2z"
					/>
			</g>
			<polygon class="st0" points="69.3,2 66.6,3.9 58.2,3.9 58.2,9.7 48.8,16.2 56.1,16.1 56.1,28.7 64.5,28.7 64.5,26.6 58.6,26.6 
				58.6,13.7 56.4,13.8 69.4,4.8 77.2,9.9 81.5,9.9 			"/>
		</g>
	</g>
	<path class="st0" d="M64.1,13.3h3.4l4.4,6.8h0v-6.8h3.1v11h-3.4l-4.4-6.8h0v6.8h-3.1C64.1,24.3,64.1,13.3,64.1,13.3z"/>
	<path class="st0" d="M82.7,15.8h-2v8.5h-3.3v-8.5h-2v-2.5h7.2L82.7,15.8L82.7,15.8z"/>
	<path class="st0" d="M83.6,13.3h3v4h3.9v-4h3v11h-3v-4.5h-3.9v4.5h-3C83.6,24.3,83.6,13.3,83.6,13.3z"/>
	<path class="st0" d="M97.8,13.3h3.1l4.4,11H102l-0.7-2h-4.1l-0.7,2h-3.1L97.8,13.3L97.8,13.3z M97.9,20.2h2.7l-1.3-3.8h0L97.9,20.2
		L97.9,20.2z"/>
	<g>
		<path class="st0" d="M102.9,13.7h-0.4V15h-0.4v-1.2h-0.4v-0.4h1.1V13.7z"/>
		<path class="st0" d="M103.1,13.4h0.5l0.2,1l0,0l0.2-1h0.5V15h-0.3v-1.2l0,0L104,15h-0.3l-0.3-1.2l0,0V15h-0.3L103.1,13.4
			L103.1,13.4z"/>
	</g>
</g>
</svg>
